/* XPM */
static char * apple_xpm[] = {
"28 24 2 1",
" 	c None",
".	c #000000",
"                            ",
"                  .         ",
"                 .          ",
"                .           ",
"               ..           ",
"               .            ",
"         ....    ....       ",
"        ..............      ",
"       ...............      ",
"      ...............       ",
"      ..............        ",
"     ..............         ",
"     ..............         ",
"     ..............         ",
"     ..............         ",
"      ..............        ",
"      ................      ",
"       ................     ",
"       ...............      ",
"        .............       ",
"         ...........        ",
"          ..   ....   .     ",
"                            ",
"                            "};
