/* XPM */
static char * caldera_xpm[] = {
"28 24 3 1",
" 	c None",
".	c #000000",
"+	c #ECF2F7",
"                            ",
"         ........           ",
"       ............         ",
"      ...............       ",
"     ............... .      ",
"    ............... ...     ",
"    .......      . ....     ",
"   ....... ...... ......    ",
"   ...... ..............    ",
"   ..... ...............    ",
"   ..... ...............    ",
"   ..... ...............    ",
"   ..... ...............    ",
"   ..... ...............    ",
"   ...... ..............    ",
"   ....... ...... ......    ",
"    .......      . .... +   ",
"    ............... ...     ",
"     ............... .      ",
"      ...............       ",
"       ..............       ",
"        ...........         ",
"          .......           ",
"                            "};
