/* XPM */
static char *hand_down[] = {
/* width height ncolors chars_per_pixel */
"16 16 2 1",
/* colors */
"  c #000000",
". c None",
/* pixels */
"................",
"......   .......",
". ... ..  ... ..",
".. .. .... . ...",
"..... .... .....",
"..... ..... ....",
"....  ..... ....",
"  . . ..... .  .",
"... . ..... ....",
"... . ..... ....",
"... ....... ....",
"... ....... ....",
".... ..... .....",
".. .. .... . ...",
". ... .... .. ..",
"................"
};
