/* XPM */
static char *hand_up_mask[] = {
/* width height ncolors chars_per_pixel */
"16 16 2 1",
/* colors */
"  c #000000",
". c None",
/* pixels */
".......   ......",
".....      .....",
".....        ...",
".....         ..",
".....         ..",
"....          ..",
"...           ..",
"...           ..",
"...           ..",
"...           ..",
"...           ..",
"...           ..",
"....          ..",
".....        ...",
"......       ...",
"......       ..."
};
