/* XPM */
static char * next_xpm[] = {
"28 24 3 1",
" 	c None",
".	c #000000",
"+	c #FFFFFF",
"                            ",
"                .           ",
"              ....          ",
"            ..   .          ",
"          ... .. ..         ",
"         ....   .. .        ",
"      ..... . ... ..        ",
"       .. .. . .  ...       ",
"      . .    .. .. ..       ",
"      . . ... .... ...      ",
"     .. .. ... .... ..      ",
"     ... .... ........      ",
"     ... .  . .......       ",
"     .... ..     ..  .      ",
"      ... ... ...  ...      ",
"      .... . ..  .....      ",
"       ... .   ......       ",
"       .... .........       ",
"        .. . ......         ",
"        ... .....           ",
"         . ....             ",
"          ...               ",
"          .                 ",
"                            "};
