/* XPM */
static char * inventory_xpm[] = {
"24 24 3 1",
" 	c none s mask",
".	c #BEFB59650000",
"X	c #000000000000",
"                        ",
"                        ",
"                        ",
"                        ",
"             .....      ",
"          .......       ",
"         .......        ",
"        .....XXXXX      ",
"       .....X.....X     ",
"       ....X.......X    ",
"       ...X.........X   ",
"       ..............X  ",
"      ...............X  ",
"      ................X ",
"        X.............X ",
"        X.............X ",
"        X.............X ",
"        X.............X ",
"        X.............X ",
"        X.............X ",
"         X...........X  ",
"         X...........X  ",
"          X.........X   ",
"           X.......X    "};
