/* XPM */
static char * up_xpm[] = {
"24 24 2 1",
" 	c none s mask",
".	c #000000000000",
"                        ",
"                        ",
"                        ",
"                        ",
"                        ",
"      ...     ...       ",
"      ...     ...       ",
"      ...     ...       ",
"      ...     ...       ",
"      ...     ...       ",
"      ...     ...       ",
"      ...     ...       ",
"      ...     ...       ",
"      ...     ...       ",
"      ...     ...       ",
"       ...   ...        ",
"       .........        ",
"         .....          ",
"                        ",
"                        ",
"                        ",
"                        ",
"                        ",
"                        "};
