/* XPM */
static const char * unknown_xpm[] = {
"16 16 10 1",
" 	c None",
".	c #000000",
"+	c #D89C90",
"@	c #D06458",
"#	c #843424",
"$	c #505448",
"%	c #E0E4E0",
"&	c #9CACA4",
"*	c #D0D4C4",
"=	c #909894",
"                ",
" .............. ",
" .+@@@@@@@#+@#. ",
" .$$$$$$$$$$$$. ",
" .%&%&%&%&%&%&. ",
" .&*&*&*&*&*&=. ",
" .%&*&*&*&*&*&. ",
" .&*&*&*&*&*&=. ",
" .%&*&*&*&*&*&. ",
" .&*&*&*&*&*&=. ",
" .%&*&*&*&*&*&. ",
" .&*&*&*&*&*&=. ",
" .%&*&*&*&*&*&. ",
" .&=&=&=&=&=&=. ",
" .............. ",
"                "};
