/* XPM */
static char * button_xpm[] = {
"29 33 164 2",
"      c None",
".     c #B3B000",
"+     c #AAA800",
"@     c #A29F00",
"#     c #989600",
"$     c #8F8C00",
"%     c #858300",
"&     c #7B7900",
"*     c #D0CD00",
"=     c #CAC600",
"-     c #C2BF00",
";     c #B9B600",
">     c #B0AD00",
",     c #A6A400",
"'     c #9C9A00",
")     c #929000",
"!     c #888600",
"~     c #7E7C00",
"{     c #747200",
"]     c #6A6800",
"^     c #605E00",
"/     c #DFDB00",
"(     c #D9D500",
"_     c #C7C400",
":     c #BEBB00",
"<     c #B4B100",
"[     c #AAA700",
"}     c #A09D00",
"|     c #959300",
"1     c #8B8900",
"2     c #817F00",
"3     c #767400",
"4     c #6C6A00",
"5     c #616000",
"6     c #575600",
"7     c #E8E400",
"8     c #ECE800",
"9     c #D5D200",
"0     c #CBC800",
"a     c #C1BE00",
"b     c #B6B300",
"c     c #ACA900",
"d     c #979500",
"e     c #8D8A00",
"f     c #828000",
"g     c #787600",
"h     c #6D6B00",
"i     c #636100",
"j     c #585700",
"k     c #4E4C00",
"l     c #434200",
"m     c #E1DE00",
"n     c #F7F200",
"o     c #D7D300",
"p     c #CCC900",
"q     c #B7B400",
"r     c #ADAA00",
"s     c #A2A000",
"t     c #989500",
"u     c #8D8B00",
"v     c #838000",
"w     c #6D6C00",
"x     c #4E4D00",
"y     c #393800",
"z     c #383800",
"A     c #4D4B00",
"B     c #424100",
"C     c #383700",
"D     c #2D2C00",
"E     c #555400",
"F     c #4B4A00",
"G     c #413F00",
"H     c #363500",
"I     c #2C2B00",
"J     c #212100",
"K     c #BBB800",
"L     c #716F00",
"M     c #676500",
"N     c #5D5B00",
"O     c #535100",
"P     c #494700",
"Q     c #3E3D00",
"R     c #343300",
"S     c #2A2900",
"T     c #1F1F00",
"U     c #A4A100",
"V     c #9C9900",
"W     c #939100",
"X     c #8A8800",
"Y     c #777500",
"Z     c #646200",
"`     c #5A5800",
" .    c #504F00",
"..    c #464500",
"+.    c #3C3B00",
"@.    c #323100",
"#.    c #272700",
"$.    c #1D1D00",
"%.    c #9D9A00",
"&.    c #848200",
"*.    c #7C7A00",
"=.    c #727100",
"-.    c #696700",
";.    c #565500",
">.    c #4C4B00",
",.    c #2E2E00",
"'.    c #242400",
").    c #1A1A00",
"!.    c #101000",
"~.    c #8E8C00",
"{.    c #868400",
"].    c #5B5900",
"^.    c #515000",
"/.    c #484700",
"(.    c #353400",
"_.    c #2B2A00",
":.    c #171700",
"<.    c #0D0D00",
"[.    c #7F7D00",
"}.    c #706E00",
"|.    c #5E5D00",
"1.    c #565400",
"2.    c #3A3900",
"3.    c #303000",
"4.    c #272600",
"5.    c #131300",
"6.    c #0A0900",
"7.    c #615F00",
"8.    c #474600",
"9.    c #222200",
"0.    c #191800",
"a.    c #0F0F00",
"b.    c #060600",
"c.    c #525000",
"d.    c #4A4800",
"e.    c #414000",
"f.    c #302F00",
"g.    c #141400",
"h.    c #0B0B00",
"i.    c #010100",
"j.    c #3B3A00",
"k.    c #323200",
"l.    c #181800",
"m.    c #000000",
"n.    c #444200",
"o.    c #242300",
"p.    c #1B1B00",
"q.    c #121200",
"r.    c #252500",
"s.    c #151500",
"t.    c #0C0C00",
"u.    c #040400",
"v.    c #262500",
"w.    c #1E1E00",
"x.    c #161600",
"y.    c #0E0E00",
"z.    c #171600",
"A.    c #080700",
"B.    c #080800",
"C.    c #2E2D00",
"D.    c #232300",
"E.    c #232200",
"F.    c #090900",
"G.    c #030300",
"                                                          ",
"                      . + @ # $ % &                       ",
"                * = - ; > , ' ) ! ~ { ] ^                 ",
"              / ( * _ : < [ } | 1 2 3 4 5 6               ",
"          7 8 7 / 9 0 a b c @ d e f g h i j k l           ",
"        m 8 n 8 m o p - q r s t u v g w i j x l y         ",
"        / 7 8 7 / 9 0 a b c @ d e f g h i j k l z         ",
"      * ( / m / ( * _ : < [ } | 1 2 3 4 5 6 A B C D       ",
"    - = * 9 o 9 * = - ; > , ' ) ! ~ { ] ^ E F G H I J     ",
"    K - _ 0 p 0 _ - K . + @ # $ % & L M N O P Q R S T     ",
"    . ; : a - a : ; . c U V W X 2 Y w Z `  ...+.@.#.$.    ",
"  U + > < b q b < > + U %.| u &.*.=.-.^ ;.>.B z ,.'.).!.  ",
"  V @ , [ c r c [ , @ V | ~.{.~ 3 h Z ].^./.Q (._.J :.<.  ",
"  W # ' } @ s @ } ' # W u {.[.g }.M |.1.A l 2.3.4.$.5.6.  ",
"  X $ ) | d t d | ) $ X &.~ g }.-.7.j  .8.Q (.I 9.0.a.b.  ",
"  2 % ! 1 e u e 1 ! % 2 *.3 }.-.5 ` c.d.e.z f.4.$.g.h.i.  ",
"  Y & ~ 2 f v f 2 ~ & Y =.h M 7.` O F l j.k.S J l.a.b.m.  ",
"  w L { 3 g g g 3 { L w -.Z |.j c.F n.+.R I o.p.q.6.i.m.  ",
"    M ] 4 h w h 4 ] M Z ^ ].1. .d.l +.(.D r.$.s.t.u.m.    ",
"    N ^ 5 i i i 5 ^ N ` ;.^.A 8.e.j.R D v.w.x.y.b.m.m.    ",
"    O E 6 j j j 6 E O  .>./.l Q z k.I r.w.z.a.A.m.m.m.    ",
"      F A k x k A F P ..B Q 2.(.f.S o.$.x.a.B.m.m.m.      ",
"        B l l l B G Q +.z (.3.I 4.J p.s.y.A.m.m.m.        ",
"        C z y z C H R @.,._.4.9.$.l.q.t.b.m.m.m.m.        ",
"          C.C.C.D I S #.'.J $.0.g.a.6.u.m.m.m.m.          ",
"              D.E.J T $.).:.5.a.h.b.i.m.m.m.              ",
"                l.z.s.5.!.<.6.b.i.m.m.m.m.                ",
"                      F.b.G.m.m.m.m.                      ",
"                                                          ",
"                                                          ",
"                                                          ",
"                                                          ",
"                                                          "};
