/* XPM */
static char * actionsxpm[] = {
"57 9 4 1",
"#	c None",
".	c #0B0B0C",
"+	c #A7A7A7",
"@	c #5A5A59",
"####..##############+.+##################################",
"###@..+##########.@##+###################################",
"###@..@####+@+##+..@+.+##+@@###+@#@+####+@+##############",
"##+.@@.###@...@#+..++.+#@....##@....+##..@.@#############",
"##@.++.+##.@#@.##.@#+.++..##..#@.+#.@#+.+#+@#############",
"##..++..#+.######.@#+.++.###@.#@.##@@##...@+#############",
"#+......++.+#+@##.@#+.++.+##..#@.##@@#++++@.#############",
"#+.@++@.+#..+@.##..++.+#..++.@#@.##@@#@.+#@.#+@+#@@#+@+##",
"#..+##+..#+@..+##@.@+.+#+...@##@.##@@##....+#+.@#..#@.+##"};
