/* XPM */
static char *addxpm[] = {
/* width height num_colors chars_per_pixel */
"    57    9        4            1",
/* colors */
". c nocolor",
"# c #a3a3a4",
"a c #525252",
"b c #070708",
/* pixels */
"....#.......#a.....a#....................................",
"..#b#......ab.....ba............................#aa......",
"..aba....##ab...##ba............................#bbb#....",
"..b#a...baabb.#baaba............................#bbbba#..",
".#a.b#.#b#.ab.aa..ba............................#bbbbbba#",
".a#.ba.ba..ab#b#..ba............................#bbbbba..",
".bbbba.ba..ab#b#..ba............................#bbb##...",
"a#..#b#ab#abb#ba#bba............................#aa......",
"a#..#b##abbab.#bbaba............................#........",
};
