/* XPM */
static char *cancelxpm[] = {
/* width height num_colors chars_per_pixel */
"    38    9        4            1",
/* colors */
". c none",
"# c #a3a3a4",
"a c #525252",
"b c #070708",
/* pixels */
"...####..........................#aaa#",
".#aaaaa...........................##aa",
".aa...#.####..#..##...####...###....aa",
"#b......baab#.ababa#.aaaab#.aaab#...aa",
"ab......#..ab.ab##ba.b#..#.ab#.#b#..aa",
"ab......abbbb.aa..baab.....bbbbbb#..aa",
"#b.....bb..ab.aa..baab.....ba.......aa",
".bb....ba..ab.aa..ba.ba....#b#..#...aa",
"..abbba#bbbbb#aa..ba.#bbbb#.abbbb#..aa"
};
