/* XPM */
static char *closexpm[] = {
/* width height num_colors chars_per_pixel */
"    31     10        5            1",
/* colors */
". c #070709",
"# c #a6a6a6",
"a c #5e5e5d",
"b c nocoloe",
"c c #3a3a3c",
/* pixels */
"bbbbbbbbbbbbbbbbbbbbbbbbbbbbbbb",
"bba...#bb.abbbbbbbbbbbbbbbbbbbb",
"bc.##c.#b.abbbbbbbbbbbbbbbbbbbb",
"#.#bbbabb.abba..abb#c..#bba..#b",
"a.bbbbbbb.aba.##.ab.cba#ba.#a.#",
"a.bbbbbbb.ab.cbbc.b..c#bb.c##.a",
"a.bbbb#bb.ab.abba.bb#c..b..aac#",
"b.abbc.ab.abc.bb.cba#bc.bc.bb#b",
"b#....abb.abb....bbc...ab#....#",
"bbb##bbbb##bbb##bbbb###bbbb##bb"
};
