/* XPM */
static char *leftxpm[] = {
/* width height num_colors chars_per_pixel */
"    14    10        4            1",
/* colors */
". c #020204",
"# c #aaaaab",
"a c none",
"b c #565654",
/* pixels */
"aaaaaaaaaaaaaa",
"aaaaaaaaaaaaaa",
"aaaaaaaaaaaaaa",
"aaa#######aaaa",
"aaab......aaaa",
"aaab......aaaa",
"aaa#bbbbbbaaaa",
"aaaaaaaaaaaaaa",
"aaaaaaaaaaaaaa",
"aaaaaaaaaaaaaa"
};
