/* XPM */
static char *log_xpm[] = {
/* width height num_colors chars_per_pixel */
"    48    48       20            1",
/* colors */
". c #cc9966",
"# c #cc9933",
"a c #cc6666",
"b c #cc6633",
"c c #999966",
"d c #999933",
"e c #996666",
"f c #996633",
"g c #996600",
"h c #993333",
"i c #993300",
"j c #666633",
"k c #666600",
"l c #663333",
"m c #663300",
"n c #333333",
"o c #333300",
"p c #330033",
"q c #330000",
"r c none s mask",
/* pixels */
"rrrrrrrrrrrrrrrrrrrrrrrrrrrrrrrrrrrrrrrrrrrrrrrr",
"rrrrrrrrrrrrrrrrrrrrrrrrrrrrrrrrrrrrrrrrrrrrrrrr",
"rrrrrrrrrrrrrrrrrrrrrrrrrrrrrrrrrrrrrrrrrrrrrrrr",
"rrrrrrrrrrrrrrrrrrrrrrrrrrrrrrrrrrrrrrrrrrrrrrrr",
"rrrrrrrrrrrrrrrrrrrrrrrrrrrrrrrrrrrrrrrrrrrrrrrr",
"rrrrrrrrrrrrrrrrrrrrrrrrrrrrrrrrrrrrrrrrrrrrrrrr",
"rrrrrrrrrrrrrrrrrrrrrrrrrrrrrrrrrrrrrrrrrrrrrrrr",
"rrrrrrrrrrrrrrrrrrrrrrrrrrrrrrrrrrrrrrrrrrrrrrrr",
"rrrrrrrrrrrrrrrrrrrrrrrrrrrrrrrrrrrrrrrrrrrrrrrr",
"rrrrrrrrrrrrrrrrrrrrrrrrrrrrrrrrrrrrrrrrrrrrrrrr",
"rrrrrrrrrrrrrrrrrrrrrrrrrrrrrrrrrrrrrrrrrrrrrrrr",
"rrrrrrrrrrrrrrrrrrrrrrrrrrrrrrrrrrrrrrrrrrrrrrrr",
"rrrrrrrrrrrrrrrrrrrrrrrrrrrrrrrrrrrrrrrrrrrrrrrr",
"rrrrrrrrrrrrrrrrrrrrrrrrrrrrrrrrrrrrrrrrrrrrrrrr",
"rrrrrrrrrrrrrrrrrrrrrrrrrrrrrrrrrrrrrrrrrrrrrrrr",
"rrrrrrqrrrrrrrrrrrrrrrrrrrrrrrrrrrrrrrrrrrrrrrrr",
"rrrrroljfmrrrrrrrrrrrrrrrrrrrrrrrrrrrrrrrrrrrrrr",
"rrrrrfbfffcbjlrrrrrrrrrrrrrrrrrrrrrrrrrrrrrrrrrr",
"rrrrm#b#e#..d.fcflorrrrrrrrrrrrrrrrrrrrrrrrrrrrr",
"rrrrfdbdaf....bdbc.cadflnqorrrrrrrrrrrrrrrrrrrrr",
"rrrrifffbdb...f...#.dad#d.c#afflmoqrrrrrrrrrrrrr",
"rrrroqooljffdfbf#.e#adaebfbfdbdadffffffjnqorrrrr",
"rrrrfjhjljljfff#f#f#fb#f.c.#..#ca.d.cfcfff.jrrrr",
"rrrrmjmmlkljlffffffbfbdb#b#e#.....e..c...e#.rrrr",
"rrrrqonomomomlklkfjffffff.f#ebdbd.#.f.fcfcjjprrr",
"rrrrrrrrrrrqonomnoolkljfffbdbfffffdbcbd.b.#.jrrr",
"rrrrrrrrrrrrrrrrqnnjjjfjfffgffffffffffffffffjrrr",
"rrrrrrrrrrrrrrrrnljffjflgmlmmmmlgljfjfjfffcflrrr",
"rrrrrrrrrrrrrrrjfcbeffmjmlmolmmmlmlnjljjjljjqrrr",
"rrrrrrrrrrrrrrfe#cdfjjlnonooonooooooooolomlorrrr",
"rrrrrrrrrrrrrrdcfjjlomooqrrrrrrrrrqrpooonnoorrrr",
"rrrrrrrrrrrrrrjljlnrrrrrrrrrrrrrrrrrrrrrrorrrrrr",
"rrrrrrrrrrrrrrojorrrrrrrrrrrrrrrrrrrrrrrrrrrrrrr",
"rrrrrrrrrrrrrrrrrrrrrrrrrrrrrrrrrrrrrrrrrrrrrrrr",
"rrrrrrrrrrrrrrrrrrrrrrrrrrrrrrrrrrrrrrrrrrrrrrrr",
"rrrrrrrrrrrrrrrrrrrrrrrrrrrrrrrrrrrrrrrrrrrrrrrr",
"rrrrrrrrrrrrrrrrrrrrrrrrrrrrrrrrrrrrrrrrrrrrrrrr",
"rrrrrrrrrrrrrrrrrrrrrrrrrrrrrrrrrrrrrrrrrrrrrrrr",
"rrrrrrrrrrrrrrrrrrrrrrrrrrrrrrrrrrrrrrrrrrrrrrrr",
"rrrrrrrrrrrrrrrrrrrrrrrrrrrrrrrrrrrrrrrrrrrrrrrr",
"rrrrrrrrrrrrrrrrrrrrrrrrrrrrrrrrrrrrrrrrrrrrrrrr",
"rrrrrrrrrrrrrrrrrrrrrrrrrrrrrrrrrrrrrrrrrrrrrrrr",
"rrrrrrrrrrrrrrrrrrrrrrrrrrrrrrrrrrrrrrrrrrrrrrrr",
"rrrrrrrrrrrrrrrrrrrrrrrrrrrrrrrrrrrrrrrrrrrrrrrr",
"rrrrrrrrrrrrrrrrrrrrrrrrrrrrrrrrrrrrrrrrrrrrrrrr",
"rrrrrrrrrrrrrrrrrrrrrrrrrrrrrrrrrrrrrrrrrrrrrrrr",
"rrrrrrrrrrrrrrrrrrrrrrrrrrrrrrrrrrrrrrrrrrrrrrrr",
"rrrrrrrrrrrrrrrrrrrrrrrrrrrrrrrrrrrrrrrrrrrrrrrr"
};
