/* XPM */
static char *okxpm[] = {
/* width height num_colors chars_per_pixel */
"    13    9        4            1",
/* colors */
". c none",
"# c #a3a3a4",
"a c #525252",
"b c #070708",
/* pixels */
"..###...#...#",
".aaaa#.#b..aa",
"#a..#a##b..b.",
"b#...a##b.b..",
"b#...aa#baa..",
"b#...aa#bbb..",
"b#...aa#b.ba.",
"#b..#b.#b.#b#",
".#bbb#.#b..bb",
};
