/* XPM */
static char *removexpm[] = {
/* width height num_colors chars_per_pixel */
"    56     9        4            1",
/* colors */
". c #a39f6a",
"# c #010103",
"a c #5d595a",
"b c none",
/* pixels */
"....bbbbbbbbbbbbbbbbbbbbbbbbbbbbbbbbbbbbbbbbbbbbbbbbbbbb",
"#aa#abbbbbbbbbbbbbbbbbbbbbbbbbbbbbbbbbbbbbbbbbbbbbbbbaa.",
"#.b.#.bb...bb.b.b..bbb..bb..bbb.bbb...bbbbbbbbbbbbb.###.",
"#.b.#.ba#a#..#a#a#aba#aaab#abbb#b.aaaa.bbbbbbbbbb.a####.",
"#a.#aba#bb.#a#aa#a#.#.b.#..#bb.ab#abb.#bbbbbbbb.a######.",
"#a#abb######a#.aa.#a#bbbaa.#ab#..######bbbbbbbbbba#####.",
"#.b#.b#abbbb.#.aa.#a#bbbaabaabab.#.bbbbbbbbbbbbbbb..###.",
"#.baab.#.bb..#.aa.#b#ab.#.b.#a.bbaabbb.bbbbbbbbbbbbbbaa.",
"#.b.#.ba####a#.aa.#b.###.bbb##bbb.#####bbbbbbbbbbbbbbb.b"
};
