/* XPM */
static char *rightxpm[] = {
/* width height num_colors chars_per_pixel */
"    13    10        4            1",
/* colors */
". c #050507",
"# c #969694",
"a c #4c4c4a",
"b c none",
/* pixels */
"bbbbba.abbbbb",
"bbbbba.abbbbb",
"bbbbba.abbbbb",
"b####..a####b",
"b#.........#b",
"b#.........#b",
"bbbbba.abbbbb",
"bbbbba.abbbbb",
"bbbbba.abbbbb",
"bbbbbaa#bbbbb",
};
