/* XPM */
static char * addrtool_xpm[] = {
"24 24 81 1",
" 	c None",
".	c #545454",
"+	c #464646",
"@	c #838383",
"#	c #727272",
"$	c #7E7E7E",
"%	c #989898",
"&	c #9D9D9D",
"*	c #B1B1B1",
"=	c #707070",
"-	c #818181",
";	c #909090",
">	c #949494",
",	c #A9A9A9",
"'	c #ADADAD",
")	c #C3C3C3",
"!	c #878787",
"~	c #A1A1A1",
"{	c #B6B6B6",
"]	c #BABABA",
"^	c #D0D0D0",
"/	c #4B4B4B",
"(	c #6D6D6D",
"_	c #999999",
":	c #CBCBCB",
"<	c #E4E4E4",
"[	c #BEBEBE",
"}	c #575757",
"|	c #5D5D5D",
"1	c #696969",
"2	c #C7C7C7",
"3	c #DCDCDC",
"4	c #E0E0E0",
"5	c #F6F6F6",
"6	c #D4D4D4",
"7	c #A2A2A2",
"8	c #4C4C4C",
"9	c #656565",
"0	c #E9E9E9",
"a	c #ECECEC",
"b	c #FEFEFE",
"c	c #666666",
"d	c #616161",
"e	c #CCCCCC",
"f	c #717171",
"g	c #AAAAAA",
"h	c #A4A4A4",
"i	c #9A9A9A",
"j	c #767676",
"k	c #F7F7F7",
"l	c #5A5A5A",
"m	c #737373",
"n	c #B4B4B4",
"o	c #FCFCFC",
"p	c #F2F2F2",
"q	c #E9E9E6",
"r	c #BBBBAD",
"s	c #B3B39C",
"t	c #92927B",
"u	c #9B9B9B",
"v	c #6F6F6F",
"w	c #C8BFB5",
"x	c #B78344",
"y	c #AD9C3E",
"z	c #E6E6E6",
"A	c #646464",
"B	c #E5E4E2",
"C	c #A7A096",
"D	c #AAA396",
"E	c #AF9B7F",
"F	c #B96C0D",
"G	c #E1E1E1",
"H	c #8F8F8F",
"I	c #71470B",
"J	c #875A0C",
"K	c #99650D",
"L	c #736046",
"M	c #757575",
"N	c #3F3F3F",
"O	c #343434",
"P	c #FFFFFF",
"                        ",
"                        ",
"               @@#      ",
"            $$@%%&*     ",
"         .=-;;>,,')>    ",
"       @@@@!&&~{{]^>    ",
"     //(@__&**{::^<<[   ",
"    }|||1,,'))2334567   ",
"   8|99.|{{]^^600ab:>   ",
"   8|9c.dee^<<0bbbb:>   ",
"   8|fff:j]455kbb5:]>   ",
"   8lm:::8nabboppqrs    ",
"   //d:::/)bbbp**r      ",
"   /u{jj:/)5::wxy       ",
"   /)z11A/]BCDEF        ",
"   /)bbbG/HCIJKF        ",
"   /GbbbG/  IJKF        ",
"    /GbbG/  IJKF        ",
"    /ubbG/  IJKF        ",
"     /uGM/  IJKF        ",
"      NNO   IJKF        ",
"            IJKF        ",
"                        ",
"                        "};
