/* XPM */
static char * addr_xpm[] = {
"16 16 12 1",
" 	c None",
".	c #7F7F7F",
"+	c #999999",
"@	c #B2B2B2",
"#	c #CCCCCC",
"$	c #4C4C4C",
"%	c #E5E5E5",
"&	c #666666",
"*	c #FFFFFF",
"=	c #BA6D0E",
"-	c #72480C",
";	c #93640D",
"                ",
"          ..    ",
"        ..++@   ",
"      ..++@@#   ",
"   $$.++@@##%%  ",
"  $&&$@@##%%*@  ",
"  $&&$##%%***@  ",
"  $&##$%****@@  ",
"  $$##$***@@    ",
"  $*$$$*@@=     ",
"  $***$@-;=     ",
"   $**$ -;=     ",
"   $**$ -;=     ",
"    $$  -;=     ",
"        -;=     ",
"                "};
