/* XPM */
static char * cardfind_xpm[] = {
"24 24 40 1",
" 	c None",
".	c #000015",
"+	c #000001",
"@	c #000000",
"#	c #FFFFFF",
"$	c #F0EFEA",
"%	c #7B7B78",
"&	c #C7C7C3",
"*	c #F1F0EB",
"=	c #BFBFBC",
"-	c #F0EFEB",
";	c #585754",
">	c #EFEEE9",
",	c #A7A6A3",
"'	c #959490",
")	c #EBE9E3",
"!	c #AEADA8",
"~	c #BEBDB8",
"{	c #EAE8E1",
"]	c #E9E8E1",
"^	c #E8E7DF",
"/	c #B4B3AF",
"(	c #E6E4DC",
"_	c #E9E7E0",
":	c #191918",
"<	c #91908A",
"[	c #E4E2DA",
"}	c #CCCBC4",
"|	c #A3A29D",
"1	c #B6B5B2",
"2	c #EDECE6",
"3	c #EAE9E2",
"4	c #ECEBE5",
"5	c #E9E8E0",
"6	c #E8E6DF",
"7	c #CECDC7",
"8	c #959590",
"9	c #797875",
"0	c #CFCEC8",
"a	c #7B7A76",
"                        ",
"                        ",
"     .+@+@              ",
"   @@     @@            ",
"  @@  ##    @           ",
"  @ @#@@@@@@ @@@@@      ",
" @ @$$$$$$$$$@%&*=@     ",
" @ @$$$@@$$$$@@-$$@     ",
" @ @$$@;;;$;$@@>$$,@    ",
" @ @$$@''@$;;@@$$$)@    ",
" @  @$@!!@$;$@@';~{@    ",
"  @ @$@!~;$$@@'$$]^/@   ",
"  @@@$$$$$$@;@$$$$$(@   ",
"   @@$$$$$@!';@_';~$@   ",
"    @@@@@:@@!';@$$$$<@  ",
"     @@@@@';@!';@[}|@@  ",
"     @12$$3]$@!';@@@    ",
"      @4$$5678@!';@     ",
"      @9$0!@@@ @!';@    ",
"      @;a@@     @!';@   ",
"       @@        @;!!@  ",
"                  @!!@  ",
"                   @@   ",
"                        "};
