/* XPM */
static char * cardnew_xpm[] = {
"24 24 65 1",
" 	c none",
".	c #000000000000",
"X	c #7B7B7B7B7878",
"o	c #C7C7C7C7C3C3",
"O	c #F1F1F0F0EBEB",
"+	c #BFBFBFBFBCBC",
"@	c #5F5F5E5E5E5E",
"#	c #E3E3E3E3DFDF",
"$	c #F3F3F3F3EFEF",
"%	c #F2F2F2F2EEEE",
"&	c #F1F1F1F1ECEC",
"*	c #F0F0EFEFEBEB",
"=	c #F0F0EFEFEAEA",
"-	c #616160606060",
";	c #B5B5B5B5B4B4",
":	c #F8F8F8F8F6F6",
">	c #F7F7F7F7F5F5",
",	c #F6F6F6F6F3F3",
"<	c #F5F5F5F5F2F2",
"1	c #F4F4F4F4F0F0",
"2	c #F2F2F1F1EDED",
"3	c #F1F1F0F0ECEC",
"4	c #EFEFEEEEE9E9",
"5	c #A7A7A6A6A3A3",
"6	c #C6C6C6C6C4C4",
"7	c #BEBEBDBDB8B8",
"8	c #585857575454",
"9	c #EBEBE9E9E3E3",
"0	c #838383838181",
"q	c #959594949090",
"w	c #EAEAE8E8E1E1",
"e	c #F6F6F5F5F2F2",
"r	c #F5F5F4F4F1F1",
"t	c #E9E9E8E8E1E1",
"y	c #E8E8E7E7DFDF",
"u	c #B4B4B3B3AFAF",
"i	c #D0D0D0D0CDCD",
"p	c #E6E6E4E4DCDC",
"a	c #A9A9A9A9A6A6",
"s	c #ECECEBEBE4E4",
"d	c #EBEBEAEAE3E3",
"f	c #E9E9E7E7E0E0",
"g	c #ECECEAEAE4E4",
"h	c #919190908A8A",
"j	c #EFEFEEEEE8E8",
"k	c #EEEEECECE7E7",
"l	c #E7E7E6E6DEDE",
"z	c #E6E6E5E5DCDC",
"x	c #E5E5E4E4DBDB",
"c	c #E4E4E2E2DADA",
"v	c #CCCCCBCBC4C4",
"b	c #A3A3A2A29D9D",
"n	c #B6B6B5B5B2B2",
"m	c #EDEDECECE6E6",
"M	c #EAEAE9E9E2E2",
"N	c #CDCDCCCCC6C6",
"B	c #ECECEBEBE5E5",
"V	c #E9E9E8E8E0E0",
"C	c #E8E8E6E6DFDF",
"Z	c #CECECDCDC7C7",
"A	c #959595959090",
"S	c #797978787575",
"D	c #CFCFCECEC8C8",
"F	c #AEAEADADA8A8",
"G	c #7B7B7A7A7676",
"                        ",
"                        ",
"                        ",
"                        ",
"                        ",
"              ....      ",
"         .....XoO+.     ",
"    .....@+#$%&*==.     ",
"   .-;:>,<1$23=4==5.    ",
"   .6==7887=======9.    ",
"   .0==8888O===q87w.    ",
"    .er8888=78q==tyu.   ",
"    .i$7887========p.   ",
"    .a23====sd=fq87=.   ",
"     .O====g9q8q====h.  ",
"     .*jk=78q=lzxcvb..  ",
"     .nm==Mt=lpNq...    ",
"      .B==VCZA...       ",
"      .S=DF...          ",
"      .8G..             ",
"       ..               ",
"                        ",
"                        ",
"                        "};
