/* XPM */
static char * email_xpm[] = {
"16 16 9 1",
" 	c None",
".	c #494A00",
"+	c #A3A400",
"@	c #FFFFFF",
"#	c #C4C50C",
"$	c #000000",
"%	c #7D7E00",
"&	c #EAEB97",
"*	c #FAFBBF",
"                ",
"                ",
"                ",
" .............. ",
" .+@@@@@@@@@@#$ ",
" .@%&&&&&&&&%+$ ",
" .@&%&&&&&&%&+$ ",
" .@&&%&&&&%&&+$ ",
" .@&&+%&&%+&&+$ ",
" .@&+&&%%&&+&+$ ",
" .*+&&&&&&&&++$ ",
" .#+++++++++++$ ",
" .$$$$$$$$$$$$$ ",
"                ",
"                ",
"                "};
