/* XPM */
static char * expl_xpm[] = {
"16 16 6 1",
" 	c None",
".	c #FFFF00",
"+	c #827F00",
"@	c #B2B2B2",
"#	c #666666",
"$	c #000000",
"                ",
" .    ++++    . ",
"  +  +....+  +  ",
"    +......+    ",
"    +......+    ",
"    +.@..@.+    ",
" .+ +.@..@.+ +. ",
"    +..@@..+    ",
"     +.@@.+     ",
"      +@@+      ",
"   +  ####  +   ",
"  .   ####   .  ",
"      ####      ",
"      ####      ",
"       $$       ",
"                "};
