/* XPM */
static char * geo_xpm[] = {
"16 16 25 1",
" 	c None",
".	c #00007F",
"+	c #000084",
"@	c #00008B",
"#	c #00008F",
"$	c #000091",
"%	c #00FF00",
"&	c #000089",
"*	c #000094",
"=	c #00009C",
"-	c #0000A3",
";	c #0000B3",
">	c #0000B5",
",	c #0000AD",
"'	c #000097",
")	c #0000BD",
"!	c #0000B1",
"~	c #007F00",
"{	c #0000A1",
"]	c #0000C5",
"^	c #0000E5",
"/	c #0000D6",
"(	c #0000C8",
"_	c #0000DA",
":	c #0000CB",
"                ",
"     ......     ",
"   ..+@#$#@+.   ",
"  .%&*=%-%%*&.  ",
"  %&%-%;>;,-'&  ",
" .+*-%%%%%)!-%+ ",
" .@=,~%%%~~),%@ ",
" .#{;]~%~^/];{% ",
" .$->(_~%%_(>-$ ",
" .#{;]/^%^/];{# ",
" .@=,):%%~~),=@ ",
"  +*-!)~%%~!-*  ",
"  .&'-,;%~,-'&  ",
"   .&*={%{=*&   ",
"     +@#$#@     ",
"                "};
