/* XPM */
static char * ident_xpm[] = {
"16 16 4 1",
" 	c None",
".	c #666666",
"+	c #000000",
"@	c #7F7F7F",
"                ",
"      .++.      ",
"     .++++.     ",
"     ++++++     ",
"     ++++++     ",
"     .++++.     ",
"      .++.      ",
"                ",
"    ++++++++    ",
"   ++++++++++   ",
"  ++++++++++++  ",
"  ++@++++++@++  ",
"  ++@++++++@++  ",
"  ++@++++++@++  ",
"  ++@++++++@++  ",
"                "};
