/* XPM */
static char * sec_xpm[] = {
"16 16 3 1",
" 	c None",
".	c #827F00",
"+	c #FFFF00",
"                ",
"                ",
"          ...   ",
"         .....  ",
"        +.++..  ",
"       .+..+..  ",
"       .+.....  ",
"       ..+...+  ",
"      ...+..+   ",
"     ...+ ..    ",
"    ...+  ..    ",
"   ...+   ..    ",
"    +     ..    ",
"          .     ",
"                ",
"                "};
