/* XPM */
static char * tel_xpm[] = {
"16 16 6 1",
" 	c None",
".	c #7F0000",
"+	c #FF0000",
"@	c #AF3D3D",
"#	c #930B0B",
"$	c #FFFFFF",
"                ",
"     ...        ",
"    .+++..      ",
"    .+..++..    ",
"     .++..++..  ",
"    .+@@++..++. ",
"   .@####@+.++. ",
"  .+##$$##+.++. ",
" ..+@####@.+..  ",
" .+..+@@+.+++.  ",
" .+++..+.++++.  ",
" ..++++.+++++.  ",
"   ..++.+++..   ",
"     ...+..     ",
"       ..       ",
"                "};
