/* XPM */
static char * top_xpm[] = {
"20 20 306 2",
"  	c None",
". 	c #C0CDC2",
"+ 	c #B7C6B9",
"@ 	c #B2C2B4",
"# 	c #B0C0B3",
"$ 	c #B1C1B3",
"% 	c #B3C3B5",
"& 	c #B5C4B7",
"* 	c #B5C5B7",
"= 	c #B6C5B8",
"- 	c #B5C5B8",
"; 	c #B7C6BB",
"> 	c #B5C5B9",
", 	c #AFC0B1",
"' 	c #ABBEAC",
") 	c #ADBFAE",
"! 	c #B4C3B8",
"~ 	c #B9C7BC",
"{ 	c #B8C6B9",
"] 	c #ABBDAE",
"^ 	c #778C79",
"/ 	c #B4C4B5",
"( 	c #8AA38C",
"_ 	c #87A089",
": 	c #849E86",
"< 	c #829C83",
"[ 	c #89A18B",
"} 	c #89A28C",
"| 	c #8CA48E",
"1 	c #A4B4A5",
"2 	c #83927F",
"3 	c #7C987D",
"4 	c #739175",
"5 	c #769377",
"6 	c #809A81",
"7 	c #8AA38D",
"8 	c #849E85",
"9 	c #7A967B",
"0 	c #819C83",
"a 	c #455748",
"b 	c #B2C3B3",
"c 	c #87A088",
"d 	c #839C85",
"e 	c #869F88",
"f 	c #829C84",
"g 	c #95A694",
"h 	c #809680",
"i 	c #94A794",
"j 	c #E3E2E0",
"k 	c #6D665E",
"l 	c #5D705C",
"m 	c #769376",
"n 	c #7E997F",
"o 	c #87A08A",
"p 	c #89A28B",
"q 	c #789579",
"r 	c #849D86",
"s 	c #415343",
"t 	c #B1C2B2",
"u 	c #8DA48F",
"v 	c #7F9A81",
"w 	c #859E87",
"x 	c #829B84",
"y 	c #98A898",
"z 	c #CDC7C1",
"A 	c #656255",
"B 	c #98A194",
"C 	c #C2BBB4",
"D 	c #5F564E",
"E 	c #293229",
"F 	c #799579",
"G 	c #7D997E",
"H 	c #7E9980",
"I 	c #425344",
"J 	c #B1C2B1",
"K 	c #8BA38D",
"L 	c #849E87",
"M 	c #889684",
"N 	c #887D74",
"O 	c #27231F",
"P 	c #55584F",
"Q 	c #70655B",
"R 	c #2F2A25",
"S 	c #1B221B",
"T 	c #759175",
"U 	c #8EA690",
"V 	c #8FA691",
"W 	c #8DA58F",
"X 	c #3E4F40",
"Y 	c #B2C3B2",
"Z 	c #B7C2B7",
"` 	c #7A8776",
" .	c #3F463C",
"..	c #151915",
"+.	c #617363",
"@.	c #525B4E",
"#.	c #222620",
"$.	c #475847",
"%.	c #8FA791",
"&.	c #809B81",
"*.	c #91A893",
"=.	c #7C967E",
"-.	c #3C4B3D",
";.	c #88A08A",
">.	c #799479",
",.	c #B1B0A8",
"'.	c #48443D",
").	c #6F8271",
"!.	c #7B917D",
"~.	c #A6B4A6",
"{.	c #C4CAC2",
"].	c #B4B5AC",
"^.	c #8A897A",
"/.	c #7F8E7C",
"(.	c #7F9A80",
"_.	c #90A792",
":.	c #88A18A",
"<.	c #759176",
"[.	c #3B4C3C",
"}.	c #789478",
"|.	c #6E7264",
"1.	c #11110F",
"2.	c #586759",
"3.	c #BCC4BA",
"4.	c #DBD7D3",
"5.	c #BAB1AA",
"6.	c #A49A93",
"7.	c #81766C",
"8.	c #292A24",
"9.	c #748F75",
"0.	c #8BA48D",
"a.	c #87A189",
"b.	c #7B977D",
"c.	c #779477",
"d.	c #779479",
"e.	c #425444",
"f.	c #ACBEAD",
"g.	c #86A088",
"h.	c #9BAD9B",
"i.	c #A3A69B",
"j.	c #616F60",
"k.	c #A1ADA1",
"l.	c #E4E2DF",
"m.	c #AB9F95",
"n.	c #9A8C81",
"o.	c #998B80",
"p.	c #4F4740",
"q.	c #0E110E",
"r.	c #738D73",
"s.	c #749276",
"t.	c #7E9A7F",
"u.	c #7E9981",
"v.	c #405141",
"w.	c #7B967D",
"x.	c #808678",
"y.	c #686059",
"z.	c #3D4139",
"A.	c #BEC1BA",
"B.	c #C2BBB5",
"C.	c #978A7F",
"D.	c #6C6258",
"E.	c #161311",
"F.	c #2C362C",
"G.	c #7F9980",
"H.	c #819B84",
"I.	c #7D9780",
"J.	c #3E4E40",
"K.	c #748C76",
"L.	c #3A443B",
"M.	c #3B443B",
"N.	c #BBBAB3",
"O.	c #B5ACA3",
"P.	c #90847A",
"Q.	c #453D37",
"R.	c #0A0B09",
"S.	c #293029",
"T.	c #6D856D",
"U.	c #8EA48F",
"V.	c #859D85",
"W.	c #7C977E",
"X.	c #839D86",
"Y.	c #839D85",
"Z.	c #7E9880",
"`.	c #B7C6B7",
" +	c #829C85",
".+	c #869F89",
"++	c #869D88",
"@+	c #ACACA2",
"#+	c #B8AEA5",
"$+	c #84776C",
"%+	c #13110F",
"&+	c #576658",
"*+	c #7A947B",
"=+	c #ACB8A9",
"-+	c #D1D2CC",
";+	c #BBB7AF",
">+	c #686C5E",
",+	c #7D957F",
"'+	c #7E9881",
")+	c #3F4F40",
"!+	c #B6C5B7",
"~+	c #989C90",
"{+	c #B5ABA2",
"]+	c #7C6F65",
"^+	c #161513",
"/+	c #7A947A",
"(+	c #99968B",
"_+	c #B3A9A0",
":+	c #978A80",
"<+	c #221F1B",
"[+	c #627664",
"}+	c #7F9981",
"|+	c #3F5040",
"1+	c #B7C5B7",
"2+	c #819A83",
"3+	c #819B83",
"4+	c #7E8C79",
"5+	c #A59990",
"6+	c #8E8075",
"7+	c #514840",
"8+	c #74826E",
"9+	c #839983",
"0+	c #889787",
"a+	c #BCB5AE",
"b+	c #7D7066",
"c+	c #0B0C0A",
"d+	c #697E6B",
"e+	c #8AA28C",
"f+	c #425445",
"g+	c #B9C7BA",
"h+	c #8CA48F",
"i+	c #748D74",
"j+	c #7C7368",
"k+	c #9A8D81",
"l+	c #918276",
"m+	c #A1968B",
"n+	c #BCB7AF",
"o+	c #DDDBD8",
"p+	c #C1B9B2",
"q+	c #4B433D",
"r+	c #191E19",
"s+	c #7A937D",
"t+	c #809B82",
"u+	c #749075",
"v+	c #3A4A3C",
"w+	c #B8C6B8",
"x+	c #88A18B",
"y+	c #7B977C",
"z+	c #636D5B",
"A+	c #73665D",
"B+	c #918377",
"C+	c #A09388",
"D+	c #9E9085",
"E+	c #A5988E",
"F+	c #7C7066",
"G+	c #0F0D0C",
"H+	c #4E5E4F",
"I+	c #769277",
"J+	c #3E4E3F",
"K+	c #7B977B",
"L+	c #789178",
"M+	c #52574B",
"N+	c #4E453E",
"O+	c #71665C",
"P+	c #7C7065",
"Q+	c #72665D",
"R+	c #221E1B",
"S+	c #1E231E",
"T+	c #7C947E",
"U+	c #7C977F",
"V+	c #405041",
"W+	c #B6C5B6",
"X+	c #7C997C",
"Y+	c #809882",
"Z+	c #566556",
"`+	c #1F231E",
" @	c #11110E",
".@	c #1C221D",
"+@	c #687D6A",
"@@	c #7F9A82",
"#@	c #92A994",
"$@	c #7A977A",
"%@	c #879F89",
"&@	c #789279",
"*@	c #6A806B",
"=@	c #647A66",
"-@	c #738D76",
";@	c #7B967E",
">@	c #405142",
",@	c #7D9280",
"'@	c #425343",
")@	c #445444",
"!@	c #475848",
"~@	c #405042",
"{@	c #3C4C3D",
"]@	c #3C4D3D",
"^@	c #435444",
"/@	c #425342",
"(@	c #445745",
"_@	c #435544",
":@	c #425443",
"<@	c #425543",
"[@	c #445645",
"}@	c #435644",
"|@	c #415242",
"1@	c #39483B",
". + @ # $ % & * = - ; > , ' ) ! ~ { ] ^ ",
"/ ( _ : < _ [ } | 1 2 3 4 5 6 7 8 9 0 a ",
"b c d e f e g h i j k l m n o p q r 0 s ",
"t u v w x y z A B C D E F x u G H r _ I ",
"J K n e L M N O P Q R S T : U q f V W X ",
"Y _ w d Z `  ...+.@.#.$.f %.&.3 _ *.=.-.",
"@ ;.p >.,.'.).!.~.{.].^./.8 (.| _.:.<.[.",
"t W | }.|.1.2.3.4.5.6.7.8.9.0.a.b.c.d.e.",
"f.*.g.h.i.j.k.l.m.n.o.p.q.r.K s.5 t.u.v.",
", %.w.x.y.z.A.B.C.o.D.E.F.G.K 5 H.f I.J.",
"= _ v K.L.M.N.O.P.Q.R.S.T.U.V.W.X.Y.Z.J.",
"`.Y. +d .+++@+#+$+%+&+*+=+-+;+>+,+Y.'+)+",
"!+x _ : e 7 ~+{+]+^+,+/+(+_+:+<+[+X.}+|+",
"1+2+e 3+w V 4+5+6+7+8+9+0+a+b+c+d+e+L f+",
"g+f w 3+w h+i+j+k+l+m+n+o+p+q+r+s+t+u+v+",
"w+r Y.e x+:.y+z+A+B+C+D+E+F+G+H+H.n I+J+",
"!+x 2+g.e+Y.K+L+M+N+O+P+Q+R+S+T+Y.2+U+V+",
"W+Y.t+[ V Y.X+t+Y+Z+`+ @c+.@+@2+ +x @@v.",
"1+3+f #@K $@m (.%@e+&@*@=@-@U+U+}+ +;@>@",
",@'@)@!@~@{@]@v.^@^@)+/@(@_@:@<@[@}@|@1@"};
