/* XPM */
static char * unknown_xpm[] = {
"20 20 10 1",
" 	c None",
".	c #AAAAAA",
"+	c #393939",
"@	c #000000",
"#	c #C7C7C7",
"$	c #8E8E8E",
"%	c #E3E3E3",
"&	c #727272",
"*	c #555555",
"=	c #1D1D1D",
"                    ",
"                    ",
"                    ",
"                    ",
"       .+@@+#       ",
"      .@+ $@@%      ",
"      &@#  *@.      ",
"           +@.      ",
"          #@=       ",
"         .==%       ",
"       %+@&%        ",
"       .=           ",
"       $*           ",
"       #            ",
"      .@=           ",
"      *@=           ",
"      %.%           ",
"                    ",
"                    ",
"                    "};
