/* XPM */
static char * cdrom_xpm[] = {
"48 48 239 2",
"  	c None",
". 	c #AA8FA8",
"+ 	c #897C83",
"@ 	c #836883",
"# 	c #977C97",
"$ 	c #C4B7B5",
"% 	c #BBA8B3",
"& 	c #A883A3",
"* 	c #976189",
"= 	c #666868",
"- 	c #797C7C",
"; 	c #AA9E9E",
"> 	c #CEB7C3",
", 	c #8F7389",
"' 	c #998391",
") 	c #CEBDB9",
"! 	c #C6AFB3",
"~ 	c #B383B3",
"{ 	c #AF7C89",
"] 	c #C4A8B7",
"^ 	c #555759",
"/ 	c #576166",
"( 	c #737376",
"_ 	c #9C9799",
": 	c #B99EB5",
"< 	c #9E83AC",
"[ 	c #837C9C",
"} 	c #D3CAB3",
"| 	c #C3979C",
"1 	c #CABD9C",
"2 	c #DACECB",
"3 	c #DBD9DA",
"4 	c #D2CED2",
"5 	c #73686E",
"6 	c #998F94",
"7 	c #C4A8C6",
"8 	c #B37CB3",
"9 	c #D2AFBB",
"0 	c #DDD3C3",
"a 	c #E1DDCD",
"b 	c #E3D9CD",
"c 	c #E4D9DB",
"d 	c #DBCEDB",
"e 	c #C39EAC",
"f 	c #B7979C",
"g 	c #7F7373",
"h 	c #687376",
"i 	c #898389",
"j 	c #9E9E9E",
"k 	c #DBC3C6",
"l 	c #AC97A1",
"m 	c #E1D3D2",
"n 	c #CEA8B9",
"o 	c #C38FB9",
"p 	c #E1D3C1",
"q 	c #E1DDDB",
"r 	c #E5D9E5",
"s 	c #E1CED2",
"t 	c #E1CAD5",
"u 	c #DAB7BF",
"v 	c #AF8FB9",
"w 	c #C8AFC6",
"x 	c #CA9EC6",
"y 	c #EBE1E3",
"z 	c #E1CEDB",
"A 	c #E4D3DD",
"B 	c #E0BDC6",
"C 	c #8C8F8C",
"D 	c #AF97B9",
"E 	c #C397C1",
"F 	c #D9CAC3",
"G 	c #E3E1E0",
"H 	c #E9D9E4",
"I 	c #EAD9DB",
"J 	c #EADDE3",
"K 	c #E3DDE3",
"L 	c #E1C3C6",
"M 	c #8F979C",
"N 	c #C8BDB9",
"O 	c #CAB7C8",
"P 	c #DBCAD6",
"Q 	c #E8D3DD",
"R 	c #CACABF",
"S 	c #DADDE6",
"T 	c #DDE1DF",
"U 	c #E4E5E0",
"V 	c #ACA8AA",
"W 	c #DAC3D6",
"X 	c #EAE1D7",
"Y 	c #EEE5DF",
"Z 	c #EBE5E3",
"` 	c #EBE5EB",
" .	c #EAE5D6",
"..	c #D3D9E1",
"+.	c #DBDDDB",
"@.	c #E7E8E6",
"#.	c #EADDD7",
"$.	c #D3C3C4",
"%.	c #D3AFD6",
"&.	c #EBE8EA",
"*.	c #EFE5EC",
"=.	c #BDCAD2",
"-.	c #CED3EA",
";.	c #DBE1EA",
">.	c #ECEBE6",
",.	c #E8CEDB",
"'.	c #8F6876",
").	c #2F3139",
"!.	c #4A4A4C",
"~.	c #6E6168",
"{.	c #BDAFC1",
"].	c #F2EBEF",
"^.	c #EDE8DE",
"/.	c #C6CEE3",
"(.	c #D3D9EA",
"_.	c #E1E5ED",
":.	c #BBBDB9",
"<.	c #3C3C39",
"[.	c #7C8389",
"}.	c #DAD3D2",
"|.	c #F2EBE8",
"1.	c #F0E8E0",
"2.	c #B7B7BB",
"3.	c #D3D3E1",
"4.	c #D0CEE0",
"5.	c #949EBF",
"6.	c #D2D3D2",
"7.	c #CACED2",
"8.	c #504A55",
"9.	c #9EA8BF",
"0.	c #ACAFB5",
"a.	c #EEEEEF",
"b.	c #D2CAC6",
"c.	c #D9B7DB",
"d.	c #D9AFDB",
"e.	c #976876",
"f.	c #C8C3C6",
"g.	c #C4BDC6",
"h.	c #C6C3D2",
"i.	c #292829",
"j.	c #F2F0F1",
"k.	c #3E4246",
"l.	c #F0EEEF",
"m.	c #E0BDDB",
"n.	c #E1C3DB",
"o.	c #D3C3D7",
"p.	c #D9D3DB",
"q.	c #F4F3F4",
"r.	c #F1E8EA",
"s.	c #EEE1E5",
"t.	c #EEDDE3",
"u.	c #DBD9E3",
"v.	c #E1E1EA",
"w.	c #E6E8EF",
"x.	c #4A4246",
"y.	c #F8F7F4",
"z.	c #AFB7C1",
"A.	c #837389",
"B.	c #F5EBEF",
"C.	c #F2EEE7",
"D.	c #E6EBF4",
"E.	c #F3E5EF",
"F.	c #BBC3CD",
"G.	c #C8C3B5",
"H.	c #D3BDDB",
"I.	c #F2E8F2",
"J.	c #EDE8F3",
"K.	c #EBEBF4",
"L.	c #EBE1EA",
"M.	c #CEB7D2",
"N.	c #F0E1EF",
"O.	c #D2CAD3",
"P.	c #E8CAD2",
"Q.	c #BD9EC6",
"R.	c #A89EB9",
"S.	c #E8D3EA",
"T.	c #868FAC",
"U.	c #D3BDCB",
"V.	c #BBA8C6",
"W.	c #4A3C46",
"X.	c #0F0D10",
"Y.	c #040305",
"Z.	c #000000",
"`.	c #83000B",
" +	c #83010B",
".+	c #86010E",
"++	c #7C0315",
"@+	c #831125",
"#+	c #686889",
"$+	c #201F20",
"%+	c #C35089",
"&+	c #7C0005",
"*+	c #7C0006",
"=+	c #9C142F",
"-+	c #C6CAD6",
";+	c #A81A39",
">+	c #D37C9C",
",+	c #910519",
"'+	c #CA689C",
")+	c #A83155",
"!+	c #681425",
"~+	c #685766",
"{+	c #8F0415",
"]+	c #ACAFC6",
"^+	c #C36176",
"/+	c #CE9EAC",
"(+	c #971A39",
"_+	c #683C46",
":+	c #7C0515",
"<+	c #975789",
"[+	c #830210",
"}+	c #616166",
"|+	c #4A5055",
"1+	c #050505",
"2+	c #141110",
"3+	c #9E97AC",
"4+	c #7C0715",
"5+	c #7C0009",
"6+	c #7C0008",
"7+	c #A84255",
"8+	c #505055",
"9+	c #080708",
"0+	c #0A0908",
"a+	c #AFA8B9",
"b+	c #80142F",
"c+	c #8F97B3",
"d+	c #BDAFA6",
"e+	c #C183A3",
"f+	c #9C7380",
"g+	c #80616E",
"h+	c #685066",
"i+	c #C38F9C",
"j+	c #140F15",
"k+	c #8C839E",
"l+	c #0D0F0D",
"m+	c #4A3139",
"n+	c #0D0A0D",
"o+	c #403739",
"p+	c #110D10",
"                                                                                                ",
"                                                                                                ",
"                                                                                                ",
"                                                                                                ",
"                                                                                                ",
"                                                                                                ",
"                                                                                                ",
"                                      . + @ @ # . $ % & *                                       ",
"                                = - ; > & , @ ' . ) ! ~ { ] $ $                                 ",
"                            ^ / ( + _ $ : < [ ' : } ! ~ | 1 } 2 3 4                             ",
"                        + 5 / ^ = + 6 % ) . # . % 2 7 8 9 2 0 a b c d )                         ",
"                      e f & g = / h i j k : & l ] m n o k p a q r m s t k                       ",
"                    k u 9 e . i 5 = - _ 1 > v l w m x 9 0 b y q r z z z A m                     ",
"                  3 p s B u n f 6 h ( C ; s : D ! d E F b y G H s b z I c J K                   ",
"                a G a a p s L 9 ] 6 ( - M N ! D O P E p G J c Q z I c J y y y q                 ",
"              R S T U U G a b s u 9 l - i V P D ) W L X Y y H I J y Z ` Z `  .X 4               ",
"              ......+.T U @. .X #.s u : - M $.: ) %.b &.J Q H y ` *.&.Z  .X X X a               ",
"            =.-.-...-.....S ;.U >. .X ,.'.).!.~._ {.N $ J *.&.].>.^.^.Y X  .X #.#.F             ",
"            /.-.-...(...(.S S S ;._.:.<.' V [._ V :.+.].2 }.|.1.Y Y X X #.I I Q ,.t             ",
"          2.3.4.4.-.4.-.-.-...(...5.).6.7.8.^ 9.0._ ( 4 a.b.] A s t L B c.u d.%.%.d.e.          ",
"          2.R f.f.f.f.g.N g.g.h.f.i.V j.- k.V 4 4 b.j C l.}.# W m.m.m.n.n.W m.m.m.n.7           ",
"          f.o.b.$.b.$.b.4 4 3.p.p.i.+.q._ = R U U T :.V j.&.; r.^.r.*.s.t.t.t.J H H z           ",
"          6.3 u.u.+.v.S v.v._.w.w.x.+.y.q M z.G @.+.2.q j.&.A.z m r y *.r.|.B.C.r.r.Y           ",
"          v.v._._.w._.D.&.*.` *.E.w + j.y.>.}.F.G.4 ..a.q.{.# H.P P d m c c J s.r.r.|.          ",
"          w.w.D.w.I.*.J.J.*.E.I.].B.$.6 3 q.q.K.j.l.Z 4 V $.c P H.o.P P d p.m A r J c           ",
"          L.J.I.I.I.I.I.I.I.B.r.B.C.C.|.> l z.R 7.R l = 2.b.L.J d o.M.H.W W P P d d o.          ",
"          4.*.L.*.N.N.N.E.*.r.1.^.^.Y s.L.v.O.3.v.^.P.% C j 2.2 P w Q.D v v R.: % {.A.          ",
"          @ z S.A H H #.I #.#.a #.J H S.r -.O /.;.@.A ! C T.j {.b.#.P U.w w Q.V.7 7 W.          ",
"          X.H H J t.J s.X X  . .#.t.H r S 4 h./.;.^.J U.: [.M ; {.b.A m H.M.7 V.Q.: Y.          ",
"          Z.O J H J #.X X G #.I J S.S.P 8 $ g./.p.`. +.+++@+#+C _ ; $ 2 s U.w ] Q.~.Z.          ",
"            $+Q b b b b b p b m m z %+&+*+=+h.-+O.;+;+>+,+*+*+h C j V 2.F b P O w X.            ",
"            Z._ 3 b b b b I A S.z '+&+)+:.2.F./...;+`.P.9 l &+!+h [.C ; V N F } ~+Z.            ",
"              Z.$ R } } b.O.$.U.M.{+.+2.l R.]+z.h.| *+^+/+(+&+_+^ ~.( + ' _ % ; Z.              ",
"              Z.X.G.$.$.U.U.M.c.g.:+`.9.6 _ <+[+F.4 [+*+[+&+@+}+!.|+^ = = A.g 1+Z.              ",
"                Z.2+] > 9 ] 7 7 {.3+&+`.4+[+5+* z.F.=+6+.+7+, ~.8+k.!.^ / ~.9+Z.                ",
"                  Z.0+' ] ] Q.V.a+9.[ :+++b+T.c+V :.G.d+% e+f+g+8+!.k.8+x.Y.Z.                  ",
"                    Z.Z.h+] V.V.]+9.C - [.T.5.9.0.:.G.$ ] i+{ '.~+8+<.$+Z.Z.                    ",
"                      Z.Z.j+g ]+R._ k+A.k+T.5.9.0.:.R 1 ! i+{ e.g+).9+Z.Z.                      ",
"                          Z.Z.l+!.k+A.A.[ k+c+5.9.z.G.N d+f { m+9+Z.Z.Z.                        ",
"                            Z.Z.Z.Z.n+i.!.h T.5.9.V j 5 o+p+Z.Z.Z.Z.                            ",
"                                  Z.Z.Z.Z.Z.Z.Z.Z.Z.Z.Z.Z.Z.Z.Z.                                ",
"                                        Z.Z.Z.Z.Z.Z.Z.Z.                                        ",
"                                                                                                ",
"                                                                                                ",
"                                                                                                ",
"                                                                                                ",
"                                                                                                ",
"                                                                                                "};
