/* XPM */
static char *eject_m_xpm[] = {
/* columns rows colors chars-per-pixel */
"15 16 5 1",
"  c Gray0",
". c #8e8e8e",
"X c #949594",
"o c Gray100",
"O c None",
/* pixels */
"OOOOOOOXOOOOOOO",
"OOOOOOX oOOOOOO",
"OOOOOX   oOOOOO",
"OOOOX     oOOOO",
"OOOX       oOOO",
"OOX         oOO",
"OX           oO",
"X ............o",
"Xoooooooooooooo",
"OOOOOOOOOOOOOOO",
"XXXXXXXXXXXXXXX",
"X            .o",
"X            .o",
"X            .o",
"X ............o",
"Xoooooooooooooo"
};
