/* XPM */
static char * goto_xpm[] = {
"15 9 5 1",
" 	c None",
".	c #949594",
"+	c #FFFFFF",
"@	c #000000",
"#	c #8E8E8E",
"...............",
"+@@@@@@@@@@@@@.",
" +#@@@@@@@@@@. ",
"  +#@@@@@@@@.  ",
"   +#@@@@@@.   ",
"    +#@@@@.    ",
"     +#@@.     ",
"      +#.      ",
"       +       "};
