/* XPM */
static char * close_xpm[] = {
"24 24 124 2",
"  	c None",
". 	c #EFEFDFDFDEDE",
"X 	c #D6D6B6B6A5A5",
"o 	c #BDBD96968484",
"O 	c #949465654A4A",
"+ 	c #CECEBEBEBDBD",
"@ 	c #DEDEBEBEADAD",
"# 	c #DEDEB6B6A5A5",
"$ 	c #CECE9E9E8C8C",
"% 	c #CECEAAAA9C9C",
"& 	c #84844D4D3131",
"* 	c #949459593939",
"= 	c #949461614242",
"- 	c #C6C6AEAEA5A5",
"; 	c #BDBD8A8A7373",
": 	c #A5A565654A4A",
"> 	c #C6C682826363",
", 	c #A5A56D6D5252",
"< 	c #C6C69E9E8C8C",
"1 	c #A5A55D5D3939",
"2 	c #9C9C61614242",
"3 	c #848455554242",
"4 	c #C6C6AAAAA5A5",
"5 	c #BDBD86866B6B",
"6 	c #C6C679795A5A",
"7 	c #D6D68E8E6B6B",
"8 	c #A5A571715A5A",
"9 	c #000000000000",
"0 	c #8C8C51513131",
"q 	c #ADAD65654242",
"w 	c #9C9C5D5D3939",
"e 	c #A5A565654242",
"r 	c #848459594242",
"t 	c #BDBDA2A29494",
"y 	c #BDBD82826363",
"u 	c #D6D68A8A6363",
"i 	c #D6D696967B7B",
"p 	c #73734D4D3939",
"a 	c #B5B575755252",
"s 	c #B5B56D6D4A4A",
"d 	c #A5A569694A4A",
"f 	c #C6C679795252",
"g 	c #84845D5D4A4A",
"h 	c #000004040000",
"j 	c #8C8C59593939",
"k 	c #B5B579795A5A",
"l 	c #B5B569694242",
"z 	c #ADAD69694A4A",
"x 	c #8C8C5D5D4242",
"c 	c #B5B57D7D6363",
"v 	c #D6D69A9A7B7B",
"b 	c #BDBD7D7D5A5A",
"n 	c #BDBD79795252",
"m 	c #BDBD71714A4A",
"M 	c #ADAD69694242",
"N 	c #ADAD71715252",
"B 	c #8C8C61614A4A",
"V 	c #BDBDA6A69C9C",
"C 	c #C6C67D7D5A5A",
"Z 	c #949459594242",
"A 	c #BDBD79795A5A",
"S 	c #BDBD75755252",
"D 	c #949469695252",
"F 	c #BDBD9A9A8C8C",
"G 	c #BDBD82826B6B",
"H 	c #94945D5D4242",
"J 	c #C6C686866363",
"K 	c #C6C682825A5A",
"L 	c #B5B571714A4A",
"P 	c #CECE8A8A6363",
"I 	c #CECE82825A5A",
"U 	c #CECE7D7D5A5A",
"Y 	c #D6D696967373",
"T 	c #ADAD86867373",
"R 	c #8C8C5D5D4A4A",
"E 	c #BDBD9E9E9494",
"W 	c #ADAD79796363",
"Q 	c #ADAD6D6D4A4A",
"! 	c #D6D686866363",
"~ 	c #9C9C69695252",
"^ 	c #ADAD79795A5A",
"/ 	c #D6D692927373",
"( 	c #DEDE92926B6B",
") 	c #9C9C6D6D5A5A",
"_ 	c #DEDE96967373",
"` 	c #DEDE8E8E6B6B",
"' 	c #CECE86866363",
"] 	c #ADAD7D7D6363",
"[ 	c #080804040000",
"{ 	c #DEDE9A9A7B7B",
"} 	c #E7E79A9A7373",
"| 	c #E7E792926B6B",
" .	c #CECE8A8A6B6B",
"..	c #B5B575755A5A",
"X.	c #E7E79E9E7B7B",
"o.	c #E7E796967373",
"O.	c #D6D68A8A6B6B",
"+.	c #A5A575755A5A",
"@.	c #B5B582826363",
"#.	c #E7E7A2A28484",
"$.	c #EFEF9E9E7B7B",
"%.	c #C6C6B2B2A5A5",
"&.	c #BDBD7D7D6363",
"*.	c #EFEFA6A68484",
"=.	c #EFEFA2A27B7B",
"-.	c #DEDE92927373",
";.	c #9C9C6D6D5252",
":.	c #E7E7BEBEADAD",
">.	c #848461614A4A",
",.	c #BDBD86866363",
"<.	c #EFEFAAAA8C8C",
"1.	c #F7F7A6A67B7B",
"2.	c #F7F7A2A27B7B",
"3.	c #A5A575756363",
"4.	c #DEDEB2B29C9C",
"5.	c #C6C686866B6B",
"6.	c #F7F7AEAE8C8C",
"7.	c #F7F7AAAA8484",
"8.	c #D6D6A6A69494",
"9.	c #6B6B49493939",
"0.	c #9C9C71715A5A",
"q.	c #B5B586866B6B",
"w.	c #B5B586867373",
"e.	c #636349493939",
". X o O                             + @ # $     ",
"% & & * =                         - ; : > ,     ",
"< & 1 * 2 3                     4 5 : 6 7 8 9 9 ",
"O 0 q q w e r                 t y : 6 u i p 9 9 ",
"  0 a s q 1 d r             t y : f u i g h 9 9 ",
"    j k a l q z x         t c : 6 u v g h 9 9 9 ",
"      * b n m M N B     V 5 d C 7 v g h 9 9 9   ",
"        Z y A S z a D F 5 : 6 u v B h 9 9 9     ",
"          Z > C S s b G : n u v B h 9 9 9       ",
"            H J K f L L C u v B h 9 9 9         ",
"              : P I U I u Y O h 9 9 9           ",
"              T S U I I u P R 9 9 9             ",
"            E W Q I I ! ! 6 J ~ 9               ",
"          t ^ z U ! / / ( u C > )               ",
"        t ^ Q I ! / D , _ _ ` ' J 8             ",
"      t ] Q I ! / B h [ N { } | u  .8           ",
"    t c z U ! / g h 9 9 [ ..X.X.o.O.7 +.        ",
"  t @.d C ! Y g h 9 9 9     k #.$.} 7 7 W       ",
"%.5 : 6 ' Y B h 9 9 9         &.*.=.$.-._ ;.    ",
":.: n ! / >.h 9 9 9             ,.<.1.2.X.3.9   ",
"4.k 7 i g h 9 9 9                 5.6.7.6.3.9 9 ",
"8.B B 9.h 9 9 9                     0.q.w.e.9 9 ",
"    9 9 9 9 9                         9 9 9 9 9 ",
"    9 9 9 9                             9 9 9 9 "};
