/* XPM */
static char * help_xpm[] = {
"14 24 91 1",
" 	c None",
".	c #D6D6BABAADAD",
"X	c #CECEAEAE9C9C",
"o	c #CECEAAAA9494",
"O	c #D6D6AEAE9C9C",
"+	c #CECEA2A28C8C",
"@	c #E7E7D3D3C6C6",
"#	c #EFEFDFDFD6D6",
"$	c #C6C696967B7B",
"%	c #94945D5D4242",
"&	c #949455553939",
"*	c #94945D5D3939",
"=	c #ADAD69694A4A",
"-	c #B5B571715252",
";	c #BDBD86866363",
":	c #D6D6B6B6A5A5",
">	c #B5B582826363",
",	c #848449492929",
"<	c #424224241818",
"1	c #000000000000",
"2	c #5A5A3C3C3131",
"3	c #B5B56D6D4A4A",
"4	c #B5B569694242",
"5	c #B5B571714A4A",
"6	c #848459594242",
"7	c #B5B579796363",
"8	c #7B7B49492929",
"9	c #393920201010",
"0	c #181810100808",
"q	c #BDBD8A8A7373",
"w	c #BDBD71714A4A",
"e	c #949459593939",
"r	c #31311C1C1010",
"t	c #84844D4D3131",
"y	c #424228281818",
"u	c #10100C0C0808",
"i	c #DEDEBEBEADAD",
"p	c #BDBD75755252",
"a	c #9C9C5D5D4242",
"s	c #EFEFDBDBCECE",
"d	c #C6C68A8A6B6B",
"f	c #8C8C51513939",
"g	c #F7F7E3E3DEDE",
"h	c #CECE9A9A7B7B",
"j	c #7B7B49493131",
"k	c #292918181010",
"l	c #CECE96967B7B",
"z	c #5A5A34342121",
"x	c #E7E7CBCBBDBD",
"c	c #CECE8E8E6B6B",
"v	c #EFEFDBDBD6D6",
"b	c #EFEFD3D3C6C6",
"n	c #BDBD7D7D5A5A",
"m	c #CECE8A8A6B6B",
"M	c #BDBD71715252",
"N	c #BDBD86866B6B",
"B	c #D6D6AAAA9C9C",
"V	c #A5A579796363",
"C	c #737349493131",
"Z	c #CECE86866363",
"A	c #525234342121",
"S	c #525230302121",
"D	c #393924241818",
"F	c #080808080000",
"G	c #BDBD7D7D6363",
"H	c #63633C3C2929",
"J	c #EFEFD7D7CECE",
"K	c #F7F7DFDFD6D6",
"L	c #EFEFBEBEA5A5",
"P	c #DEDE9E9E8484",
"I	c #F7F7F3F3EFEF",
"U	c #F7F7DBDBCECE",
"Y	c #DEDE9A9A7B7B",
"T	c #B5B579795A5A",
"R	c #848455553939",
"E	c #EFEFCBCBBDBD",
"W	c #E7E7B2B29494",
"Q	c #DEDE92926B6B",
"!	c #A5A569694A4A",
"~	c #42422C2C2121",
"^	c #000004040000",
"/	c #EFEFC3C3B5B5",
"(	c #DEDE9E9E7B7B",
")	c #DEDE8E8E6B6B",
"_	c #848451513939",
"`	c #9C9C69694A4A",
"'	c #6B6B45453131",
"]	c #4A4A2C2C2121",
"[	c #212118181010",
"{	c #393928281818",
"}	c #212114141010",
"  .XooO+      ",
"@#$%&*=-;$    ",
":>,<1123456   ",
"7891110q3wer  ",
"tyu11  ipwa91 ",
"  111  sdpf91 ",
"  11   gh5jk11",
"       gl=z011",
"   xc vbnjk111",
"   mMNBVCk011 ",
"   ZayASDF111 ",
"   ma0111111  ",
"   GHu1 11    ",
"     11       ",
"     11       ",
"              ",
"  JKLP        ",
" JIUYTR       ",
" bEWQ!~^      ",
" /()n_D11     ",
"  `R'][11     ",
"   A{}111     ",
"    1111      ",
"     11       "};
