/* XPM */
static char * left_arrow_xpm[] = {
"22 24 121 2",
"  	c None",
". 	c #F7F7EBEBE7E7",
"X 	c #CECEAEAE9494",
"o 	c #D6D6BABA9C9C",
"O 	c #CECEAAAA8C8C",
"+ 	c #7B7B4D4D3131",
"@ 	c #9C9C5D5D3939",
"# 	c #ADAD71714A4A",
"$ 	c #B5B57D7D5252",
"% 	c #636334342121",
"& 	c #7B7B41412121",
"* 	c #8C8C49492929",
"= 	c #9C9C59593939",
"- 	c #B5B575754A4A",
"; 	c #BDBD86865A5A",
": 	c #BDBD7D7D5A5A",
"> 	c #737338382121",
", 	c #8C8C45452929",
"< 	c #9C9C55553939",
"1 	c #ADAD69694242",
"2 	c #C6C68A8A6363",
"3 	c #C6C682825A5A",
"4 	c #9C9C51513131",
"5 	c #A5A559593939",
"6 	c #ADAD61614242",
"7 	c #B5B571714A4A",
"8 	c #C6C686866363",
"9 	c #CECE8E8E6B6B",
"0 	c #6B6B34342121",
"q 	c #A5A55D5D3939",
"w 	c #B5B569694242",
"e 	c #B5B565654242",
"r 	c #ADAD65654242",
"t 	c #BDBD79795252",
"y 	c #D6D69A9A7373",
"u 	c #73733C3C2121",
"i 	c #BDBD71714A4A",
"p 	c #C6C675755252",
"a 	c #BDBD71715252",
"s 	c #BDBD6D6D4A4A",
"d 	c #C6C679795252",
"f 	c #CECE86866363",
"g 	c #D6D696967373",
"h 	c #DEDE9E9E7B7B",
"j 	c #73733C3C2929",
"k 	c #94944D4D3131",
"l 	c #BDBD75755252",
"z 	c #C6C67D7D5A5A",
"x 	c #CECE7D7D5A5A",
"c 	c #CECE82825A5A",
"v 	c #D6D692926B6B",
"b 	c #DEDEA2A28484",
"n 	c #8C8C55553939",
"m 	c #848445453131",
"M 	c #CECE86865A5A",
"N 	c #D6D686866363",
"B 	c #D6D68A8A6363",
"V 	c #DEDE8E8E6B6B",
"C 	c #E7E7A2A28484",
"Z 	c #EFEFAEAE8C8C",
"A 	c #EFEFA6A68484",
"S 	c #9C9C65654A4A",
"D 	c #DEDE8E8E6363",
"F 	c #DEDE92926B6B",
"G 	c #E7E792926B6B",
"H 	c #E7E796966B6B",
"J 	c #E7E79A9A7373",
"K 	c #E7E7A2A27B7B",
"L 	c #EFEFA2A27B7B",
"P 	c #D6D696967B7B",
"I 	c #D6D68E8E6B6B",
"U 	c #D6D6AEAE9494",
"Y 	c #E7E796967373",
"T 	c #EFEF9E9E7B7B",
"R 	c #EFEFAAAA8484",
"E 	c #949451513131",
"W 	c #63632C2C1818",
"Q 	c #737345453131",
"! 	c #E7E7B6B69C9C",
"~ 	c #E7E7BEBEADAD",
"^ 	c #EFEF9E9E7373",
"/ 	c #525230302121",
"( 	c #212118181010",
") 	c #000000000000",
"_ 	c #F7F7D7D7CECE",
"` 	c #E7E7BEBEA5A5",
"' 	c #F7F7AEAE8C8C",
"] 	c #7B7B38382121",
"[ 	c #5A5A30302121",
"{ 	c #313120201818",
"} 	c #F7F7DBDBCECE",
"| 	c #E7E7B2B29C9C",
" .	c #EFEFA6A67B7B",
"..	c #8C8C45453131",
"X.	c #5A5A2C2C2121",
"o.	c #424228282121",
"O.	c #F7F7E3E3DEDE",
"+.	c #E7E7A6A68C8C",
"@.	c #F7F7B2B28C8C",
"#.	c #8C8C49493131",
"$.	c #5A5A28281818",
"%.	c #4A4A30302121",
"&.	c #080808080000",
"*.	c #848441412929",
"=.	c #101008080808",
"-.	c #F7F7D3D3C6C6",
";.	c #CECE79795A5A",
":.	c #080804040000",
">.	c #FFFFD7D7C6C6",
",.	c #F7F7CBCBB5B5",
"<.	c #F7F7A2A27B7B",
"1.	c #636328281818",
"2.	c #181810100808",
"3.	c #FFFFDBDBCECE",
"4.	c #EFEFB6B69C9C",
"5.	c #7B7B34342121",
"6.	c #DEDEC3C3B5B5",
"7.	c #949459594242",
"8.	c #393924241818",
"9.	c #A5A569695252",
"0.	c #080808080808",
".                                           ",
"X o O                                       ",
"+ @ # $ $                                   ",
"% & * = - ; :                               ",
"  > , * < 1 : 2 3                           ",
"  > 4 4 5 5 6 7 8 9                         ",
"  0 5 q w e r r w t 9 y                     ",
"  u < 6 i p p a s i d f g h                 ",
"  j k r l z x c c c x x c v b b             ",
"  n m e p c M N N B B B B B V C Z A         ",
"    S s d N B B D V F F G H J K L A P I     ",
"    U x c B V V F G H Y T R Z A N E W Q     ",
"  ! ~ f N V F H Y J ^ A Z Z J r W / ( ) ) ) ",
"  _ ` B D G Y J L A Z ' K p ] [ { ) ) ) ) ) ",
"  } | D G J  .R ' ' L x ..X.o.) ) ) ) )     ",
"  O.+.F L R @.R J p #.$.%.&.) ) ) )         ",
"  } C K ' ' J a *.W %.=.) ) ) )             ",
"  -.T A L ;., $./ :.) ) ) )                 ",
">.,.<.N < 1.[ 2.) ) ) )                     ",
"3.4.s 5.X.{ ) ) ) ) )                       ",
"6.7.W 8.) ) ) ) )                           ",
"9.  0.) ) ) )                               ",
"    ) ) )                                   ",
"    )                                       "};
