/* XPM */
static char * right_arrow_xpm[] = {
"22 24 137 2",
"  	c None",
". 	c #C6C6B6B6ADAD",
"X 	c #CECEB6B6A5A5",
"o 	c #DEDEC7C7B5B5",
"O 	c #8C8C6D6D5A5A",
"+ 	c #B5B59E9E8C8C",
"@ 	c #D6D6BEBEA5A5",
"# 	c #CECEA6A68484",
"$ 	c #9C9C69694A4A",
"% 	c #313118180808",
"& 	c #000000000000",
"* 	c #94948A8A7B7B",
"= 	c #DEDEC7C7ADAD",
"- 	c #CECEAEAE8C8C",
"; 	c #B5B582825A5A",
": 	c #A5A565654242",
"> 	c #7B7B41412929",
", 	c #181808080000",
"< 	c #84847D7D7373",
"1 	c #E7E7D7D7CECE",
"2 	c #E7E7CBCBBDBD",
"3 	c #C6C696967373",
"4 	c #9C9C55553131",
"5 	c #6B6B30301818",
"6 	c #080800000000",
"7 	c #DEDED7D7D6D6",
"8 	c #EFEFDFDFD6D6",
"9 	c #D6D6BABAA5A5",
"0 	c #B5B57D7D5A5A",
"q 	c #9C9C59593939",
"w 	c #9C9C51513131",
"e 	c #A5A55D5D3939",
"r 	c #5A5A28281818",
"t 	c #E7E7DFDFD6D6",
"y 	c #F7F7EFEFEFEF",
"u 	c #DEDECBCBB5B5",
"i 	c #BDBD92927373",
"p 	c #B5B56D6D4A4A",
"a 	c #ADAD61614242",
"s 	c #4A4A24241010",
"d 	c #CECEBABAADAD",
"f 	c #D6D6B2B29C9C",
"g 	c #B5B586866363",
"h 	c #A5A561614242",
"j 	c #ADAD65654242",
"k 	c #BDBD79795252",
"l 	c #A5A55D5D4242",
"z 	c #313114140808",
"x 	c #ADAD9E9E8C8C",
"c 	c #D6D6AEAE9494",
"v 	c #BDBD71714A4A",
"b 	c #BDBD75754A4A",
"n 	c #C6C67D7D5A5A",
"m 	c #9C9C55553939",
"M 	c #292910100808",
"N 	c #8C8C82827373",
"B 	c #E7E7CBCBB5B5",
"V 	c #D6D6BABA9C9C",
"C 	c #9C9C5D5D3939",
"Z 	c #BDBD75755252",
"A 	c #C6C679795252",
"S 	c #C6C682825A5A",
"D 	c #8C8C49493131",
"F 	c #080804040000",
"G 	c #7B7B79797373",
"H 	c #E7E7DBDBD6D6",
"J 	c #E7E7CFCFBDBD",
"K 	c #C6C69E9E7B7B",
"L 	c #ADAD6D6D4A4A",
"P 	c #ADAD69694242",
"I 	c #C6C675755252",
"U 	c #CECE86865A5A",
"Y 	c #CECE8A8A6363",
"T 	c #737338382121",
"R 	c #737369695A5A",
"E 	c #848451513939",
"W 	c #A5A561613939",
"Q 	c #C6C67D7D5252",
"! 	c #CECE7D7D5A5A",
"~ 	c #D6D692926B6B",
"^ 	c #7B7B45452929",
"/ 	c #18180C0C0808",
"( 	c #8C8C49492929",
") 	c #B5B569694A4A",
"_ 	c #CECE82825A5A",
"` 	c #D6D68A8A6363",
"' 	c #D6D696967373",
"] 	c #9C9C61614242",
"[ 	c #10100C0C0808",
"{ 	c #6B6B34342121",
"} 	c #CECE86866363",
"| 	c #D6D686866363",
" .	c #D6D68E8E6363",
"..	c #DEDE9A9A7373",
"X.	c #BDBD79795A5A",
"o.	c #4A4A24241818",
"O.	c #42421C1C1010",
"+.	c #7B7B3C3C2929",
"@.	c #D6D68E8E6B6B",
"#.	c #DEDE8A8A6363",
"$.	c #DEDE92926B6B",
"%.	c #E7E79E9E7B7B",
"&.	c #6B6B3C3C2929",
"*.	c #101004040000",
"=.	c #525220201010",
"-.	c #848441412929",
";.	c #DEDE9E9E7373",
":.	c #DEDE96967373",
">.	c #E7E796967373",
",.	c #E7E7A2A27B7B",
"<.	c #9C9C5D5D4242",
"1.	c #101008080000",
"2.	c #525224241818",
"3.	c #94944D4D3131",
"4.	c #E7E7A6A68484",
"5.	c #EFEFA6A68484",
"6.	c #EFEFAEAE8C8C",
"7.	c #EFEFAAAA8484",
"8.	c #080808080000",
"9.	c #21210C0C0808",
"0.	c #737330302121",
"q.	c #A5A559593939",
"w.	c #F7F7BABA9C9C",
"e.	c #D6D692927373",
"r.	c #181810100808",
"t.	c #292914140808",
"y.	c #84843C3C2929",
"u.	c #F7F7C3C3A5A5",
"i.	c #E7E7A6A68C8C",
"p.	c #525234342121",
"a.	c #525224241010",
"s.	c #9C9C4D4D3131",
"d.	c #EFEFA2A27B7B",
"f.	c #73734D4D3939",
"g.	c #737334342121",
"h.	c #B5B565654242",
"j.	c #BDBD75755A5A",
"                                      .     ",
"                                  X o O     ",
"                              + @ # $ %   & ",
"                          * = - ; : > , & & ",
"                      < 1 2 3 : 4 4 5 6 & & ",
"                    7 8 9 0 q w e e r & & & ",
"                t y u i : 4 4 e p a s & &   ",
"            d 1 f g h 4 4 e j p k l z & &   ",
"        x u c 0 q w 4 e j p v b n m M & &   ",
"    N B V g C w m e j p v v Z A S D F & &   ",
"G H J K L 4 m e P p v v Z I A U Y T & & &   ",
"R O E q q W p v v v Z I A Q ! Y ~ ^ F & &   ",
"    / r ( ) n S n A A Q ! _ _ ` ' ] [ &     ",
"    & & M { l n Y Y } _ _ | |  ...X.o.&     ",
"        & 6 O.+.j } ~ ~ @.` #.$.%.~ &.& &   ",
"            & *.=.-.p ~ ;.;.:.>.,.%.<.& &   ",
"                & 1.2.3.n ;.4.5.6.7.Z 8.&   ",
"                    & 9.0.q.` 6.w.w.e.r.&   ",
"                        & t.y.p ,.u.i.p.&   ",
"                          & & a.s.| d.f.&   ",
"                              & F g.h.j.& & ",
"                                  & 1.q & & ",
"                                      & & & ",
"                                          & "};
