/* XPM */
static char * gcharmap_map_16_xpm[] = {
"16 16 169 2",
"  	c None",
". 	c #4A4742",
"+ 	c #63574F",
"@ 	c #6C533F",
"# 	c #8B5E35",
"$ 	c #9E6B3C",
"% 	c #473826",
"& 	c #33312C",
"* 	c #524333",
"= 	c #76502B",
"- 	c #875930",
"; 	c #905728",
"> 	c #844719",
", 	c #413C33",
"' 	c #68574A",
") 	c #916645",
"! 	c #5C3818",
"~ 	c #CC884E",
"{ 	c #DE9758",
"] 	c #856140",
"^ 	c #886544",
"/ 	c #A67347",
"( 	c #AE7544",
"_ 	c #CB874D",
": 	c #D58341",
"< 	c #D3722C",
"[ 	c #654C36",
"} 	c #8C6242",
"| 	c #9F6434",
"1 	c #916037",
"2 	c #A57042",
"3 	c #A36E40",
"4 	c #8B5A34",
"5 	c #8F582C",
"6 	c #C07F49",
"7 	c #A06A3D",
"8 	c #935B2E",
"9 	c #D3742E",
"0 	c #614A34",
"a 	c #8C6142",
"b 	c #7E4F29",
"c 	c #C38048",
"d 	c #B07846",
"e 	c #B7753E",
"f 	c #985320",
"g 	c #AB6630",
"h 	c #B67845",
"i 	c #AC7241",
"j 	c #A96935",
"k 	c #D0722D",
"l 	c #372818",
"m 	c #955E35",
"n 	c #A16533",
"o 	c #C37F47",
"p 	c #CE8B51",
"q 	c #855026",
"r 	c #AD5C22",
"s 	c #B8692E",
"t 	c #AB7140",
"u 	c #BA7B46",
"v 	c #A06433",
"w 	c #8B4E20",
"x 	c #515150",
"y 	c #CB702C",
"z 	c #B9733A",
"A 	c #BF7C45",
"B 	c #B47946",
"C 	c #9C6236",
"D 	c #9E5D2E",
"E 	c #AF6831",
"F 	c #A76D3E",
"G 	c #BF7D45",
"H 	c #A16433",
"I 	c #6C5542",
"J 	c #535352",
"K 	c #565656",
"L 	c #9B6030",
"M 	c #AF713E",
"N 	c #735D4B",
"O 	c #7F6046",
"P 	c #796453",
"Q 	c #B57540",
"R 	c #9C673B",
"S 	c #A56B3B",
"T 	c #9D6130",
"U 	c #92501E",
"V 	c #545353",
"W 	c #864819",
"X 	c #C26928",
"Y 	c #986338",
"Z 	c #7C6551",
"` 	c #7C5E45",
" .	c #7F6550",
"..	c #A56E40",
"+.	c #BD804B",
"@.	c #A86D3A",
"#.	c #D38443",
"$.	c #7F6149",
"%.	c #4E4B47",
"&.	c #3E230B",
"*.	c #88491A",
"=.	c #BF7E49",
"-.	c #6E6257",
";.	c #987557",
">.	c #B78458",
",.	c #E09859",
"'.	c #E09758",
").	c #DC8B49",
"!.	c #D67C38",
"~.	c #A2571F",
"{.	c #A95B21",
"].	c #D4853F",
"^.	c #D58B4B",
"/.	c #C6914F",
"(.	c #D99756",
"_.	c #D09752",
":.	c #C9964F",
"<.	c #D48746",
"[.	c #754218",
"}.	c #A26B20",
"|.	c #828828",
"1.	c #CB8C46",
"2.	c #73902D",
"3.	c #5D8F25",
"4.	c #879236",
"5.	c #BF964C",
"6.	c #B69347",
"7.	c #8F5A2C",
"8.	c #653710",
"9.	c #96511C",
"0.	c #704F20",
"a.	c #857E1E",
"b.	c #7B8927",
"c.	c #978B35",
"d.	c #889035",
"e.	c #7F9132",
"f.	c #598F23",
"g.	c #DC9153",
"h.	c #D78240",
"i.	c #D67B36",
"j.	c #D57B36",
"k.	c #454544",
"l.	c #7A5A2C",
"m.	c #C27C2F",
"n.	c #86882A",
"o.	c #828C2F",
"p.	c #AE9344",
"q.	c #9E943F",
"r.	c #94913A",
"s.	c #B79045",
"t.	c #CE8D49",
"u.	c #DB8946",
"v.	c #DB8844",
"w.	c #CB7939",
"x.	c #474747",
"y.	c #785032",
"z.	c #9F561E",
"A.	c #835226",
"B.	c #8C5B31",
"C.	c #986438",
"D.	c #C7844B",
"E.	c #D1874B",
"F.	c #D28647",
"G.	c #D98441",
"H.	c #CC7432",
"I.	c #B3652B",
"J.	c #664932",
"K.	c #454442",
"L.	c #555554",
"                                ",
"  . + @   # $ % & * = - ; >     ",
"  , ' ) ! ~ { ] ^ / ( _ : <     ",
"    [ } | 1 2 3 4 5 6 7 8 9     ",
"    0 a b c d e f g h i j k     ",
"    l m n o p q r s t u v w x   ",
"      y z A B C D E F G H I J K ",
"      9 L M N O P Q R S T U V   ",
"    W X T Y Z `  ...+.@.#.$.%.K ",
"    &.*.: =.-.;.>.,.'.).!.~.    ",
"      {.].^./.(.,._.:.<.[.      ",
"      }.|.1.2.3.4.5.6.7.8.9.    ",
"    0.a.b.c.d.e.f.,.g.h.i.j.    ",
"  k.l.m.n.o.p.q.r.s.t.u.v.w.    ",
"  x.y.z.A.B.C.D.E.F.G.H.I.J.    ",
"K   K.                    L.    "};
