/* XPM */
static char * gcharmap_map_big_xpm[] = {
"62 61 290 2",
"  	c None",
". 	c #4E4C48",
"+ 	c #545453",
"@ 	c #433E35",
"# 	c #535352",
"$ 	c #47433C",
"% 	c #3D372C",
"& 	c #3F392F",
"* 	c #3B3428",
"= 	c #3C362B",
"- 	c #393225",
"; 	c #444038",
"> 	c #120B00",
", 	c #565656",
"' 	c #48453F",
") 	c #0D0800",
"! 	c #0A0600",
"~ 	c #0B0700",
"{ 	c #110A00",
"] 	c #0F0900",
"^ 	c #4B4944",
"/ 	c #555554",
"( 	c #000000",
"_ 	c #100A00",
": 	c #030200",
"< 	c #B25F21",
"[ 	c #4C4A46",
"} 	c #D6722A",
"| 	c #CE8C50",
"1 	c #E09859",
"2 	c #C3844B",
"3 	c #231600",
"4 	c #433F37",
"5 	c #3E382D",
"6 	c #090600",
"7 	c #140D00",
"8 	c #180F00",
"9 	c #1A1000",
"0 	c #513414",
"a 	c #513211",
"b 	c #AA6A33",
"c 	c #D08241",
"d 	c #945624",
"e 	c #93511F",
"f 	c #A4571F",
"g 	c #8D4B1A",
"h 	c #383124",
"i 	c #030100",
"j 	c #DA9456",
"k 	c #070400",
"l 	c #D49053",
"m 	c #DB8F51",
"n 	c #DB8946",
"o 	c #C57B3D",
"p 	c #D38240",
"q 	c #D77E39",
"r 	c #D77730",
"s 	c #BF6625",
"t 	c #D37029",
"u 	c #535250",
"v 	c #504F4C",
"w 	c #423D34",
"x 	c #302716",
"y 	c #403B31",
"z 	c #DE9657",
"A 	c #DD9354",
"B 	c #DA8642",
"C 	c #D87E39",
"D 	c #D57129",
"E 	c #494640",
"F 	c #C56926",
"G 	c #C78248",
"H 	c #DD9657",
"I 	c #BD8048",
"J 	c #BA7E47",
"K 	c #DE9556",
"L 	c #DC9253",
"M 	c #D9813C",
"N 	c #D77933",
"O 	c #934F1A",
"P 	c #342C1D",
"Q 	c #0E0900",
"R 	c #4B4843",
"S 	c #46423B",
"T 	c #D9833F",
"U 	c #D87C36",
"V 	c #D6742D",
"W 	c #9E551C",
"X 	c #CE6E28",
"Y 	c #C6864C",
"Z 	c #3B3529",
"` 	c #312818",
" .	c #413C33",
"..	c #C2793E",
"+.	c #D16F28",
"@.	c #020100",
"#.	c #52514F",
"$.	c #372F21",
"%.	c #160E00",
"&.	c #925B2E",
"*.	c #AA6A36",
"=.	c #C17234",
"-.	c #8F4E1F",
";.	c #905325",
">.	c #91582B",
",.	c #AA6C3A",
"'.	c #A8622D",
").	c #C48149",
"!.	c #A75B23",
"~.	c #DB8B49",
"{.	c #130C00",
"].	c #DC9050",
"^.	c #C2773B",
"/.	c #A96530",
"(.	c #8F5122",
"_.	c #8E4C1C",
":.	c #774113",
"<.	c #A65820",
"[.	c #A75D26",
"}.	c #AD7443",
"|.	c #AC703F",
"1.	c #BE6525",
"2.	c #A1561D",
"3.	c #C17438",
"4.	c #A8602A",
"5.	c #C48048",
"6.	c #090500",
"7.	c #45413A",
"8.	c #4F2D0A",
"9.	c #905628",
"0.	c #C27B40",
"a.	c #BF6A2B",
"b.	c #0E0800",
"c.	c #BA703A",
"d.	c #A4693B",
"e.	c #925C31",
"f.	c #552F0B",
"g.	c #C06F31",
"h.	c #AB7140",
"i.	c #946339",
"j.	c #AD7544",
"k.	c #C4834B",
"l.	c #DC8F4F",
"m.	c #CB7E41",
"n.	c #BB733D",
"o.	c #010000",
"p.	c #693A10",
"q.	c #BF6D2E",
"r.	c #C27D45",
"s.	c #DF9758",
"t.	c #DD9455",
"u.	c #C27B41",
"v.	c #080500",
"w.	c #C06624",
"x.	c #DB8D4D",
"y.	c #C38149",
"z.	c #AC7342",
"A.	c #CC6C27",
"B.	c #B26C36",
"C.	c #925E33",
"D.	c #AA6F3F",
"E.	c #A36638",
"F.	c #170E00",
"G.	c #C97638",
"H.	c #A15E2E",
"I.	c #AC713E",
"J.	c #925D30",
"K.	c #0C0700",
"L.	c #C6834A",
"M.	c #DD8F4E",
"N.	c #DB8A48",
"O.	c #DE9352",
"P.	c #DC8E4C",
"Q.	c #CB6C27",
"R.	c #4F4D4A",
"S.	c #A6591E",
"T.	c #C36825",
"U.	c #6D4822",
"V.	c #130B00",
"W.	c #C56925",
"X.	c #150D00",
"Y.	c #7A4214",
"Z.	c #D26F29",
"`.	c #A6581F",
" +	c #060200",
".+	c #180E00",
"++	c #1B1100",
"@+	c #713E12",
"#+	c #824716",
"$+	c #190F00",
"%+	c #120C00",
"&+	c #854817",
"*+	c #D47932",
"=+	c #D1813A",
"-+	c #D28943",
";+	c #D58944",
">+	c #C2893E",
",+	c #AA8936",
"'+	c #AA8D3F",
")+	c #928D36",
"!+	c #95933B",
"~+	c #AE9445",
"{+	c #648F27",
"]+	c #7C9131",
"^+	c #CD8040",
"/+	c #050300",
"(+	c #BE7425",
"_+	c #188907",
":+	c #92892E",
"<+	c #308A12",
"[+	c #008900",
"}+	c #4A8E1D",
"|+	c #198A0A",
"1+	c #328C13",
"2+	c #D38442",
"3+	c #724C25",
"4+	c #140C00",
"5+	c #1B1000",
"6+	c #7E4515",
"7+	c #47810E",
"8+	c #A86932",
"9+	c #1D1200",
"0+	c #94501A",
"a+	c #110B00",
"b+	c #5F7E12",
"c+	c #160D00",
"d+	c #8C4B18",
"e+	c #8E4C19",
"f+	c #A4581E",
"g+	c #B76123",
"h+	c #CC6D27",
"i+	c #8E791C",
"j+	c #777C17",
"k+	c #498917",
"l+	c #C7964F",
"m+	c #D89454",
"n+	c #AA632D",
"o+	c #944F1C",
"p+	c #96501C",
"q+	c #A3571E",
"r+	c #B86223",
"s+	c #CD6D27",
"t+	c #498B1B",
"u+	c #D87D38",
"v+	c #2F8309",
"w+	c #188909",
"x+	c #D9823D",
"y+	c #060400",
"z+	c #DB9051",
"A+	c #DA8744",
"B+	c #332B1C",
"C+	c #798C2D",
"D+	c #DB8947",
"E+	c #51504E",
"F+	c #618B24",
"G+	c #C28E48",
"H+	c #4A4742",
"I+	c #A77720",
"J+	c #C77334",
"K+	c #BF7B2D",
"L+	c #C18235",
"M+	c #D88E4E",
"N+	c #DB8D4E",
"O+	c #DB8B4A",
"P+	c #C87435",
"Q+	c #A76634",
"R+	c #6C3B11",
"S+	c #A85E26",
"T+	c #975A28",
"U+	c #D58B4E",
"V+	c #CD854A",
"W+	c #D88D50",
"X+	c #DB8C4C",
"Y+	c #C87132",
"Z+	c #AC5C20",
"`+	c #373023",
" @	c #C86B26",
".@	c #B3743F",
"+@	c #B67640",
"@@	c #AE6028",
"#@	c #90582F",
"$@	c #96511B",
"%@	c #C9884E",
"&@	c #C1783D",
"*@	c #D78441",
"=@	c #A75920",
"-@	c #904D1C",
";@	c #875428",
">@	c #945A2A",
",@	c #955928",
"                                                                . +   @ #                                                   ",
"                                                                $ #   . +                                                   ",
"                                                                                                                            ",
"              % % & * & = & * #                                 % & - ;                               > >                   ",
"            * $ , , , , , , ' @       ) ! ~ { { ] >         % ^ , , / $ *                 ( ) _ > > ] : < _                 ",
"          [ [ , , , , } } , # _       ) | 1 1 1 1 2 ] 3     4 ,       , 5 6 )     7 > 8 9 0 a b c d e f g ) ~               ",
"          * , , , , , } } , , _       _ | 1 1 1 1 1 1 ~ ] - h 6 i ( ( + * j k ] > l 1 1 1 m n o p q r } s t >               ",
"          * u , , , , } } , , >       > 1 1 1 1 1 1 1 1 1 5 v w * x y 4 4 1 1 1 1 1 1 z A m n n B C r } D } )               ",
"          E & , , , , } } , , F )   _ G m 1 1 1 1 1 1 1 1 5 , 1 1 H I J 1 1 1 1 1 1 1 K L m n n n M N } } } O i             ",
"            P , , , , } n , , F ) 3 Q 1 m m 1 1 1 1 1 1 1 5 R , 1 1 j ; S 1 ( ( ( ( 1 1 m m n n n T U V } } W ~             ",
"            3 R / , , } n , , X > ~ n m m m 1 1 1 1 1 ( ( Y - % Z - `  .m m m m m 1 1 1 1 ( n ..n B C r } } +.>             ",
"              3 > $ , } n , , n @.n n m m ( ( 1 1 1 1 1 1 1 j u #.#., m n n m m m 1 1 1 1 m ( n n n M N } } } 7             ",
"                  $., } } , , n n n n m m m 1 1 1 1 1 1 1 1 1 m m m m n n n n m m 1 1 1 1 m n n ..n M N } } } %.            ",
"                  - , } } , , ( ( n n m m ( ( ( ( ( ( ( ( 1 1 m m ( ( ( ( ( ( m m ( ( ( ( ( ( ( &.*.=.N } } } %.            ",
"                  Z , } } , , n n n ( ( ( m m 1 1 1 1 1 1 ( ( ( ( } } -.;.>.,.m m 1 1 1 1 m n n ( ( '.N } } } >             ",
"                  - , } } , , ( ( ( n m m m L K 1 1 1 z ).n >.;.!.} } V U T ~.m m 1 1 1 1 m n n n ( '.N } } } {.            ",
"                  Z , } } , , n n n n m m m L K 1 1 1 K ].n T U V } } !.'.^.~.m m 1 1 1 m m n n n n =.N } } } >             ",
"                  Z , } } , , n n n ( ( ( m m 1 1 1 1 1 m n /.(._.} } ( ( n n m ( ( ( ( 1 ( ( ( ( n M N D } } %.            ",
"                  - w :.} , , n ( ( ( n m m m 1 ( ( ( ( n n ( ( ( ( <.[./...~.m m 1 1 1 }.|.n n n n M N 1.t 2.:.            ",
"                  ` * :.} , , ( n n n n m m m 1 1 1 1 m n 3.4.} } } 1.r C B ~.m m 1 1 1 K 5.n n n n n } } 6.) #., ,         ",
"                  & 7.8.} , , n n n n n m m ( 1 1 1 m n n 9.(.} } } } V U T 0.m m 1 1 1 1 m ( ( ( ( ( a.} b.  , , ,         ",
"                    ( 8.} c.d.n n n n ( m m m 1 1 1 ( ( ( ( ( ( } } } } a.'.e.( m ( ( ( m m n n n n '.a.} ]   , , ,         ",
"                    ( f.} r g.( ( ( ( n m m L K 1 1 m e.9.(.} } ( ( } } } ( ( m m h.i.j.k.l.~.n n n m.n.} !   , , ,         ",
"                    o.p.} V q.n n n n n m m L K 1 1 m ~.M N } } } } } } q./.,.r.m L K s.t.l.u.n n n n , , 4 4 , , , , , , , ",
"                    v.O w.} N M n n n n n m m 1 1 1 m 0.3.4.} } } } } } C B ~.x.m y.z.}.).x.0.( ( ( n , , ' ' , , , , , , , ",
"                    _ w.A.} N =.n n n ( ( m m ( 1 ( ( n n ( ( ( } , ( B.3.*.e.C.D.h.( ( m n n n &./.E., , ' ' , , , , , , , ",
"                    F.} t } N =.( ( n n n m m 1 1 1 m , , , , , n , , n n ( ( ( ( m 1 1 m n n n ..M G.H.+.]   , , ,         ",
"                    Q } } } N =.n n n n n m m 1 1 , , , , , , , , , n n n n m m m 1 1 1 ( ( ( ( &.'.a.1.i 3   , , ,         ",
"                    ] } } } N =.n n n n n m m ( , , , m n n n , , , n ( ( m m m m ( ( }.I.J.n n ( ( } } } )   , , ,         ",
"                    K.} } } N =.( ( ( ( ( ( m m , , ( ( ( n , , , , n m m m m ( ( 1 1 L.M.N.n n n n n } } i   , , ,         ",
"                  3 @.} } } N =.*.n n n n m m , , , m m m , , m , , m m m m m m m m 1 O.P.n n n n n n } } Q.{.              ",
"                  ! } } } } r C B n n n n ( ( , , 1 1 1 , , m m , , m m m m 1 1 1 1 1 1 n n n n n n n , , ,  .v , , , , , , ",
"                  @.} } } } V q./.n n ( ( m m , , 1 1 , , ( ( ( , , 1 ( ( ( ( ( ( 1 1 ( ( ( ( n n n n , , , % R., , , , , , ",
"                {.} } } } } <.(.( ( ( n n m m , , ( , , 1 1 ( , , , 1 1 1 1 1 1 1 1 1 1 n n n n n n n , , , ' ' , , , , , , ",
"                > } } @.@.} ( ( n n n n n m ( , , , , 1 1 1 1 , , 1 1 1 1 1 1 1 1 1 1 n n n n n B M G.} } } S.6.            ",
"                _ } ! > > F } } n n n n n m m , , , , 1 1 1 , , , 1 1 1 1 1 1 1 1 1 O.P.n n n B M N V } } } T.]             ",
"                K.U.V.  ) F } N M n n n n m m , , , , , , , , , 1 1 1 1 1 1 1 1 1 1 O.P.n n n T U V 1.} } } W._             ",
"                X.v.  ( Y.Q.} N M n n n n m , , 1 1 , , , , 1 1 1 1 1 1 1 1 1 1 1 1 O.P.n n n C r Z.`. +> .+++              ",
"                      ( Y.} } N M n n n n m m , 1 1 1 1 1 1 1 1 1 1 1 1 1 1 1 1 1 1 O.P.n n n } } } < ++3                   ",
"                      ( @+} } N M n n n n m m m m 1 1 1 1 1 1 1 1 1 1 1 1 1 1 1 1 1 O.P.n n n } #+X.$+%+                    ",
"                      ( &+F } *+=+-+;+n n m m m m 1 1 1 1 1 1 1 1 1 1 1 1 1 1 1 1 1 1 n n n j ] F.3                         ",
"                      ( O F } } >+,+n n n m '+)+)+!+!+!+~+1 1 1 1 1 1 1 !+{+!+{+]+{+1 n n ^+] 3             X.%.            ",
"                      /+@++.} (+_+:+n n n m m <+[+{+1 {+[+}+1 1 1 1 ]+|+]+1 1 1 }+1+1 n 2+3+4+        %.5+8 6+>             ",
"                      9 F } } 7+[+:+n n n m m <+[+!+1 1 [+[+!+1 1 }+[+]+1 1 1 1 ~+}+1 n 8+8     9 9+X.0+T.} } a+            ",
"                    7 F } } b+_+[+:+n n n m m [+[+1 1 ~+[+[+~+1 ]+[+1+1 1 1 1 1 1 '+m m @.c+9 $+d+e+f+g+h+t F a+            ",
"                    6.} } i+j+k+[+:+n n n m )+[+<+1 1 }+[+}+1 l+[+[+!+1 1 1 1 1 m+m m m n+o+p+q+r+s+D } } } S.)             ",
"                    @.} (+7+} k+[+:+n n n m t+[+t+]+1+}+!+1 1 ]+[+[+1 1 1 1 1 s.t.m m m u+V } } } V r N r V S.6.            ",
"            ,   ' @ } (+v+} } k+[+:+n n n m w+[+'+1 ]+[+{+1 1 }+[+}+1 1 1 1 s.K L m m n x+U N N N U C M U r T.]             ",
"                  y+} 7+v+7+k+_+[+:+n n m '+[+w+m 1 1 }+[+{+1 }+[+}+1 1 1 1 z A z+m m n A+T M M M T B n M N +.%.            ",
"            , , B+} b+i+} n n k+[+:+n n m C+[+t+m 1 1 1+[+}+1 ]+[+}+1 1 1 1 1 m m m n m D+n n n n n n n M } , $.            ",
"            , E+w i+j+} } n n k+[+:+n n m <+[+)+1 1 l+[+[+~+1 l+|+[+l+1 1 m m F+G+m m n D+n n n n n n n M } ,  .            ",
"          , , @.* , } r U n } _+[+k+n n '+[+[+m 1 !+|+[+!+1 1 1 l+|+|+C+)+C+C+G+m n n n n n n n n n n B C } } )             ",
"          , , ( y H+I+r N } i+i+:+:+,+,+)+)+)+)+!+!+~+1 1 1 1 1 1 1 '+)+)+G+m m m n n n n n n n n B T C J+} #.5             ",
"        , ,   ( ' ' } } } } } K+L+n n m m m m m 1 1 1 1 1 1 1 m m m m m m m M+N+O+N.n n B T M M M C U P+Q+w % R+>           ",
"        , ,   ( 7.7.} } } } } S+T+n n m m U+V+W+1 m 1 1 1 m m m m m m m m m X+O+N.D+B T C U N N N r Y+} , ; Z+~ 3           ",
"      , ,     ( ' `+ @} } } w._ > X.X._ > _ ] _ .@.@+@V+m m m m m m m n n ~.N.D+B T C U r V } } 1.@@#@, R > )               ",
"    , , , , , , , ' $@} > X.>                   ~ b.) X.%@m m m n n n n n &@*@T C U r V 1.=@-@} } ( [ $ >                   ",
"    , , , , , , , + 5 ~                                 X.> _ {._ _ {.7 ! ;@>@,@} } } } } ( ! ! { `+@         , ,           ",
"  , ,         ( ( , [                                                     { _ > ! ! ! ! _ 3       , ,         , ,           ",
"  , ,             , ,                                                                             , , , , , , ,             ",
", ,               , ,                                                                               , , , , ,               "};
