/* XPM */
static char * gcharmap_map_24_xpm[] = {
"24 24 350 2",
"  	c None",
". 	c #4A4641",
"+ 	c #4E4840",
"@ 	c #47443D",
"# 	c #4A4843",
"$ 	c #47433C",
"% 	c #170D02",
"& 	c #3D2109",
"* 	c #4E4C48",
"= 	c #565656",
"- 	c #B56B35",
"; 	c #4C4843",
"> 	c #5D3F21",
", 	c #DE9758",
"' 	c #DD9657",
") 	c #744E2A",
"! 	c #453B2D",
"~ 	c #24211C",
"{ 	c #363430",
"] 	c #5E442B",
"^ 	c #654424",
"/ 	c #956538",
"( 	c #A26A38",
"_ 	c #C3793C",
": 	c #C06B2C",
"< 	c #96501C",
"[ 	c #46433C",
"} 	c #B66F3A",
"| 	c #6B584B",
"1 	c #3C2209",
"2 	c #915F34",
"3 	c #DF9557",
"4 	c #E09859",
"5 	c #D89356",
"6 	c #695642",
"7 	c #A8794E",
"8 	c #966C44",
"9 	c #AB7749",
"0 	c #885C36",
"a 	c #C9884F",
"b 	c #D68B4E",
"c 	c #DA8845",
"d 	c #D87B35",
"e 	c #CE6E28",
"f 	c #44250B",
"g 	c #413D37",
"h 	c #B6713D",
"i 	c #736050",
"j 	c #855228",
"k 	c #DB8D4D",
"l 	c #9A663B",
"m 	c #B87D49",
"n 	c #B67D4A",
"o 	c #715943",
"p 	c #8C6543",
"q 	c #DB8C4B",
"r 	c #DC9052",
"s 	c #B17543",
"t 	c #C47B3F",
"u 	c #D9813C",
"v 	c #D6732B",
"w 	c #663812",
"x 	c #413C32",
"y 	c #5F544B",
"z 	c #915B2E",
"A 	c #85552F",
"B 	c #855832",
"C 	c #875C36",
"D 	c #845933",
"E 	c #7F4F29",
"F 	c #76421C",
"G 	c #6A4120",
"H 	c #C68249",
"I 	c #865832",
"J 	c #774B26",
"K 	c #9F5D2B",
"L 	c #673812",
"M 	c #413D33",
"N 	c #67594D",
"O 	c #9A6131",
"P 	c #976135",
"Q 	c #D38B4F",
"R 	c #E09758",
"S 	c #DE9557",
"T 	c #CB7F41",
"U 	c #B86528",
"V 	c #B05E24",
"W 	c #BA7238",
"X 	c #B87844",
"Y 	c #9A693D",
"Z 	c #B27542",
"` 	c #975E30",
" .	c #B96E33",
"..	c #393226",
"+.	c #8C5224",
"@.	c #63564C",
"#.	c #84532A",
"$.	c #AA6C39",
"%.	c #CE874D",
"&.	c #A16E40",
"*.	c #946136",
"=.	c #A56431",
"-.	c #7D4319",
";.	c #AD5E25",
">.	c #C97C3D",
",.	c #D2894E",
"'.	c #CE8C52",
").	c #BA7A45",
"!.	c #AD6C37",
"~.	c #C37537",
"{.	c #9E551F",
"].	c #5D442F",
"^.	c #703F17",
"/.	c #A0663A",
"(.	c #905A2E",
"_.	c #9F6536",
":.	c #C5824A",
"<.	c #7D502C",
"[.	c #653A19",
"}.	c #88491B",
"|.	c #CA6C28",
"1.	c #915526",
"2.	c #A26A3C",
"3.	c #734D2D",
"4.	c #CA844A",
"5.	c #A26534",
"6.	c #9F602F",
"7.	c #7C4419",
"8.	c #7E4417",
"9.	c #D07531",
"0.	c #CF8141",
"a.	c #C0793F",
"b.	c #D38B4E",
"c.	c #C98850",
"d.	c #C37D43",
"e.	c #B0632A",
"f.	c #BD6628",
"g.	c #C0692A",
"h.	c #BA7137",
"i.	c #C98249",
"j.	c #AD7442",
"k.	c #D2884B",
"l.	c #8D582D",
"m.	c #95653E",
"n.	c #504C47",
"o.	c #52514F",
"p.	c #A0561E",
"q.	c #D2752F",
"r.	c #935B2D",
"s.	c #BB753C",
"t.	c #D0884C",
"u.	c #B07B4C",
"v.	c #765E4A",
"w.	c #4E4946",
"x.	c #6E5948",
"y.	c #9A6A43",
"z.	c #955E31",
"A.	c #825530",
"B.	c #B67B48",
"C.	c #8A582F",
"D.	c #955D2F",
"E.	c #B36A33",
"F.	c #51351E",
"G.	c #555554",
"H.	c #A2561F",
"I.	c #8D572B",
"J.	c #85532A",
"K.	c #A46B3D",
"L.	c #5D534C",
"M.	c #6C4D34",
"N.	c #9D6D45",
"O.	c #605A56",
"P.	c #9F6A40",
"Q.	c #BF7D47",
"R.	c #8D5D35",
"S.	c #9C693C",
"T.	c #C57E42",
"U.	c #B4713A",
"V.	c #BA6C30",
"W.	c #8A4A1A",
"X.	c #504F4E",
"Y.	c #361D09",
"Z.	c #CB6C28",
"`.	c #D3742E",
" +	c #C97B3C",
".+	c #805634",
"++	c #796656",
"@+	c #B58257",
"#+	c #57473A",
"$+	c #675648",
"%+	c #9F6E45",
"&+	c #926239",
"*+	c #C0824C",
"=+	c #85542B",
"-+	c #CA7F41",
";+	c #BF7D48",
">+	c #695749",
",+	c #494642",
"'+	c #7B4217",
")+	c #6B3914",
"!+	c #934F1D",
"~+	c #825028",
"{+	c #BE773D",
"]+	c #AD7344",
"^+	c #4C4C4C",
"/+	c #8B6E55",
"(+	c #B37C4C",
"_+	c #695F56",
":+	c #D89459",
"<+	c #DF9555",
"[+	c #DB8946",
"}+	c #DB8744",
"|+	c #C9793C",
"1+	c #A36639",
"2+	c #4F3A29",
"3+	c #301D0A",
"4+	c #231304",
"5+	c #CC6E29",
"6+	c #DA833F",
"7+	c #BA8051",
"8+	c #816B57",
"9+	c #6D6156",
"0+	c #806A57",
"a+	c #B98658",
"b+	c #DE9352",
"c+	c #D97F3A",
"d+	c #B25F24",
"e+	c #824618",
"f+	c #3A200A",
"g+	c #D1712B",
"h+	c #D8833E",
"i+	c #DA8946",
"j+	c #D78C50",
"k+	c #D08D55",
"l+	c #DB8A47",
"m+	c #9F5A24",
"n+	c #4D2B0B",
"o+	c #43240B",
"p+	c #CB6F28",
"q+	c #98852B",
"r+	c #C98E49",
"s+	c #6E8E2A",
"t+	c #9C933E",
"u+	c #A39441",
"v+	c #DD9858",
"w+	c #A29440",
"x+	c #AE9545",
"y+	c #92933A",
"z+	c #BD9045",
"A+	c #A06532",
"B+	c #3C2208",
"C+	c #301C06",
"D+	c #924E1B",
"E+	c #917A1D",
"F+	c #4A8917",
"G+	c #BF8D45",
"H+	c #4B8E1D",
"I+	c #4F8E1F",
"J+	c #879236",
"K+	c #75912E",
"L+	c #D09652",
"M+	c #CB8F4B",
"N+	c #563214",
"O+	c #653710",
"P+	c #8F4D1A",
"Q+	c #CB6C27",
"R+	c #5C3210",
"S+	c #90681C",
"T+	c #8E7B1E",
"U+	c #4D8918",
"V+	c #838C2F",
"W+	c #6D8E2A",
"X+	c #5A8F23",
"Y+	c #B89549",
"Z+	c #328C14",
"`+	c #BF964C",
" @	c #DD9455",
".@	c #DB8E4F",
"+@	c #D27935",
"@@	c #D2742F",
"#@	c #D77B35",
"$@	c #D47630",
"%@	c #562E0F",
"&@	c #695023",
"*@	c #97781E",
"=@	c #9B8830",
"-@	c #4B8918",
";@	c #DB8B49",
">@	c #4F8B1D",
",@	c #B69246",
"'@	c #72912D",
")@	c #839234",
"!@	c #438D1A",
"~@	c #C1964D",
"{@	c #DF9657",
"]@	c #C98F4B",
"^@	c #DB8845",
"/@	c #DA8743",
"(@	c #CF7939",
"_@	c #504030",
":@	c #3D3D3D",
"<@	c #524533",
"[@	c #D0772D",
"}@	c #B67B2A",
"|@	c #6C8720",
"1@	c #C08A40",
"2@	c #6F8C29",
"3@	c #B69347",
"4@	c #879235",
"5@	c #D59755",
"6@	c #C1944C",
"7@	c #8A8E34",
"8@	c #AB8E3F",
"9@	c #D08E4B",
"0@	c #DB8947",
"a@	c #DB8844",
"b@	c #D98440",
"c@	c #C17034",
"d@	c #503924",
"e@	c #242424",
"f@	c #4F4031",
"g@	c #D5712A",
"h@	c #C16826",
"i@	c #815023",
"j@	c #935E31",
"k@	c #8F5D32",
"l@	c #BD7D46",
"m@	c #D68F52",
"n@	c #DD9254",
"o@	c #DB8F51",
"p@	c #DB8A48",
"q@	c #DA8440",
"r@	c #D87C36",
"s@	c #D37631",
"t@	c #B96C34",
"u@	c #584533",
"v@	c #3A220B",
"w@	c #505050",
"x@	c #4D4944",
"y@	c #5F3819",
"z@	c #794F2A",
"A@	c #7A4E27",
"B@	c #7B4D25",
"C@	c #8A5529",
"D@	c #A7612A",
"E@	c #B26125",
"F@	c #774016",
"G@	c #6C3A15",
"H@	c #3E3932",
"I@	c #474747",
"                                                ",
"      . + @             # $           % &       ",
"    * = - ;   > , ' ) ! ~ { ] ^ / ( _ : <       ",
"    [ = } | 1 2 3 4 5 6 7 8 9 0 a b c d e f     ",
"      g h i j k l 4 m n o p q r 4 s t u v w     ",
"      x - y z A B 0 C D E F G H 0 I J K v L     ",
"      M - N O P Q R S T U V W X Y Z `  .v L     ",
"      ..+.@.#.$.%.&.*.=.-.;.>.,.'.).!.~.{.].    ",
"        ^./.(._.:.4 <.[.}.|.1.2.3.4.5.6.7.=     ",
"        8.9.0.a.b.c.d.e.f.g.h.i.j.k.l.m.n.o.= = ",
"        p.q.r.s.t.u.v.w.x.y.z.A.B.C.D.E.F.G.=   ",
"        H.q.I.J.K.L.M.N.O.P.Q.R.S.T.U.V.W.X.    ",
"      Y.Z.`. +5..+++@+#+$+%+B &+*+=+-+;+>+,+= = ",
"      '+)+!+~+{+]+^+/+(+_+:+4 4 <+[+}+|+1+2+    ",
"      3+4+5+6+[+7+8+9+0+a+4 4 4 b+[+c+d+e+      ",
"        f+g+h+i+j+k+4 4 4 4 4 4 b+l+m+n+        ",
"        o+p+q+[+r+s+t+u+v+w+x+y+z+A+    B+C+    ",
"        D+E+F+[+G+H+w+I+J+K+4 L+M+N+O+P+Q+R+    ",
"        S+T+U+[+V+W+X+Y+Z+`+4  @.@+@@@#@$@%@    ",
"      &@*@=@-@;@>@,@'@)@!@~@{@]@k ^@/@^@(@_@    ",
"    :@<@[@}@|@1@2@3@4@5@6@7@8@9@0@^@a@b@c@d@    ",
"  = e@f@g@h@i@j@k@l@m@n@o@.@k p@q@r@s@t@u@v@    ",
"  = w@x@y@            z@A@B@C@D@E@F@G@H@        ",
"=     I@                              = = =     "};
