/* XPM */
char * tb_timer_stopped_xpm[] = {
"20 20 48 1",
" 	c None",
".	c #49244D344924",
"X	c #000000000000",
"o	c #000004100000",
"O	c #28A228A228A2",
"+	c #492449244924",
"@	c #861782078617",
"#	c #EFBEEFBEEFBE",
"$	c #FFFFFFFFFFFF",
"%	c #208124922081",
"&	c #30C230C230C2",
"*	c #79E77DF779E7",
"=	c #08200C300820",
"-	c #FFFFFBEEFFFF",
";	c #A699A699A699",
":	c #514451445144",
">	c #38E338E338E3",
",	c #514455555144",
"<	c #69A669A669A6",
"1	c #965892489658",
"2	c #618561856185",
"3	c #D75CD34CD75C",
"4	c #F7DEF7DEF7DE",
"5	c #AEBAAAAAAEBA",
"6	c #596559655965",
"7	c #CF3CCB2BCF3C",
"8	c #B6DAB2CAB6DA",
"9	c #861786178617",
"0	c #BEFBBAEABEFB",
"q	c #618565956185",
"w	c #EFBEEBADEFBE",
"e	c #C71BC30BC71B",
"r	c #69A66DB669A6",
"t	c #59655D755965",
"y	c #AEBAAEBAAEBA",
"u	c #D75CD75CD75C",
"i	c #71C671C671C6",
"p	c #79E779E779E7",
"a	c #8E388A288E38",
"s	c #E79DE79DE79D",
"d	c #A699A289A699",
"f	c #E79DE38DE79D",
"g	c #38E33CF338E3",
"h	c #30C234D330C2",
"j	c #186118611861",
"k	c #082008200820",
"l	c #104014511040",
"z	c #208120812081",
" ...                ",
" ....  XXXXX        ",
" .....  XXX    ...  ",
"  .....oXXXX O....  ",
"   ..++@#$$$%+....  ",
"    &...*=-;..+.    ",
"   X#@..:>;,..<=    ",
"   X$#1,.+:..23X    ",
"  X$$$45:+..67$$XX  ",
"  X$$$48,+..9$$$X   ",
"  X$X40q:+++>wX$XX  ",
"  X$$er,,<26ty-$X X ",
"  X$ui66938q2pu$XX  ",
"   =a2t@s$4;rrdXX X ",
"   O<q9u$$$f9ia= X  ",
"   .g@f$$X$$0@h X   ",
"  ...jX$$$$$=&.O X  ",
"  ..  XXXXXXX.&.k   ",
"       X X X l.z    ",
"          X X       "};
