/* XPM */
char * tb_timer_xpm[] = {
"20 20 3 1",
" 	c None",
".	c #000000000000",
"X	c #FFFFFFFFFFFF",
"                    ",
"       .....        ",
"        ...         ",
"       ..... .      ",
"     ..XXXXX..      ",
"    .XXXX.XXXX.     ",
"   .XXXXX.XXXXX.    ",
"   .XXXXX.XXXXX.    ",
"  .XXXXXX.XXXXXX..  ",
"  .XXXXXX.XXXXXX.   ",
"  .X.XXXX....X.X..  ",
"  .XXXXXXXXXXXXX. . ",
"  .XXXXXXXXXXXXX..  ",
"   .XXXXXXXXXXX.. . ",
"   .XXXXXXXXXXX. .  ",
"    .XXXX.XXXX. .   ",
"     ..XXXXX.. . .  ",
"      ....... . .   ",
"       . . . . .    ",
"          . .       "};
