/* XPM */
static char * xcpu0_xpm[] = {
"31 20 2 1",
" 	c none",
".	c #000000000000",
"                               ",
"                               ",
"                               ",
"                               ",
"                               ",
"                               ",
"                               ",
"                               ",
"   ... ....  .   .       ...   ",
"  .    .   . .   .      .   .  ",
"  .    .   . .   .      .   .  ",
"  .    .   . .   .      .   .  ",
"  .    ....  .   .      .   .  ",
"  .    .     .   .      .   .  ",
"  .    .     .   .      .   .  ",
"   ... .      ...        ...   ",
"                               ",
"                               ",
"                               ",
"                               "};
