/* XPM */
static char * apple_xpm[] = {
"28 24 33 1",
" 	c None",
".	c #FEFEFC",
"+	c #A2BEE0",
"@	c #8CB9E3",
"#	c #F2F7FC",
"$	c #E0EEFB",
"%	c #6295CC",
"&	c #AAD1F1",
"*	c #CCE5FB",
"=	c #85B6E4",
"-	c #9AC6EC",
";	c #D6EAFA",
">	c #D7E2F4",
",	c #5189C8",
"'	c #7EA6D4",
")	c #5281BC",
"!	c #C7DBF1",
"~	c #B4CCE7",
"{	c #5890CC",
"]	c #749ACC",
"^	c #E6F3FC",
"/	c #A2C8EC",
"(	c #4580C4",
"_	c #3F77BE",
":	c #B9DCF5",
"<	c #679CD4",
"[	c #EEF6FC",
"}	c #6DA3D9",
"|	c #92C0EB",
"1	c #7CAEE4",
"2	c #7EB2E4",
"3	c #78AADD",
"4	c #EAF0FC",
"............................",
".................+@.........",
"...............#$%&.........",
"...............*=-;.........",
"..............>,@*..........",
"..............+'*#..........",
"........;@))'!>!~{)]~#......",
".......^!/,((__%:'(((<[.....",
"......^:-@}}<{,<|1}2-&;.....",
".....#:/====23}32=|/:[......",
".....~:|==22==22==|&*.......",
".....]<12=======2=-&$.......",
".....%_}2==2======|/^.......",
".....%(<====2===2=@|*.......",
".....'(<22======2=2=/.......",
".....~_%1====2=====3}!......",
".....4_{3=======2223<{!.....",
"......%,}1=2=2=====133=[....",
"......~_%3====2====@-&;.....",
".......%{}1========|&*#.....",
".......;,%3=--|@2=|&&*!$....",
"........!{3-&&/@2@&:;4+>....",
".........!|&*^#;&-&;.#>4....",
"............................"};
