/* XPM */
static char * beos_xpm[] = {
"28 24 33 1",
" 	c None",
".	c #DE0232",
"+	c #FAD2D8",
"@	c #F3A4B2",
"#	c #EC7C91",
"$	c #E95878",
"%	c #E84B6C",
"&	c #E63F61",
"*	c #E43358",
"=	c #FAE4E8",
"-	c #E2274C",
";	c #FAEAED",
">	c #E01B3E",
",	c #F5B0BC",
"'	c #E0163C",
")	c #FBEEF0",
"!	c #F19BAD",
"~	c #FBF2F4",
"{	c #E01239",
"]	c #ED758B",
"^	c #F7BECA",
"/	c #DF0E37",
"(	c #FCF6F8",
"_	c #EB637F",
":	c #F0889C",
"<	c #E00A35",
"[	c #F8C9D3",
"}	c #FEFEFE",
"|	c #E20233",
"1	c #E86E86",
"2	c #E85274",
"3	c #F9DBE0",
"4	c #F6BAC5",
"}}}}}}}}}}}}}}}}}}}}}}}}}}}}",
"}}}};[!#_%&------*%_]!^=}}}}",
"}}})&<|.....'>>'|...||<-=}}}",
"}}}+/...|-#,+3+[@_'..|.<4}}}",
"}}},<.|{:=~=4@@[)([%.|..!}}}",
"}}}!..{4([_>/{{{*:;;$|.|#}}}",
"}}}:..{,:'-#^3+^#>%=[/||1}}}",
"}}}]...</$3})33~}+13[/..$}}}",
"}}}_....%~):*''&!~((1...%}}}",
"}}}$....&;)#->'-_=}3{.||&}}}",
"}}}%.....%[(~33((+3~-..|*}}}",
"}}}%......'%:!!:$>@~*..|&}}}",
"}}}%.............>[3{..|*}}}",
"}}}2|...........<!(#..|.&}}}",
"}}}$..||...|....:(@/...|&}}}",
"}}}_....|||.|..2(^>...|.%}}}",
"}}}]|..........@(%.....|$}}}",
"}}}:.|.|.|/-...[3'..|..|_}}}",
"}}}@.|..|.!3&.&;4.|.|..|:}}}",
"}}}4|.|...%)=,;(_..|.|..!}}}",
"}}}+{......$[3[1<..|...<^}}}",
"}}})&<|.....'>{.|||..|<*=}}}",
"}}}};[@:#_2%&&&&%%_]:@^=}}}}",
"}}}}}}}}}}}}}}}}}}}}}}}}}}}}"};
