/* XPM */
static char * bucket_xpm[] = {
"24 24 85 1",
" 	c None",
".	c #666666",
"+	c #9E9E9E",
"@	c #86CADA",
"#	c #92BAD6",
"$	c #92CED6",
"%	c #B2D2D2",
"&	c #A2D6D6",
"*	c #828282",
"=	c #DEDEDE",
"-	c #E2E2E2",
";	c #96BACE",
">	c #7A8A8E",
",	c #86AAB6",
"'	c #E6E6E6",
")	c #7ADEE6",
"!	c #969696",
"~	c #EAEAEA",
"{	c #6E6E6E",
"]	c #BABABA",
"^	c #A6A6A6",
"/	c #AEDADA",
"(	c #EEEEEE",
"_	c #767676",
":	c #B2B2B2",
"<	c #A6C6CE",
"[	c #F2F2F2",
"}	c #8E8E8E",
"|	c #D6D6D6",
"1	c #AECACA",
"2	c #F6F6F6",
"3	c #76E2E6",
"4	c #8EEAE6",
"5	c #C2D2D2",
"6	c #BEBEBE",
"7	c #7E7E7E",
"8	c #B2CAD2",
"9	c #86D2D6",
"0	c #AEAEAE",
"a	c #6EE6EA",
"b	c #8EBED6",
"c	c #82D6E6",
"d	c #C6C6C6",
"e	c #868686",
"f	c #92D6DE",
"g	c #FAFAFA",
"h	c #96CAD6",
"i	c #AAAAAA",
"j	c #8ECAE2",
"k	c #CECECE",
"l	c #929292",
"m	c #A2A2A2",
"n	c #9A9A9A",
"o	c #7A7A7A",
"p	c #6AEEEA",
"q	c #8A8A8A",
"r	c #86B6C2",
"s	c #92D2DA",
"t	c #B6B6B6",
"u	c #6E7276",
"v	c #86D6E6",
"w	c #72E6EA",
"x	c #D2D2D2",
"y	c #DADADA",
"z	c #C2C2C2",
"A	c #8ACEE6",
"B	c #7EDAE2",
"C	c #8ECEE2",
"D	c #C2CAD2",
"E	c #72EEE6",
"F	c #CACACA",
"G	c #FEFEFE",
"H	c #6AEAEA",
"I	c #6A6A6A",
"J	c #72EAE6",
"K	c #8AD2E6",
"L	c #7EDEE6",
"M	c #6EEAEA",
"N	c #92D2D2",
"O	c #92DADE",
"P	c #727272",
"Q	c #7AE2E6",
"R	c #92CAE2",
"S	c #7EDAE6",
"T	c #8ECEE6",
"GGGGGGGGGGGGGGGGGGGGGGGG",
"GGGGGGG'=dz6]t0dxGGGGGGG",
"GGGG2y6t:imnl}q*o_+=GGGG",
"GGG[Fz6t0im+!le*7P{.kGGG",
"GGGykF1N9B)Lcc@r,>P.oGGG",
"GG-y5wHMa3)SScvAAj#u_2GG",
"GGx=EpHaa33)SccKCCR#d[GG",
"GG(q%4HMa3)SBcKAAj;D|gGG",
"GGGo7l0%&OOfs$h<8ykkxGGG",
"GGGo7eq}!nn+^i:t]6dFkGGG",
"GGG!o*eq}!n+^i0:t]zdyGGG",
"GGGmo7ee}lnnm^i:t]6dyGGG",
"GGG:_o*eq}!n+m^0tt]z-GGG",
"GGGk_o7*q}l!nm^i0t]6~GGG",
"GGGku_77eq}!nm^i0t]6~GGG",
"GGGG{__7*q}l!nm^i0:]GGGG",
"GGGG{Po7*eql!n+^i0:]GGGG",
"GGGGnuP_7*q}l!+m^0:kGGGG",
"GGGGn{P_7*eq}ln+m^0kGGGG",
"GGGGFIuPo7*q}l!+m^i-GGGG",
"GGGG(.{u_o7e}}lnmmi2GGGG",
"GGGGGnI{Po7*e}l!nmzGGGGG",
"GGGGGGF+Po7*e}l!]-GGGGGG",
"GGGGGGGGGGxx||GGGGGGGGGG"};
