/* XPM */
static char * caldera_xpm[] = {
"28 24 33 1",
" 	c None",
".	c #EE132D",
"+	c #1480C2",
"@	c #5A9ACE",
"#	c #82B6DB",
"$	c #3C89C6",
"%	c #B8CCE4",
"&	c #4A90CA",
"*	c #FAA196",
"=	c #D0DAE8",
"-	c #4E8ECA",
";	c #F4545B",
">	c #EFA5A8",
",	c #BEE2F2",
"'	c #FAB8AC",
")	c #F2404C",
"!	c #F68983",
"~	c #E29AA2",
"{	c #EDBDC3",
"]	c #FECDBF",
"^	c #ECE9EA",
"/	c #F23242",
"(	c #71A2D1",
"_	c #FDFDFD",
":	c #FCDBD1",
"<	c #F66264",
"[	c #D0BECA",
"}	c #EECAC6",
"|	c #F2263A",
"1	c #86ACD6",
"2	c #F5716E",
"3	c #A0BBDD",
"4	c #ECE2E1",
"____________________________",
"________^*2<<2!2!!'^________",
"_______';2!**'']]**!]_______",
"______*)!*!**']]:::''=______",
"_____>/222!**']:4::4^3%_____",
"____:/2)2!!*::::^__^^%1=____",
"____<<2*!*'44^^__^_^=3%1____",
"___'/).;|!43#%==^^_^=3#(%___",
"___*).)))=3113=4,^^==33(3___",
"___)..<.!31(13%==%=%=31((___",
"___/..<|{@1@3%%%3%%3%313$___",
"___.;;2)[1%1%31133311%%@+___",
"___||)!){@#-@((111111%1&+___",
"___<.|<.!1@@$-@(((((%(3++___",
"___!..;.|=-(+$$--3(--$1+(___",
"___{|.<..<%3++$1@%#$++@+,___",
"___^;|)/..)},3,^=2=$++$&^___",
"____:/;!22!2~22)..!%&@+,____",
"_____!.))...2|....){,$#_____",
"______~|).../2../<2;;%______",
"_______>)...|22<2).)*_______",
"_________!))///..)!^________",
"___________[~~~>{^__________",
"____________________________"};
