/* XPM */
static char * hurd_xpm[] = {
"28 24 17 1",
" 	c None",
".	c #020202",
"+	c #E3E3E3",
"@	c #B2B2B2",
"#	c #868686",
"$	c #696969",
"%	c #565656",
"&	c #3C3C3C",
"*	c #2E2E2E",
"=	c #242424",
"-	c #D7D7D7",
";	c #FDFDFD",
">	c #1E1E1E",
",	c #F1F1F1",
"'	c #9C9C9C",
")	c #7E7E7E",
"!	c #C4C4C4",
"............................",
"............................",
"............................",
"............................",
"............................",
"............................",
"............................",
"............................",
".-*..%@&->..##$-@@'&.+--'*..",
".+&..&-*;=..'@$+%%#;.,')!,&.",
".+%==$+*;>..'@$+..%,.,%..@!.",
".+;;;;-*;>..'@%,##,$.+$..%+.",
".+%==%-*;>..'@$,'+!>.+%..@!.",
".,&..%+.+)>%+$%+..@'.,'$!,&.",
".'=..*'.&!,+).%-..&+.+++'&..",
"............................",
"............................",
"............................",
"............................",
"............................",
"............................",
"............................",
"............................",
"............................"};
