/* XPM */
static char * linux_xpm[] = {
"28 24 32 1",
" 	c None",
".	c #FEFEFC",
"+	c #85837E",
"@	c #161515",
"#	c #040406",
"$	c #3F3A2D",
"%	c #A2A19E",
"&	c #25221B",
"*	c #605C54",
"=	c #F4F4F4",
"-	c #73716E",
";	c #EBEAEB",
">	c #BA8C26",
",	c #E4C420",
"'	c #CE9E34",
")	c #DBD5C9",
"!	c #D39B0C",
"~	c #D5A924",
"{	c #DAA50A",
"]	c #C2963C",
"^	c #D2C7AF",
"/	c #E6E2D9",
"(	c #DEDEDC",
"_	c #BEB7A8",
":	c #E6B234",
"<	c #F7EED4",
"[	c #CAB654",
"}	c #EDBA11",
"|	c #8A723A",
"1	c #F6CE4C",
"2	c #F6CA34",
"3	c #91690C",
"............................",
"............+@#$%...........",
"...........+###$@%..........",
"...........$#####&..........",
"...........$+@*%&#=.........",
"...........-$-+&-#;.........",
"...........*>,,'$#).........",
"...........-!,~{$&%.........",
"...........-%>]^%&&=........",
"..........%*;^/==&#+........",
".........(&(.=..=+##_.......",
".........$$/==.=(^@#@=......",
"......../@_......=-&#+......",
"........+$..=....._#@$......",
".......;&-..=.....^###;.....",
".......%@%..=.....)###/.....",
".......^:+;.=....<[##$=.....",
".....<)~}:$(=....){&&~<.....",
".....:}}}}|@(...._{!{}1.....",
".....:}}}}}|;...(*{}}}}2....",
".....~}}}}}!_)_+@$:}}}}/....",
".....^'!!::>@@@@@$!:!^......",
".......;^]3|(...._33^.......",
"............................"};
