/* XPM */
static char * maccpu_xpm[] = {
"55 45 33 1",
" 	c None",
".	c #020202",
"+	c #2F485D",
"@	c #5A758E",
"#	c #7E9AB3",
"$	c #9DBBD5",
"%	c #E9EAED",
"&	c #293E51",
"*	c #253A4E",
"=	c #DEDFE2",
"-	c #233649",
";	c #9E9EA0",
">	c #3D586F",
",	c #C8C8CE",
"'	c #8E898D",
")	c #25303B",
"!	c #97B3CD",
"~	c #6C879F",
"{	c #4E6A82",
"]	c #D1D2D5",
"^	c #AFAEB0",
"/	c #222A35",
"(	c #4A667E",
"_	c #FCFCFC",
":	c #767A83",
"<	c #22262A",
"[	c #88A8C4",
"}	c #476279",
"|	c #6E757A",
"1	c #BCBBBE",
"2	c #F4F6F8",
"3	c #828793",
"4	c #9A6A6E",
"_%,,1^^^^1^1^^1^^111111,,,,,,]]==%        %=%%%2___    ",
"=:';^^11,1,,,,,]]]]]========%==]=]=     =1,]]=22__2=%  ",
"^;^^^^^1111,,,,]]]=]]===========%==    ='1,=%222_22=^% ",
";;^^1,11,11,,]],]]]]]]]]]]]]]]==%==    ^;'[1],]],1#;^, ",
";;11............................%==    ;~@![[[$$$$[~1]2",
"';11............................%==   =;{@~~~##[[![[$]%",
";;11............................%==   1;({@~@~#[[[[[[=%",
"';11............................%=]   ;#}(@@~~!##[[[#^%",
"';11............................%=]   '~}}@@@~[##[[[[#%",
"'^11............................%=]   3@&&++>>>}(}{{}:%",
"';,1............................%=]   3}>({({{{{@@@~~@=",
"'^,1............................%=]   3>>(({{@@@~@~~~{%",
"';11............................%=]   3>>{{{@{~@@~~~~{=",
"';11............................%]]   :>++>>>>>}>}>({(=",
"'^11............................%]]   :++>&<</<<</&{{}=",
"';^1............................%]]   :>+>>}(~@>{({}{>=",
"';11............................%],   |+++>+>>>}>>>}}>=",
"'^11............................=]]   |>++>>>>+>((}}{+]",
"';,1............................%],   |++>>+>*>+>(}({>]",
"'^,1............................=],   |++>+>+*+&+>}}{+]",
"';11............................%,,   |++++>+>&&}>}>(+]",
";^11............................=],   |++>+>+>>}>}>>}+]",
"';11............................=,,   |+&+++>+&>>>>>>&]",
";;11............................%,,   |&+++++>)+>>>>>&,",
";;11............................=,,   |+&++++++++>+>>&,",
";^11............................=],   |+&+++++&+>>>>>*]",
";^11............................]],   |>)/-------**&&>,",
"^;^'............................],,   :@----**&&&*+&&{,",
"^;^^11^1111,,,,,],]]]]]]]]]]]]]=]]1   33&---**&&&&&++3]",
"^^144^1^11111,,,,1,,,]]]]]]]],,,]]1  _^@>*---*&&&&&&&3,",
"^;^^:1^1111,,1,,,|,,,,,,]]]]],;,,], %]1~{+*-**&+&&&++;]",
"1^;^!1^1111,1,1,,],,]]]],],]]]]]]]1==%=:~+++++++++++[^=",
"]1,,1,,1,,,,]],,,]]]]]]=]=]==]=]]=1=_]=:(;~#!!$$!#31;^%",
" 2===%%%%==%%%2=%=%=%%%%%%%%%=%=%=,2 ]_^+1===%%2222]31 ",
"         %====%%=%======%        ]% %=  1,]]=%%%%%=]]  ",
"         =]]]====%======%        =2 =%                 ",
"      2%%%=%====%==%%%=%%%%%%    ]  %=                 ",
",,,,,,,,,,,,,,,,,,,,,,,,,,,,,,,,,,,, =]%2              ",
",(>{>{>@>@}~>~>3>#>#>#>#>[>[>!$>!>$,  2%]]=_           ",
",{{{@@@@@@@:~~~~~~#3####[#[[[$!!$$!,     _=]%          ",
",{}(>@>@}@}@>~>~}~>#>#}#}#}[>!$>!>$,     %!#[,2        ",
",}}}{>@>@>~>~>~>~}~>#>#>#>[>[$!$>$!,     ~~##[$        ",
",(>{>@>@>@>@}~>~>~>#>#>#}#}[>!!>$>$,     @@~##!        ",
",}({{{@@@@~@@~~~~~~~~####[#[[!$$!$!,     =#@~!%        ",
",,,,,,,,,,,,,,,,,],],,,,,,,,,,,,,,,,                   "};
