/* XPM */
static char * mandrake_xpm[] = {
"28 24 202 2",
"  	c None",
". 	c #FFFFFF",
"+ 	c #F8EEB1",
"@ 	c #DDDCD6",
"# 	c #FEFEFF",
"$ 	c #F9FAFB",
"% 	c #FFFCDE",
"& 	c #EED334",
"* 	c #C9C5B0",
"= 	c #E7EAF4",
"- 	c #BCC3E2",
"; 	c #A8AEB9",
"> 	c #A7ABAE",
", 	c #8F99BC",
"' 	c #818FC4",
") 	c #7989CB",
"! 	c #CCC69C",
"~ 	c #FADB1A",
"{ 	c #F4D100",
"] 	c #C3B87B",
"^ 	c #F9F9FD",
"/ 	c #D7DCED",
"( 	c #818EC4",
"_ 	c #7988C7",
": 	c #8E94A1",
"< 	c #E3C930",
"[ 	c #F6DB37",
"} 	c #E9D553",
"| 	c #D1C886",
"1 	c #F2CF00",
"2 	c #F7D300",
"3 	c #C6B551",
"4 	c #FBFBFC",
"5 	c #FFFFFD",
"6 	c #FCFBF8",
"7 	c #F8F7EF",
"8 	c #E0E3F1",
"9 	c #98A2CF",
"0 	c #7D8BC2",
"a 	c #7F8DC3",
"b 	c #808EC3",
"c 	c #7989CD",
"d 	c #93927B",
"e 	c #E8C700",
"f 	c #F8D502",
"g 	c #F1CF00",
"h 	c #EDCC0B",
"i 	c #EEE298",
"j 	c #FEFDF5",
"k 	c #FDFDFA",
"l 	c #E2DECC",
"m 	c #EDE8D4",
"n 	c #DDDBD2",
"o 	c #EEEFF2",
"p 	c #8B97C5",
"q 	c #7B89C2",
"r 	c #7F8EC3",
"s 	c #808EC4",
"t 	c #A19A66",
"u 	c #EFCC00",
"v 	c #F3D001",
"w 	c #F6D50C",
"x 	c #F8E04B",
"y 	c #F8E87C",
"z 	c #DACE8C",
"A 	c #C3BDA4",
"B 	c #DBD8C5",
"C 	c #ECE9DC",
"D 	c #A4ABC5",
"E 	c #8F9BCF",
"F 	c #808EC6",
"G 	c #C0AF42",
"H 	c #F4D200",
"I 	c #D6B600",
"J 	c #A89528",
"K 	c #ACA37C",
"L 	c #C8C2AA",
"M 	c #CFCAB9",
"N 	c #EBEBEC",
"O 	c #C7CAD3",
"P 	c #ACB3DC",
"Q 	c #8693C6",
"R 	c #BCB68C",
"S 	c #F3D000",
"T 	c #DBBC01",
"U 	c #AAA58F",
"V 	c #E2E2E3",
"W 	c #DCD9CC",
"X 	c #DAD9D6",
"Y 	c #FAFAFA",
"Z 	c #ADB1C9",
"` 	c #A5ADD7",
" .	c #BEBC9E",
"..	c #FFDD14",
"+.	c #F1CE00",
"@.	c #C4C0A8",
"#.	c #C1C4CF",
"$.	c #AEB4DC",
"%.	c #7F8DC2",
"&.	c #7D8BC6",
"*.	c #939DBF",
"=.	c #EDD545",
"-.	c #838359",
";.	c #738075",
">.	c #C9B012",
",.	c #FAD500",
"'.	c #EDCB00",
").	c #C2BD9F",
"!.	c #E5E6E8",
"~.	c #A6ADD3",
"{.	c #7E8DCB",
"].	c #9D9D8A",
"^.	c #998C3B",
"/.	c #717373",
"(.	c #6D84C6",
"_.	c #2E50A0",
":.	c #686F7D",
"<.	c #CEB523",
"[.	c #F1CC00",
"}.	c #F1F3F9",
"|.	c #F6F6F8",
"1.	c #7E8BBC",
"2.	c #7686C3",
"3.	c #6F88C0",
"4.	c #395287",
"5.	c #7280BA",
"6.	c #7E89B6",
"7.	c #BBA623",
"8.	c #A09650",
"9.	c #8391C5",
"0.	c #8694C9",
"a.	c #919BC2",
"b.	c #ECECEC",
"c.	c #C4C6D1",
"d.	c #818FC5",
"e.	c #5E7BB6",
"f.	c #3F5589",
"g.	c #7F8FCC",
"h.	c #7F88AA",
"i.	c #7A7D7D",
"j.	c #808EC5",
"k.	c #8190CB",
"l.	c #7780A2",
"m.	c #E4E4E4",
"n.	c #E2E2E5",
"o.	c #7D8CC2",
"p.	c #4E6CA8",
"q.	c #4B5D8F",
"r.	c #8390C4",
"s.	c #7F8EC7",
"t.	c #757FA1",
"u.	c #C3C3C5",
"v.	c #FDFDFE",
"w.	c #E3E6F2",
"x.	c #8290C5",
"y.	c #828FC4",
"z.	c #3A5691",
"A.	c #6C78A8",
"B.	c #8594CC",
"C.	c #808FC6",
"D.	c #7784B4",
"E.	c #7F859C",
"F.	c #F5F5F5",
"G.	c #F4F5FA",
"H.	c #B2BBDB",
"I.	c #8492C6",
"J.	c #38528B",
"K.	c #7380B1",
"L.	c #7883AD",
"M.	c #878C9E",
"N.	c #BABABD",
"O.	c #F0F0F0",
"P.	c #E9EBF1",
"Q.	c #9AA7D3",
"R.	c #808FC3",
"S.	c #8290C6",
"T.	c #8291C8",
"U.	c #8391C4",
"V.	c #43557D",
"W.	c #A1A3AA",
"X.	c #D2D2D2",
"Y.	c #F8F8F8",
"Z.	c #A9AFCA",
"`.	c #8291C9",
" +	c #7986B6",
".+	c #757FA5",
"++	c #989EAE",
"@+	c #9096A4",
"#+	c #CECFD3",
"$+	c #858DA8",
"%+	c #7F87A7",
"&+	c #8D91A4",
"*+	c #BEBEC0",
"=+	c #DEDDDD",
"-+	c #C1C7D4",
";+	c #B7B9BE",
">+	c #E7E7E7",
",+	c #FCFCFC",
"'+	c #9DABC8",
")+	c #D6D6D6",
"!+	c #4B6BAB",
"~+	c #969DAC",
". . . . . . . . . . . . . . . . . . . . . . . . . . . . ",
". . . . . . . . . . . . . . . . . + @ . . . . . . . . . ",
". . . . . . . . . . . . . # $ . % & * . . . . . . . . . ",
". . . . . . . . = - ; > , ' ) ! ~ { ] . . . . . . . . . ",
". . . . . . ^ / ( _ : < [ } | [ 1 2 3 4 . 5 6 5 7 . . . ",
". . . . # 8 9 0 a b c d e 2 f 1 g 1 h i j k l m n . . . ",
". . . . o p q r b b s c t u g g g g v w x y z A B C . . ",
". . . . . D E b b b b F _ G g g g g g H I J K L M N . . ",
". . . . . O P Q b b b b c R g g g g S T U V W X n Y . . ",
". . . . . . Z ` b b b )  ...+.H 2 { e @.. . . . . . . . ",
". . . . . . #.$.%.b &.*.=.I -.;.>.,.'.).. . . . . . . . ",
". . . . . . !.~.0 b {.].^./.(._.:.<.[.R }.}.|.. . . . . ",
". . . . . . . Z r b ' 1.2.{.3.4.5.6.7.8.9.0.a.b.. . . . ",
". . . . . . . c.Q %.b d.d.b e.f.1.g.h.i.j.k.l.m.. . . . ",
". . . . . . . n.9 o.b b b b p.q.r.b s.&.s.t.u.. . . . . ",
". . . . . . v.w.x.b b b b y.z.A.B.C.D.E.F.. . . . . . . ",
". . . . . G.H.' b b b b b I.J.K.L.M.N.O.. . . . . . . . ",
". . . . P.Q.q %.R.' S.T.C.U.V.W.X.Y.. . . . . . . . . . ",
". . . . Z.k.`.T.C.0  +.+M.++@+. . . . . . . . . . . . . ",
". . . . #+$+%+%+&+W.*+=+. -+;+. . . . . . . . . . . . . ",
". . . . . F.>+>+,+. . . . '+)+. . . . . . . . . . . . . ",
". . . . . . . . . . . . o !+,+. . . . . . . . . . . . . ",
". . . . . . . . . . . . Y.~+. . . . . . . . . . . . . . ",
". . . . . . . . . . . . . . . . . . . . . . . . . . . . "};
