/* XPM */
static char * next_xpm[] = {
"28 24 33 1",
" 	c None",
".	c #070607",
"+	c #29271E",
"@	c #686764",
"#	c #8A8124",
"$	c #1BAC2E",
"%	c #9A9A9A",
"&	c #2AA632",
"*	c #C00DAC",
"=	c #26BC3A",
"-	c #CD3422",
";	c #CABA26",
">	c #C9C9C8",
",	c #821085",
"'	c #9D2934",
")	c #D6D22E",
"!	c #671336",
"~	c #175616",
"{	c #DEDEDE",
"]	c #B3AC23",
"^	c #3F1211",
"/	c #AEAEAE",
"(	c #384237",
"_	c #862226",
":	c #1DD531",
"<	c #290813",
"[	c #BCB9A0",
"}	c #111A0B",
"|	c #E2E2E2",
"1	c #848381",
"2	c #D2D2CE",
"3	c #554F35",
"4	c #FEFEFE",
"4444444444444444444444444444",
"444444444444444>(%4444444444",
"4444444444444>@3++4444444444",
"4444444444423@]#]#1444444444",
"4444444442@^}]}(]#+|44444444",
"4444444{@.<-+;]#(3@@44444444",
"444444@^...__)3<}](<24444444",
"44444|%-'-!^-3;]]#*,34444444",
"44444[%@-!---_<+,*,..>444444",
"44444%@%--.<<^}**,*..(444444",
"44444@.%@-<..~$..<*.../44444",
"44444(.@%^}..$(...,*..+44444",
"44444}..%@==$:}...<,@%%44444",
"44444+..@%.}$::&~.@%%@/44444",
"44444[...%@.$~}+@%%@.}444444",
"4444443..@%.=}@%%@...@444444",
"4444442...%@$%%@.....2444444",
"4444444@..@%%@......@4444444",
"4444444|}.@%@.....(>44444444",
"444444441.@%....(>4444444444",
"44444444|}@%..([444444444444",
"444444444%@%(/44444444444444",
"4444444444@/4444444444444444",
"4444444444444444444444444444"};
