/* XPM */
static char * os2_xpm[] = {
"28 24 11 1",
" 	c None",
".	c #FFFFFF",
"+	c #C7C7C7",
"@	c #8E8E8E",
"#	c #727272",
"$	c #E3E3E3",
"%	c #AAAAAA",
"&	c #555555",
"*	c #393939",
"=	c #1D1D1D",
"-	c #000000",
"............................",
"............................",
"............................",
"............................",
"............................",
"............................",
"............................",
".....+@#$...%%&+...@$$%&+...",
"....%*.$=+.&$.@&..$=.%.#-$..",
"...$-%..&*.-$..#..@@%..%-%..",
"...@-...%-$*=+....=$...%-$..",
"...&-...%-%$=-@..+#....##...",
"...&-...%-%..#-#.&+...$&....",
"...@-...%-$+..%-$*....&$.$..",
"...$-%..&*.*...=#@...%$.@%..",
"....%*.$=$.-+.%%=...$=---%..",
".....+@%$..+#%++@...$%%%%$..",
"............................",
"............................",
"............................",
"............................",
"............................",
"............................",
"............................"};
