/* XPM */
static char * os2cpu_xpm[] = {
"55 45 33 1",
" 	c None",
".	c #D1CECE",
"+	c #D8D5D5",
"@	c #E6DEDE",
"#	c #E9E8E7",
"$	c #F2EAEA",
"%	c #F1EEED",
"&	c #F5F2F1",
"*	c #F9F7F6",
"=	c #CAC8C8",
"-	c #C3C0C0",
";	c #DEDCDB",
">	c #E4E2E2",
",	c #BCBABA",
"'	c #B8B6B6",
")	c #ABA8A8",
"!	c #7A777C",
"~	c #868081",
"{	c #6D6867",
"]	c #918A8C",
"^	c #979696",
"/	c #D2D2D2",
"(	c #A79E9D",
"_	c #B2B0B1",
":	c #9F9E9F",
"<	c #A29A98",
"[	c #020202",
"}	c #FEFEFE",
"|	c #A6A2A2",
"1	c #2B2323",
"2	c #141010",
"3	c #2E2A26",
"4	c #3A3632",
".....+++@##$$$%%&&&**&*******&&&&$%&                   ",
"=--=..+;;@>#%%%%%&&&&*&&&&*&&*&&&&&*   .---=--,'-,---  ",
"-=--=..+;@@>>#$#$%%%%&*&*&**&****&&*   =--)!~{]^]'=./  ",
"--(_,=./++@>##$%&%%&*&&*&*&&&***&*&*   ==-,:)_,-]-..+  ",
",'&<[[[[[[[[[[[[[[[[[[[[[[[[[[[[>&&*   .!^^]]^]^]^'=+  ",
"'_@-[[[[[[[[[[[[[[[[[[[[[[[[[[[[}&**   .!--==-==--++/  ",
"))@-[[[[[[[[[[[[[[[[[[[[[[[[[[[[}&**   =!||_-===,-+++  ",
"||@-[[[[[[[[[[[[[[[[[[[[[[[[[[[[}*&*   .!:]<^))_)).++  ",
"||@_[[[[[[[[[[[[[[[[[[[[[[[[[[[[}&&*   =-../+/;+;+/;+  ",
"|<@'[[[[[[[[[[[[[[[[[[[[[[[[[[[[}&*}   =,==.//+;+;/;;  ",
"|(@|[[[[[[[[[[[[[[[[[[[[[[[[[[[[}&&}   ='=./+/+;+;/++  ",
"<<+)[[[[[[[[[[[[[[[[[[[[[[[[[[[[}&&*   ._=--=-=-=-=;+  ",
"<<+)[[[[[[[[[[[[[[[[[[[[[[[[[[[[****   /-+;;;;>;>;+;;  ",
"<^+<[[[[[[[[[[[[[[[[[[[[[[[[[[[[*&&}   ==;;;;>>>>>+;+  ",
"^^.([[[[[[[[[[[[[[[[[[[[[[[[[[[[*&&*   .-==/++/+/+/;+  ",
"^]+([[[[[[[[[[[[[[[[[[[[[[[[[[[[%&&}   +;>##>==>>>>;#  ",
"<]+|[[[[[[[[[[[[[[[[[[[[[[[[[[[[%&&*   ;;/=;.~~;;;/;#  ",
"<].<[[[[[[[[[[[[[[[[[[[[[[[[[[[[$&&    ;;>;>;,,;;;=;>  ",
"^].([[[[[[[[[[[[[[[[[[[[[[[[[[[[>&&    ;>###>>#>>>>;>  ",
"^].([[[[[[[[[[[[[[[[[[[[[[[[[[[[@%&    ;;=.==/+++;+;#  ",
"]].([[[[[[[[[[[[[[[[[[[[[[[[[[[[@&&    >>#+=:]]]:_-+>  ",
"]].|[[[[[[[[[[[[[[[[[[[[[[[[[[[[;%&    ;>='):||_',=;@  ",
"]].<[[[[[[[[[[[[[[[[[[[[[[[[[[[[@%%    >>+>%#/=,/;>;>  ",
"]~+([[[[[[[[[[[[[[[[[[[[[[[[[[[[+&%    >>;/_^~!~^),;>  ",
"]~;<[[[[[[[[[[[[[[[[[[[[[[[[[[[[+&%    >>.=---,-=//;>  ",
"]]/<[[[[[[[[[[[[[[[[[[[[[[[[[[[[@%%    ;>>;/-)::_=.;;  ",
"]~+'[[[[[[[[[[[[[[[[[[[[[[[[[[[[+%%    >>/,)::::_,=+;  ",
"]~+=[[[[[[[[[[[[[[[[[[[[[[[[[[[[+%%    >>/;>+====;;;>  ",
"<](_-.+@>##%%%&&*****}}}}}}}}}}}>$%  }&>>>/'^!!!]:'+;  ",
"(]~]]^<|)_''---=../++++++;;@>##$%%$ &>>>>=,'_'=////;>  ",
")]]^]<<|)_,,,-=.<~~>;+;;;@>>##$%$$$%>&}>>;##/'||'=/;;  ",
"_<<<<(|)(,,,-,-.+.@+;>@;;>@>##$$%#;#%}};#;-_^^^^:_,+;  ",
",<^<<(_{-)-==+>~{)+]+++@@>>>##$%#;;* &#;#////--=/+;;;  ",
"  &](__~--,,=-=,.-+,@;###%$%$$#+;%}  #}>;//=|:]^|_-;@  ",
"     >@$~~~<<^)-,===,'|)()--'-==&    # >;#>##%#%%#>>>  ",
"       11[[[222222211111231!}$#*     # >>>#>##>>>#%%#  ",
"      1311331113333113331114{#}      %%}               ",
"/////.+..+....+....././/+//=..///== }*%#%%##%*         ",
"::^|^|^)^)^_<_^'^,^,^-^-^=^=^==^/^/     }} }&%         ",
"<::::|))))_)____'',,,,-,=--===...//      } --==        ",
"^:^|^|^)<)^)^_^_^'^,^,^,^-^=^==^.^/        ,,==        ",
":::^:^|^|^_^_^'^_^'^,^-^-^-^====^..        ',,-        ",
"::^:^:^)^|^)^_^'^'^'^,^-^-^=^==^.^/        _'',        ",
"^:::||||))))_)__'_'',,,-----=====..        )__'        ",
"^^^^^^^^^^^^^^^^^^^^^^^^^^^^^^^^^^^        ))__        "};
