/* XPM */
static char * sgi_xpm[] = {
"28 24 17 1",
" 	c None",
".	c #050509",
"+	c #202020",
"@	c #525256",
"#	c #787879",
"$	c #959597",
"%	c #A4A4A5",
"&	c #B2B2B6",
"*	c #BABABE",
"=	c #C6C6C6",
"-	c #CECECE",
";	c #DADADA",
">	c #DEDEDE",
",	c #E2E2E6",
"'	c #3C3C3C",
")	c #E6E6E6",
"!	c #FDFDFE",
"!!!!!!!!!!!!!!!!!!!!!!!!!!!!",
"!!!!!!!!!!!!!!!!!!!!!!!!!!!!",
"!!!!!!!!!!!!!!!!!!!!!%@!!!!!",
"!!!!!!!!!!!!!!!!!*;!!'.$!!!!",
"!!!!!!!!!!!!!!!=+.@!!=#!!!!!",
"!!!)*=!!!!!!!-*.+$)!!)!!!!!!",
"!!#...+%!!!=+...@!!>+++&&$$!",
"!*.+$#..!!>..#$+.#!)@..&,,;!",
"!#.$!!,$!!#.#!!)..)!!'.&!!!!",
"!$.@!!!!!!@.&!!!'.;!!'.&!!!!",
"!,+.+#=!!!'.&!!!+.-!!'.&!!!!",
"!!;#...#!!@.%!!!+.>!!'.&!!!!",
"!!!!)%+.&!$.'>!$.'!!!'.&!!!!",
"!!,!!!%.#!!+..+..=!!!'.&!!!!",
"!@+;!!#.#!;.'@'#>!!!!@.$!!!!",
"!$.+##..;!#.*!!!!!!!!$.+%!!!",
"!!#...+&!!+.@'@@#;!!!!#.'!!!",
"!!!)=;!!!!$@..''.+,!!!!!!!!!",
"!!!!!!!!!!!=.#!!%.#!!!!!!!!!",
"!!!!!!!!!!!&.#!!&.#!!!!!!!!!",
"!!!!!!!!!!!!+.@@..,!!!!!!!!!",
"!!!!!!!!!!!!;#'@@=!!!!!!!!!!",
"!!!!!!!!!!!!!!!!!!!!!!!!!!!!",
"!!!!!!!!!!!!!!!!!!!!!!!!!!!!"};
