/* XPM */
static char * sgicpu_xpm[] = {
"55 45 97 2",
"  	c None",
". 	c #020202",
"+ 	c #6093A7",
"@ 	c #2A5869",
"# 	c #2A4453",
"$ 	c #B6D8E2",
"% 	c #2A3C49",
"& 	c #50595F",
"* 	c #969696",
"= 	c #263440",
"- 	c #9BC9D6",
"; 	c #2A2E35",
"> 	c #4D859B",
", 	c #162A4A",
"' 	c #9AC0CC",
") 	c #4F7A8B",
"! 	c #34788E",
"~ 	c #23262C",
"{ 	c #9AB6BE",
"] 	c #20222A",
"^ 	c #3F4246",
"/ 	c #87B5C8",
"( 	c #8A8A8D",
"_ 	c #A9CCD7",
": 	c #BEDAE2",
"< 	c #2C6275",
"[ 	c #606E73",
"} 	c #1A1E27",
"| 	c #021A36",
"1 	c #CEE6EE",
"2 	c #597C88",
"3 	c #AAAAAA",
"4 	c #88989E",
"5 	c #5C6469",
"6 	c #828488",
"7 	c #B2CED7",
"8 	c #A4A4A4",
"9 	c #78ABBC",
"0 	c #325262",
"a 	c #327288",
"b 	c #E7F2F2",
"c 	c #393D42",
"d 	c #A2C2CB",
"e 	c #699EB2",
"f 	c #70777B",
"g 	c #C6C6C6",
"h 	c #285262",
"i 	c #688C9C",
"j 	c #456672",
"k 	c #CBCCCD",
"l 	c #405C69",
"m 	c #306E83",
"n 	c #131620",
"o 	c #44484D",
"p 	c #626268",
"q 	c #B9BABA",
"r 	c #3F768A",
"s 	c #32343A",
"t 	c #595C61",
"u 	c #9E9E9E",
"v 	c #C2DADE",
"w 	c #2A4C5C",
"x 	c #86A4AD",
"y 	c #608998",
"z 	c #36525E",
"A 	c #75959F",
"B 	c #4E4D53",
"C 	c #78A2B4",
"D 	c #D2D2D2",
"E 	c #2D687C",
"F 	c #2B5E72",
"G 	c #F9FCFC",
"H 	c #77787C",
"I 	c #3C7D91",
"J 	c #D2E6EA",
"K 	c #90C0CF",
"L 	c #6D7075",
"M 	c #3E525C",
"N 	c #375864",
"O 	c #39687F",
"P 	c #B0B0B1",
"Q 	c #447284",
"R 	c #C0C0C1",
"S 	c #D9DBDC",
"T 	c #66686D",
"U 	c #71A6BA",
"V 	c #474E53",
"W 	c #B6B6B6",
"X 	c #272A32",
"Y 	c #538BA1",
"Z 	c #81AEC0",
"` 	c #E6E6E6",
" .	c #141A24",
"..	c #7C7E82",
"+.	c #4D5259",
"@.	c #457F95",
"#.	c #F3F3F4",
"S H H H H H ..6 ( ( ( ( * * * * u u u u 8 8 8 u 8 8 8 8 8 8 P P q R q `                                       ",
"R ~ ~ X X ; ; s s c ^ o o V & t t t p p p t t t +.+.o o c c s s ; X ; * 4 x x y i C x Z Z { ' _ $ v 1 b b G   ",
"P X X ; s s s c c ^ o +.& t p [ L f f f ..f [ L T 5 & +.o ^ ^ c s ; = 4 < E m a I @.> Y + e e x Z / ' - _ 1 G ",
"* ; s s ; s c c ^ o B +.+.t p p T T L L L L L T p p t & +.V o c c c s 6 < E m a ! @.> > + e e 9 Z / K - _ $ 1 ",
"( ; s ^ . . . . . . . . . . . . . . . . . . . . . . . . . . . . B ^ % f F < m a ! @.> > Y e e 9 9 / K - - : : ",
"6 s ^ B . . . . . . . . . . . . . . . . . . . . . . . . . . . . t o c T F E E a r @.> Y + e e U 9 / K - - : : ",
"L s ^ B . . . . . . . . . . . . . . . . . . . . . . . . . . . . p V ^ 5 @ < E m ! I > Y Y + e U 9 Z K K - $ $ ",
"T s o +.. . . . . . . . . . . . . . . . . . . . . . . . . . . . T t ^ l F E E a ! ! @.> Y + e e 9 9 / K - $ $ ",
"t c B t . . . . . . . . . . . . . . . . . . . . . . . . . . . . T t o & F E E m ! I I > Y Y + e U U Z / K _ $ ",
"t c +.p . . . . . . . . . . . . . . . . . . . . . . . . . . . . L 5 +.h F E m a ! ! I > Y Y + e e U 9 / K - 7 ",
"& o +.p . . . . . . . . . . . . . . . . . . . . . . . . . . . . L T & w F < E E ! ! ! I > > Y + e e U 9 / - 7 ",
"^ o t T . . . . . . . . . . . . . . . . . . . . . . . . . . . . L [ & @ < E E E m ! ! I I > Y Y + + e U U K _ ",
"^ o t T . . . . . . . . . . . . . . . . . . . . . . . . . . . . H L l N < E E E m m ! ! I I I > Y + + e U Z _ ",
"c o 5 L . . . . . . . . . . . . . . . . . . . . . . . . . . . . H f 5 @ E E E E m m a a ! I I @.@.Y Y i + Z d ",
"c V 5 L . . . . . . . . . . . . . . . . . . . . . . . . . . . . H f [ @ E E E a Y > y y + ) y 2 @.I > Y i U d ",
"c +.p f . . . . . . . . . . . . . . . . . . . . . . . . . . . . ..f [ j r Q ) y i x q x A A i @.) ) ) ) > A d ",
"c +.5 L . . . . . . . . . . . . . . . . . . . . . . . . . . . . ..f T l a m E m m Q Q Q Q ! r Q ! I I @.@.e d ",
"c +.p f . . . . . . . . . . . . . . . . . . . . . . . . . . . . ..f [ j m m m E E O m E m m m a a a a r I Y { ",
"c V p L . . . . . . . . . . . . . . . . . . . . . . . . . . . . ..f [ l m E E E E E E E E E E E E O m m a Y Z ",
"c +.5 L . . . . . . . . . . . . . . . . . . . . . . . . . . . . ..f [ l m m E E E < < < < E < < < E E E E @.x ",
"c o 5 T . . . . . . . . . . . . . . . . . . . . . . . . . . . . H L [ l m m E < < F F F F F F F @ F F < F r x ",
"c V t [ . . . . . . . . . . . . . . . . . . . . . . . . . . . . L [ [ l E E < < F F @ @ @ @ @ @ @ @ @ @ h O C ",
"^ ^ & T . . . . . . . . . . . . . . . . . . . . . . . . . . . . L T 5 j E < < F @ @ @ h @ h h @ h h w h w < A ",
"& ^ +.p . . . . . . . . . . . . . . . . . . . . . . . . . . . . L T l j E < F @ @ @ h h h h h w w # w # # O A ",
"t c +.t . . . . . . . . . . . . . . . . . . . . . . . . . . . . T 5 & j m F F @ @ h h w # # # # # # # % % N i ",
"t c o t . . . . . . . . . . . . . . . . . . . . . . . . . . . . T & l m E F @ h h h w # w # # # % % % % % N x ",
"p s ^ +.. . . . . . . . . . . . . . . . . . . . . . . . . . . . p +.V m E F h h w w w # # # % % % % = = = @ x ",
"H s ^ B . . . . . . . . . . . . . . . . . . . . . . . . . . . . t V o r F @ h h w # # # # % % % = = % , = @ g ",
"( X c c t T T T T T L L L L H H ..........H L L L T T T p p t t o ^ ^ 2 F @ w # # # % % % % = % , = = X , @ 7 ",
"* s ; s s s c ^ o V B +.t t t p T T L L L L L L T T p t +.V o c c s % < h h h # # % # = % = = = = = X X ; N k ",
"3 X X X s s s c c ^ o +.t t 5 T L f H H H f L L T 5 & +.o ^ c s s ; s z h w w # # % % = % = , = X X , X X z k ",
"D p +.o c s ; = s c ^ o o +.& t 5 p T T 5 T t & +.o o ^ o +.t ..t & t +.w % , = % = % = = = = X = X X ~ ] c D ",
"            ` ` k W c } } ] ~ ~ ~ X ; X ] ] s 8 g k ` b #.` S D W ( & V o c % = , , , , ] } ,  . . .n n n X D ",
"                    o . n } ] ] ] ] ~ ~ X ; ~ W         #.D S #.#.S ` R * L o s X ~ ] } } }  . . .n  .n  .X ` ",
"                    o | , % +.p T p T T T L B 6       G D D       S #.      #.` k W u ( ..T T t t & t p T (   ",
"                    V | , % +.T p T p p T T T ^ `     S S #.      ` S S b #.                                  ",
"                    V | , % +.[ T T T T T p L ^ u     ` G           G #.#.` ` ` #.#.G                         ",
"D D D D D D D D D D k D k D D D D D D D D D D D D D D k D D D D D k k       #.#.` ` ` b                       ",
"u u * 8 * 8 * 8 * P * P * P * P * W * W * R * R * R * g * k k * D * D               #.` G                     ",
"* u u u 8 8 8 3 3 3 3 P P P W W W W W q q q R R R g g g g g k k k D D               R R g k                   ",
"u u * u * 8 * 8 * 3 * 3 * P * P * W * q * q * R * R * g * g k * k * D               q R R g                   ",
"* * u * u * 8 * 8 * 3 * 3 * P * W * W * q * R * R * R * g k k k * D k               W W R R                   ",
"u u * 8 * 8 * 3 * 3 * P * P * W * W * W * q * R * g * g * g g * k * D               P P q q                   ",
"u * u u u 8 8 8 8 3 3 3 3 3 P P W W W q q q q R R R g g g g k k k D k               P P P W                   ",
"* * * * * * * * * * * * * * * * * * * * * * * * * * * * * * * * * * *               3 P P P                   "};
