/* XPM */
static char * sun_xpm[] = {
"28 24 33 1",
" 	c None",
".	c #66669C",
"+	c #8686AC",
"@	c #DADAE4",
"#	c #DEDEEC",
"$	c #9191B5",
"%	c #D4D4E4",
"&	c #FEFEFC",
"*	c #EAEAF4",
"=	c #7272A4",
"-	c #7B7BA5",
";	c #FAFAFC",
">	c #F2F2F4",
",	c #9898BC",
"'	c #6E6EA1",
")	c #C9C9E2",
"!	c #AAAAC4",
"~	c #F6F6FC",
"{	c #E2E2EC",
"]	c #EEEEF4",
"^	c #C2C2DB",
"/	c #8A8AB4",
"(	c #7676A4",
"_	c #A2A2C4",
":	c #AEAECC",
"<	c #E6E6EF",
"[	c #9E9EBC",
"}	c #B2B2CC",
"|	c #CECEE1",
"1	c #B6B6CC",
"2	c #BABAD2",
"3	c #A6A6C4",
"4	c #8282AC",
"............................",
"............+@#$............",
"............%&&*$...........",
"..........=-#;%;>,..........",
".........')#!~{)~>,.........",
"........-@)]{!>{^;>/........",
".......(_>~)>{:~{^]_-.......",
"......-{<[>>)]#:~{,<{'......",
".....({;)%}>>|~@[1<>^#-.....",
"....({;)<~[$>~&<${>^*~,'....",
"...({;^<;1^|1{<}<>^];2|%$...",
"...%&^<~1#&;{--%;|*~2{~;]...",
"...~&>;2@]|~*-(#;~~2{;)~~...",
"...,*]1#>2]~}^%1<<1<;^*;3...",
"....(4@]^*>,|&;],4{~|*;3....",
".....$<^]~}-%;%>>_<)*;3.....",
"......+{~!#<:>>)~>!#;!......",
".......[3%|;*:>>)~>!3.......",
"......../><|;*}>>|>$........",
"........._~<)~*}>]$.........",
"..........[~*|;{,[..........",
"...........[~~;{=...........",
"............,*>,............",
"............................"};
