/* XPM */
static char * suncpu_xpm[] = {
"55 45 33 1",
" 	c None",
".	c #020202",
"+	c #1A0A4E",
"@	c #7F7B80",
"#	c #D1D0D5",
"$	c #A19FA6",
"%	c #3E3C46",
"&	c #BBBAC2",
"*	c #575272",
"=	c #F3F3F4",
"-	c #635E7F",
";	c #88849A",
">	c #E1DFE6",
",	c #A9A8B1",
"'	c #6E6B71",
")	c #AEAEB9",
"!	c #8B8A95",
"~	c #C1C0C7",
"{	c #6D6889",
"]	c #79747D",
"^	c #CBCAD0",
"/	c #EBEAED",
"(	c #969599",
"_	c #4A446C",
":	c #B5B4BD",
"<	c #FEFEFE",
"[	c #E7E6E9",
"}	c #2A263B",
"|	c #807C9E",
"1	c #C7C6CD",
"2	c #ABA9C2",
"3	c #777296",
"4	c #302653",
"                                  =   :*'-']@;!$$):~&> ",
" />>>>>>>>>>>>>#;::~1#>>>>>>>>>>>>[   (**'''@]@!((($(> ",
" [#^#^^^^^^^^1^:3!(;(:^^#^#^#^#^#^>   $'*']@!(,,&1##([ ",
" [^:::::::)::&:::&:::&&&:&:&:&:&:#[   ('-''@@;!(,::1:[ ",
" [^)............................:#>   )''];((,,&&:~~#[ ",
" [^)............................&^[   $'''];($,:~1###[ ",
" >^2............................&#>   :@@!$,:&1#>>>/>[ ",
" >12............................,^[   :@!($,:1##>>[[>[ ",
" >1,............................,^>   &;($)&1^>>>[[/>[ ",
" >~,............................,#[   ~;($$2:::&~&^^1= ",
" >&,............................,^>   1$,,:~^#>>>>>//= ",
" #~,............................(#[   ^$::1>>[//=[[>$= ",
" #~,............................(^>   12&:*__*___}^[$= ",
" #:,............................(#[   #:&#&1^&~&>1#[>[ ",
" #:2............................!#>   #~~1#[[[=/>///[= ",
" #:,............................(#[   #$$$$$((((((;@') ",
" #:,............................;^>   ;}}4%*-''''*-{-) ",
" ^),............................!#[   ,]]]-)(~1##;;|3: ",
" ^),............................!^>   2{|]-;*$;;)|||3: ",
" ^),............................!#[   2{3]-()(@3(;|||2 ",
" ^2$............................!^>   ${33-+**44%;33{) ",
" 1:,............................;1[   233|{+4444_|||{2 ",
" 1),............................;~>   2333||3;33;333{) ",
" 12$............................!~#   :33||;|;|||3{3*: ",
" ^),............................!~#   :3333|3|333333-: ",
" 12$............................!~#   :333|3||33|{{--: ",
" 1,$............................;~^   ){33||{|333{{{-) ",
" 1,,............................(:#   :||{3|333{{{--*) ",
" 1,2$$$$$$$$$$,$$$$$$$$$$$$$$($$2)^  <2||3|33|3{3{{{-& ",
" 1,,:))::::&:::::::::::::):)::))):^ =>~{3{33{{3{-{*-*~ ",
" ~$$$,,)))2))):)::):):)))))2))2,$,~/[=:||3|333{{{{--*& ",
" >^^1&:,2))))22),,2,),22)2))2)~~^#>[= 233{{3{{3{{-*-*~ ",
"     />)$$,2)):)),$2))),,,,,,^   >/<  2333|3{3{-{{--_& ",
"      =^~11&)((((!!(((($)&1&&> =>=    3;;|-____44%_**3 ",
"         =#)(%}}}}}}%%_{(&[=  /[=     (;$:1:&~11(___*| ",
"        =^$;{}+}}}44444*3!2> /[<                       ",
"      <#({**__%___*_____**-;^/<          </[=<         ",
"########^##################^#####^^<    <>/=>/         ",
"$$($(,(,()()()(&(&(&(~(~(1(1(^^(#(#/[=<<// <//         ",
"$$$$,$,,,,)):):::&&&&&~~1~11^^^#^##</[/[>< ~1~^        ",
"$$($($(,(,(,()(:(:(&(~(&(~(1(1^(#(#  <==<  &~~1        ",
"(($($(,(,()()()(:(&(&(~(~(1(1^^^(##        :&~~        ",
"$$($($(,(,()()(:(:(&(&(~(~(1(1^(^(#        )::&        ",
"(($$$,$,,,,))))):::&&&~~~~~111^^^##        )):&        ",
"(((((((((((((((((((((((((((((((((((        ,)))        "};
