/* XPM */
static char * suse_xpm[] = {
"28 24 33 1",
" 	c None",
".	c #0C0C0C",
"+	c #47931F",
"@	c #606060",
"#	c #6BA94E",
"$	c #8CBC74",
"%	c #9BC587",
"&	c #C8C8C8",
"*	c #CADFBF",
"=	c #4E4E4E",
"-	c #DFE6DC",
";	c #6E6E6E",
">	c #909090",
",	c #EAEAEA",
"'	c #727272",
")	c #EBEEE9",
"!	c #5A9E38",
"~	c #303030",
"{	c #97BB83",
"]	c #868686",
"^	c #EFF2ED",
"/	c #7EB464",
"(	c #ABABAB",
"_	c #171717",
":	c #EEF6EA",
"<	c #828282",
"[	c #BDBDBD",
"}	c #DFDFDF",
"|	c #FEFEFE",
"1	c #222222",
"2	c #CDD5CA",
"3	c #AECC9F",
"4	c #A0A0A0",
"||||||||||||||||||||||||||||",
"||||||||||||||||||||||||||||",
"||||||||||||||||||||||||||||",
"||||||||||||||||||||||||||||",
"||||||||||||||||||||||||||||",
"||||||||||||||||||||||||||||",
"||||||||||||||||||||||||||||",
"||||||||:2%#!++++!$3)|||||||",
"||||||-/+++++++++++++#-|||||",
"||||:/+++++++++++++++++$%-||",
"|||-!++++++++++++++++++%//*|",
"||*++++++++++++++++++++/$!!|",
"|:!++++++++++++++++++!$///%|",
"|%+++//++++++++++++!$!++!+-|",
"|!+#)||*+!#+##!!#+/!+%%/%)||",
"|+/$*||)+*3!||||:+*$/|||||||",
"|+$/+:|:+*3#|||||/3*!|||||||",
"|/#$+*,,#*3/,,,,,%{}#--,,-||",
"|:/!#&====================&|",
"||||||||||||||||||||||||||||",
"||||||||||||||||||||||||||||",
"||||||||||||||||||||||||||||",
"||||||||||||||||||||||||||||",
"||||||||||||||||||||||||||||"};
