/* XPM */
static char * turbolinux_xpm[] = {
"28 24 236 2",
"  	c None",
". 	c #FFFFFF",
"+ 	c #FDFDFB",
"@ 	c #F8F8F6",
"# 	c #E1E0DE",
"$ 	c #B0ADA1",
"% 	c #776F40",
"& 	c #534D27",
"* 	c #494116",
"= 	c #5A5431",
"- 	c #979482",
"; 	c #C4C4C1",
"> 	c #EDEDE8",
", 	c #FAFAF8",
"' 	c #E7E7E5",
") 	c #ABAAA7",
"! 	c #6C6533",
"~ 	c #82741A",
"{ 	c #C4AA08",
"] 	c #EBCD04",
"^ 	c #FCDC04",
"/ 	c #E0C305",
"( 	c #AD970B",
"_ 	c #6D621C",
": 	c #89825D",
"< 	c #C5C5C2",
"[ 	c #F6F6F4",
"} 	c #E3E3E1",
"| 	c #8B8A83",
"1 	c #827520",
"2 	c #D1B606",
"3 	c #EECF05",
"4 	c #A5900B",
"5 	c #746D42",
"6 	c #B9B8B6",
"7 	c #F2F2F1",
"8 	c #96958F",
"9 	c #908224",
"0 	c #EDCF07",
"a 	c #EFD104",
"b 	c #D6BB05",
"c 	c #C5AC08",
"d 	c #C1A809",
"e 	c #D2B705",
"f 	c #E8CA04",
"g 	c #F5D504",
"h 	c #B8A009",
"i 	c #6F683E",
"j 	c #C8C8C6",
"k 	c #FBFBF9",
"l 	c #B9B8B3",
"m 	c #7F7226",
"n 	c #DFC306",
"o 	c #F1D204",
"p 	c #A7920E",
"q 	c #554C14",
"r 	c #373007",
"s 	c #302A09",
"t 	c #2E2809",
"u 	c #352E07",
"v 	c #48400E",
"w 	c #8F7F15",
"x 	c #DCC005",
"y 	c #A48F0C",
"z 	c #7D754D",
"A 	c #F4F4F0",
"B 	c #E8E8E6",
"C 	c #8A8983",
"D 	c #A4931E",
"E 	c #F8D904",
"F 	c #F5D606",
"G 	c #C3AA07",
"H 	c #423D1E",
"I 	c #19160A",
"J 	c #13120F",
"K 	c #393522",
"L 	c #87857C",
"M 	c #999998",
"N 	c #9D9C9C",
"O 	c #B0B0AF",
"P 	c #9E9C93",
"Q 	c #817A54",
"R 	c #988617",
"S 	c #49421A",
"T 	c #CAC9C6",
"U 	c #F0F0EE",
"V 	c #AEADA5",
"W 	c #665F34",
"X 	c #A99621",
"Y 	c #B09906",
"Z 	c #605724",
"` 	c #0F0D0A",
" .	c #0B0A09",
"..	c #302D1E",
"+.	c #77735D",
"@.	c #4E4C41",
"#.	c #1A1912",
"$.	c #100F0B",
"%.	c #545037",
"&.	c #989269",
"*.	c #76704E",
"=.	c #5F5A3D",
"-.	c #464437",
";.	c #787252",
">.	c #F4F4F3",
",.	c #F7F7F5",
"'.	c #E0E0E0",
").	c #A7A7A6",
"!.	c #514707",
"~.	c #95820B",
"{.	c #2D270B",
"].	c #0A0908",
"^.	c #1F1D18",
"/.	c #63625F",
"(.	c #6E6C63",
"_.	c #646259",
":.	c #5E5C51",
"<.	c #757368",
"[.	c #3D3A2C",
"}.	c #14120E",
"|.	c #7B6F29",
"1.	c #BBA82F",
"2.	c #65604A",
"3.	c #201E14",
"4.	c #1A1811",
"5.	c #302D24",
"6.	c #8B8B8B",
"7.	c #959594",
"8.	c #ADACA9",
"9.	c #B9B9B4",
"0.	c #D0D0CD",
"a.	c #BCBCBA",
"b.	c #312B07",
"c.	c #40380C",
"d.	c #0F0E0B",
"e.	c #393624",
"f.	c #9D9B92",
"g.	c #E0E0DF",
"h.	c #CECDCB",
"i.	c #EFEEEC",
"j.	c #C7C4B0",
"k.	c #2C270E",
"l.	c #4E4510",
"m.	c #262317",
"n.	c #201E16",
"o.	c #232119",
"p.	c #25231C",
"q.	c #302F27",
"r.	c #494634",
"s.	c #74705D",
"t.	c #AEAB99",
"u.	c #C2C1BD",
"v.	c #16140F",
"w.	c #454442",
"x.	c #BBB9AC",
"y.	c #FAFAF7",
"z.	c #252217",
"A.	c #151410",
"B.	c #1B1914",
"C.	c #1D1B15",
"D.	c #423E2D",
"E.	c #615C40",
"F.	c #726E5C",
"G.	c #7C7A6F",
"H.	c #939184",
"I.	c #C4C2B5",
"J.	c #D0CFC5",
"K.	c #373320",
"L.	c #2F2B1B",
"M.	c #B5B2A7",
"N.	c #F9F9F7",
"O.	c #49452E",
"P.	c #5C573B",
"Q.	c #6F694A",
"R.	c #D8D7D2",
"S.	c #E1E0D7",
"T.	c #E6E5DE",
"U.	c #ECECEA",
"V.	c #EAEAE8",
"W.	c #72716F",
"X.	c #878683",
"Y.	c #F9F9F6",
"Z.	c #F3F2ED",
"`.	c #9E9D97",
" +	c #16140E",
".+	c #1C1808",
"++	c #302C13",
"@+	c #8E7E13",
"#+	c #E0C407",
"$+	c #554D1A",
"%+	c #C9C9C6",
"&+	c #B6B5B0",
"*+	c #7F7D77",
"=+	c #E2E2DF",
"-+	c #E2DEC3",
";+	c #ACA156",
">+	c #8A7D2B",
",+	c #98892F",
"'+	c #CAB005",
")+	c #E7CA04",
"!+	c #F6D704",
"~+	c #9F8A09",
"{+	c #6D6951",
"]+	c #F3F3F1",
"^+	c #EBEBE9",
"/+	c #8F8D7F",
"(+	c #959388",
"_+	c #ECDA67",
":+	c #625C37",
"<+	c #C5C5C4",
"[+	c #DFDDD2",
"}+	c #8C8B80",
"|+	c #84827A",
"1+	c #D1D1D0",
"2+	c #FCE967",
"3+	c #9E8A08",
"4+	c #6C653D",
"5+	c #B9B9B6",
"6+	c #646258",
"7+	c #86847B",
"8+	c #DADAD9",
"9+	c #FDED88",
"0+	c #FCDE13",
"a+	c #665C1A",
"b+	c #767258",
"c+	c #C1C0C0",
"d+	c #DDDDD9",
"e+	c #98978F",
"f+	c #68644D",
"g+	c #49463B",
"h+	c #49442C",
"i+	c #35300E",
"j+	c #4C4620",
"k+	c #7D764D",
"l+	c #C3C3C0",
"m+	c #EAEAE7",
". . . . . . . . . . . . . . . . . . . . . . . . . . . . ",
". . . . . . . . . . . . . . . . . . . . . . . . . . . . ",
". . . . . . . . . . . . . . . . . . . . . . . . . . . . ",
". . . . . . . . . . . . . . . . . . . . . . . . . . . . ",
". + + + + + @ # $ % & * * = - ; > , + + + + + + + + + . ",
". + + + + ' ) ! ~ { ] ^ ^ / ( _ : < [ + + + + + + + + . ",
". + + + } | 1 2 ^ ^ ^ ^ ^ ^ ^ 3 4 5 6 [ + + + + + + + . ",
". + + 7 8 9 0 ^ ^ ^ a b c d e f g h i j k + + + + + + . ",
". + + l m n ^ ^ o p q r s t u v w x y z A + + + + + + . ",
". + B C D E F G H I J K L M N O P Q R S T + + + + + + . ",
". U V W X Y Z `  ...+.@.#. .$.%.&.*.=.-.;.>.,.+ + + + . ",
". '.).!.~.{.].^./.(._.:.<.[.}.|.1.2.3.4.5.6.7.8.9.0.@ . ",
". + a.b.c.d.e.f.+ [ g.h.i.j.4.k.l.m.n.o.o.o.p.q.r.s.t.. ",
". + u.v.].w.x.y.+ + + + + + z.].].].A.B.C.D.E.F.G.H.I.. ",
". + J.K.L.M.N.+ + + + + + + z.].].].O.P.Q.R.S.T.' U.k . ",
". + V.W.X.Y.+ + + + + , Z.`. +.+++@+#+$+%++ + + + + + . ",
". + + &+*+=++ + + + + -+;+>+,+'+)+!+~+{+]++ + + + + + . ",
". + + ^+/+(+i.+ + + + _+g ^ ^ ^ g h :+<+k + + + + + + . ",
". + + + [+}+|+1++ + + 2+^ ^ ^ 3 3+4+5+[ + + + + + + + . ",
". + + + + ' ) 6+7+8++ 9+0+/ ( a+b+c+[ + + + + + + + + . ",
". + + + + + @ d+e+f+g+h+i+j+k+l+m+, + + + + + + + + + . ",
". . . . . . . . . . . . . . . . . . . . . . . . . . . . ",
". . . . . . . . . . . . . . . . . . . . . . . . . . . . ",
". . . . . . . . . . . . . . . . . . . . . . . . . . . . "};
