/* XPM */
static char * wingdows_xpm[] = {
"28 24 33 1",
" 	c None",
".	c #FDFEFC",
"+	c #DEDEDC",
"@	c #B2B6BC",
"#	c #666664",
"$	c #3A3E3C",
"%	c #1E1E1C",
"&	c #9A9694",
"*	c #F7F2F1",
"=	c #020204",
"-	c #E6EAEC",
";	c #9A220C",
">	c #366A1C",
",	c #66CE34",
"'	c #FAE2DC",
")	c #CECECC",
"!	c #FE3204",
"~	c #262E0C",
"{	c #EE7E64",
"]	c #F6BAAC",
"^	c #063E5C",
"/	c #027ABC",
"(	c #826A04",
"_	c #FECE04",
":	c #CEEAFC",
"<	c #029AFC",
"[	c #72C6FC",
"}	c #A6D6F4",
"|	c #E2EEF4",
"1	c #36B2FC",
"2	c #3E96D4",
"3	c #52BAFC",
"4	c #569ADC",
"............................",
"............................",
"............................",
"..............+@#$$%%$#&+...",
"..#*+.......+&$=========$-..",
".*&-$.#@&@&#$%==;;=>,,>==+..",
"..'.+)##%&=%=$;!!;=>,,,~=+..",
".*{.{.']]+&&$$!!!;=>,,,~=+..",
"..*.]'{]!*!!%$!!!;=>,,,~=+..",
".*{.]*'']'{{$#!!!;=>,,,~=+..",
"..).{*{]{*{!%%!!!;=~>>,~=+..",
"..&*'']]{'!{$#;%====%====+..",
".*@.#.&@&@&#%%%^//=(__(==+..",
"..:.-)##%&=$%$/<</=(___~=+..",
"..[.[.:}}-&@$$<<</=(___~=+..",
"....}|1}1*12=$<<</=(___~=+..",
"..[.:.::}|[@$$<<</=(___~=+..",
"..|.[*3}3.32%$<</^=~(((~=+..",
"..&.+|}}3|14$#^%=========+..",
".*&*#*&@&@&#%%=%$##&&#$%=@@.",
"....@)##%&=%%#&@-.....*@&@#.",
"............................",
"............................",
"............................"};
