/* XPM */
static char * led[] = {
"122 11 30 1",
" 	c None",
".	c #000000",
"+	c #FFFFFF",
"@	c #010101",
"#	c #030303",
"$	c #050505",
"%	c #070707",
"&	c #0D0D0D",
"*	c #0B0B0B",
"=	c #080808",
"-	c #060606",
";	c #FCFFFE",
">	c #020202",
",	c #040404",
"'	c #101010",
")	c #121212",
"!	c #0E0E0E",
"~	c #FDFFFE",
"{	c #0F0F0F",
"]	c #131313",
"^	c #151515",
"/	c #161616",
"(	c #111111",
"_	c #0A0A0A",
":	c #FEFFFF",
"<	c #171717",
"[	c #141414",
"}	c #FBFEFE",
"|	c #090909",
"1	c #0C0C0C",
"....++++........+.....++++.@#$%++++&*=-;....+.....++++.....++++....++++.....++++.....++++.................................",
"...+....+.......+.........+>,-.&'))+!*=~#@..+....+........+............+...+....+...+....+................................",
"...+....+.......+.........+>$=.{]^/+(&_:#>@.+....+........+............+...+....+...+....+................................",
"..+....+.......+.........+@#$.&(^<+/]{+%,>@+....+........+............+...+....+...+....+...+.............................",
"..+....+.......+.........+@#$.&(^<+/]{+%,>@+....+........+............+...+....+...+....+...+.............................",
".....................+++..@>$.+++^/[(&_:}+@......+++......+++..............+++......+++..........++++++++...++............",
".+....+.......+....+......@...|&'+)(!..$#@+.........+...+....+.......+...+....+........+...................+..+...........",
".+....+.......+....+..........%_1+!&*..,>@+.........+...+....+.......+...+....+........+..+................+..+...........",
"+....+.......+....+..........#$%+|_|..,>@+.........+...+....+.......+...+....+........+...+.................++............",
"+....+.......+....+..........>#,~---..>.@+.........+...+....+.......+...+....+........+...................................",
".++++........+.....++++.....++++#####....+.....++++.....++++........+....++++.....++++...................................."};
