/* XPM */
static char * power_xpm[] = {
"8 8 4 1",
" 	c None",
".	c #999999",
"+	c #000000",
"@	c #7F7F7F",
" .++++. ",
".+@  @+.",
"+@ ++ @+",
"+  ++  +",
"+  ++  +",
"+@ ++ @+",
".+@  @+.",
" .++++. "};
