/* XPM */
static char * step_xpm[] = {
"8 8 3 1",
" 	c None",
".	c #000000",
"+	c #999999",
"..+   ..",
"....+ ..",
"........",
"........",
"........",
"........",
"....+ ..",
"..+   .."};
