/* XPM */
static char * foot_xpm[] = {
"18 18 73 1",
" 	c None",
".	c #E6E2DE",
"+	c #B6AEA5",
"@	c #EEEAE9",
"#	c #CECECC",
"$	c #7E6E64",
"%	c #D2D2D4",
"&	c #9E9E9C",
"*	c #6A5E54",
"=	c #D2CEC9",
"-	c #76665C",
";	c #0A0A0C",
">	c #AEA29A",
",	c #665A52",
"'	c #020204",
")	c #7A6A5C",
"!	c #26221C",
"~	c #565654",
"{	c #060604",
"]	c #AEAEAC",
"^	c #262624",
"/	c #7A7A7C",
"(	c #1A1614",
"_	c #A2968C",
":	c #6E6256",
"<	c #D6D6D4",
"[	c #A6968C",
"}	c #96867A",
"|	c #AA9E94",
"1	c #8E7E72",
"2	c #161211",
"3	c #86766C",
"4	c #E2E2E4",
"5	c #8A7A6C",
"6	c #928274",
"7	c #CAC2BC",
"8	c #5E564C",
"9	c #DEDEDC",
"0	c #C6BEB6",
"a	c #BEB6AC",
"b	c #A29284",
"c	c #A69A8E",
"d	c #DADADC",
"e	c #AAAAAC",
"f	c #564A44",
"g	c #5A4E44",
"h	c #E2DEDC",
"i	c #BEBEBC",
"j	c #B2A69C",
"k	c #DAD6D4",
"l	c #B6AAA2",
"m	c #AE9E94",
"n	c #564E44",
"o	c #C6C6C4",
"p	c #BAB6B3",
"q	c #7E7265",
"r	c #2E2624",
"s	c #DEDAD5",
"t	c #0E0A0C",
"u	c #A6A6A4",
"v	c #7A6E64",
"w	c #72665C",
"x	c #BAB2A4",
"y	c #C6C2BE",
"z	c #E6E6E4",
"A	c #4E463C",
"B	c #9E8E84",
"C	c #5E524C",
"D	c #C2C2C4",
"E	c #525254",
"F	c #B2B2B4",
"G	c #2E2E2C",
"H	c #222224",
"        .+        ",
"       @#$%       ",
"    & *==-;       ",
"    >,')*!'       ",
"     ~{ ]^#       ",
"   /(    ._       ",
"   :'< [}|12      ",
"   3 4 516$'      ",
"  7890abcc''      ",
"  d'e +fg''#      ",
"     h_3'i  jk1   ",
"     l|)'  . mno  ",
"     plqr   s5tu  ",
"      vc}[79a,'   ",
"      wx}[lyc''   ",
"      zA-B5[C'D   ",
"        Et2''i    ",
"         FGH&     "};
