/* XPM */
static char * toggleeven_xpm[] = {
"16 24 3 1",
" 	c None",
".	c #000000",
"+	c #F1C10F",
"                ",
"       ........ ",
"       .++++++. ",
"       .++++++. ",
"       ........ ",
"                ",
"                ",
"    .. ........ ",
".. ..  .++++++. ",
" ...   .++++++. ",
"  .    ........ ",
"                ",
"                ",
"       ........ ",
"       .++++++. ",
"       .++++++. ",
"       ........ ",
"                ",
"                ",
"    .. ........ ",
".. ..  .++++++. ",
" ...   .++++++. ",
"  .    ........ ",
"                "};
