/* XPM */
static char * gnome_mixer_xpm[] = {
"18 18 84 1",
" 	c None",
".	c #979797",
"+	c #989898",
"@	c #969696",
"#	c #949494",
"$	c #929292",
"%	c #8F8F8F",
"&	c #8D8D8D",
"*	c #8B8B8B",
"=	c #A0A0A0",
"-	c #9A9A9A",
";	c #9B9B9B",
">	c #818181",
",	c #828282",
"'	c #848484",
")	c #8A8A8A",
"!	c #747474",
"~	c #6F6F6F",
"{	c #878787",
"]	c #525252",
"^	c #959595",
"/	c #717171",
"(	c #868686",
"_	c #666666",
":	c #888888",
"<	c #707070",
"[	c #646464",
"}	c #8C8C8C",
"|	c #8E8E8E",
"1	c #616161",
"2	c #919191",
"3	c #7F7F7F",
"4	c #7C7C7C",
"5	c #2D2D2D",
"6	c #636363",
"7	c #909090",
"8	c #656565",
"9	c #858585",
"0	c #777777",
"a	c #6E6E6E",
"b	c #7B7B7B",
"c	c #454545",
"d	c #898989",
"e	c #686868",
"f	c #7D7D7D",
"g	c #585858",
"h	c #787878",
"i	c #696969",
"j	c #5A5A5A",
"k	c #7E7E7E",
"l	c #575757",
"m	c #7A7A7A",
"n	c #5F5F5F",
"o	c #737373",
"p	c #262626",
"q	c #797979",
"r	c #5E5E5E",
"s	c #595959",
"t	c #424242",
"u	c #6C6C6C",
"v	c #626262",
"w	c #727272",
"x	c #545454",
"y	c #808080",
"z	c #565656",
"A	c #6B6B6B",
"B	c #6A6A6A",
"C	c #171717",
"D	c #838383",
"E	c #6D6D6D",
"F	c #767676",
"G	c #505050",
"H	c #515151",
"I	c #323232",
"J	c #1A1A1A",
"K	c #000000",
"L	c #414141",
"M	c #242424",
"N	c #0D0D0D",
"O	c #020202",
"P	c #4E4E4E",
"Q	c #2A2A2A",
"R	c #141414",
"S	c #191919",
"                  ",
"                  ",
"     .+@#$%&*     ",
"=-*;>#,')!,~{]    ",
" ^~./*(!&_:_'<    ",
" .[#$}|1}2([345   ",
" #67(<:8940aabc   ",
" 2_{{1d^9!efghi   ",
" %e3dj94/klmnhop  ",
" }o~(nfqrbs!%m~t  ",
" :'u{vwfxq1e01ug  ",
" (^ykwnbzoAl~gBnC ",
" D(EF4GhvE/_HIJK  ",
" 4klqmE<vLMNO     ",
"  fm~PQRO         ",
"   SK             ",
"                  ",
"                  "};
